<svg xmlns="http://www.w3.org/2000/svg" width="8.811" height="13.2" viewBox="0 0 8.811 13.2">
    <defs>
        <style>
            .cls-1{fill:#666}
        </style>
    </defs>
    <g id="sps_round_icon_deleteconfiguration_grey4px" transform="translate(-270.422 -210.438)">
        <path id="Path_2219" d="M278.971 210.655l-2.293.615-1.443-.832-1.641.441-.833 1.441-2.339.627.259.966 8.549-2.292zm-4.718 1.082l.842-.225.216.124-1.183.318z" class="cls-1" data-name="Path 2219"/>
        <path id="Path_2220" d="M279.171 214.717a.978.978 0 0 0-.634-.635.967.967 0 0 0-.3-.061h-5.694a.962.962 0 0 0-.3.061.982.982 0 0 0-.635.635.961.961 0 0 0-.061.3v7.617a1.073 1.073 0 0 0 .934.987c.023 0 .043.013.066.013h5.694c.023 0 .042-.012.065-.013a.981.981 0 0 0 .881-.723.939.939 0 0 0 .054-.264v-7.617a.962.962 0 0 0-.07-.3zm-4.287 7.921h-2.347v-7.617h2.347zm3.351 0h-2.348v-7.617h2.348z" class="cls-1" data-name="Path 2220"/>
    </g>
</svg>
