<svg xmlns="http://www.w3.org/2000/svg" width="7.522" height="10.912" viewBox="0 0 7.522 10.912">
    <defs>
        <style>
            .cls-1{fill:#fff}
        </style>
    </defs>
    <g id="sps_round_icon_deleteconfiguration_white" transform="translate(-251.639 -212.726)">
        <path id="Path_2194" d="M258.686 212.914l-1.854.5-1.19-.684-1.423.381-.685 1.187-1.895.508.259.966 7.047-1.889z" class="cls-1" data-name="Path 2194"/>
        <path id="Path_2195" d="M259.154 216.676a1 1 0 0 0-.993-.965h-4.342a1.058 1.058 0 0 0-1 1v5.927a1.047 1.047 0 0 0 1 1h4.342a.994.994 0 0 0 .987-.933c0-.023.013-.043.013-.067v-5.927c0-.011-.006-.023-.007-.035zm-3.664 5.962h-1.671v-5.927h1.671zm2.671 0h-1.671v-5.927h1.671z" class="cls-1" data-name="Path 2195"/>
    </g>
</svg>
