<?xml version="1.0" encoding="UTF-8" standalone="no"?>
<!DOCTYPE svg PUBLIC "-//W3C//DTD SVG 1.1//EN"
 "http://www.w3.org/Graphics/SVG/1.1/DTD/svg11.dtd">
<!-- Generated by graphviz version 3.0.0 (20220226.1711)
 -->
<!-- Title: dependencies Pages: 1 -->
<svg width="712pt" height="247pt"
 viewBox="0.00 0.00 712.00 246.80" xmlns="http://www.w3.org/2000/svg" xmlns:xlink="http://www.w3.org/1999/xlink">
<g id="graph0" class="graph" transform="scale(1 1) rotate(0) translate(4 242.8)">
<title>dependencies</title>
<polygon fill="white" stroke="transparent" points="-4,4 -4,-242.8 708,-242.8 708,4 -4,4"/>
<text text-anchor="middle" x="352" y="-8.2" font-family="sans-serif" font-size="14.00">dependencies</text>
<g id="clust1" class="cluster">
<title>cluster_AppLayoutModule</title>
<polygon fill="none" stroke="black" stroke-dasharray="1,5" points="8,-32.8 8,-230.8 696,-230.8 696,-32.8 8,-32.8"/>
</g>
<g id="clust2" class="cluster">
<title>cluster_AppLayoutModule_declarations</title>
<polygon fill="none" stroke="black" points="176,-40.8 176,-92.8 688,-92.8 688,-40.8 176,-40.8"/>
</g>
<g id="clust7" class="cluster">
<title>cluster_AppLayoutModule_exports</title>
<polygon fill="none" stroke="black" points="91,-170.8 91,-222.8 613,-222.8 613,-170.8 91,-170.8"/>
</g>
<g id="clust6" class="cluster">
<title>cluster_AppLayoutModule_imports</title>
<polygon fill="none" stroke="black" points="16,-40.8 16,-92.8 168,-92.8 168,-40.8 16,-40.8"/>
</g>
<!-- ContentLayoutComponent -->
<g id="node1" class="node">
<title>ContentLayoutComponent</title>
<polygon fill="#ffffb3" stroke="black" points="679.82,-84.8 514.18,-84.8 514.18,-48.8 679.82,-48.8 679.82,-84.8"/>
<text text-anchor="middle" x="597" y="-62.6" font-family="Times,serif" font-size="14.00">ContentLayoutComponent</text>
</g>
<!-- AppLayoutModule -->
<g id="node4" class="node">
<title>AppLayoutModule</title>
<polygon fill="#8dd3c7" stroke="black" points="403.82,-149.8 400.82,-153.8 379.82,-153.8 376.82,-149.8 280.18,-149.8 280.18,-113.8 403.82,-113.8 403.82,-149.8"/>
<text text-anchor="middle" x="342" y="-127.6" font-family="Times,serif" font-size="14.00">AppLayoutModule</text>
</g>
<!-- ContentLayoutComponent&#45;&gt;AppLayoutModule -->
<g id="edge1" class="edge">
<title>ContentLayoutComponent&#45;&gt;AppLayoutModule</title>
<path fill="none" stroke="black" d="M559.88,-84.83C559.88,-101.2 559.88,-122.8 559.88,-122.8 559.88,-122.8 413.85,-122.8 413.85,-122.8"/>
<polygon fill="black" stroke="black" points="413.85,-119.3 403.85,-122.8 413.85,-126.3 413.85,-119.3"/>
</g>
<!-- MainLayoutComponent -->
<g id="node2" class="node">
<title>MainLayoutComponent</title>
<polygon fill="#ffffb3" stroke="black" points="496.04,-84.8 345.96,-84.8 345.96,-48.8 496.04,-48.8 496.04,-84.8"/>
<text text-anchor="middle" x="421" y="-62.6" font-family="Times,serif" font-size="14.00">MainLayoutComponent</text>
</g>
<!-- MainLayoutComponent&#45;&gt;AppLayoutModule -->
<g id="edge2" class="edge">
<title>MainLayoutComponent&#45;&gt;AppLayoutModule</title>
<path fill="none" stroke="black" d="M374.69,-84.91C374.69,-84.91 374.69,-103.79 374.69,-103.79"/>
<polygon fill="black" stroke="black" points="371.19,-103.79 374.69,-113.79 378.19,-103.79 371.19,-103.79"/>
</g>
<!-- NavLayoutComponent -->
<g id="node3" class="node">
<title>NavLayoutComponent</title>
<polygon fill="#ffffb3" stroke="black" points="328.31,-84.8 183.69,-84.8 183.69,-48.8 328.31,-48.8 328.31,-84.8"/>
<text text-anchor="middle" x="256" y="-62.6" font-family="Times,serif" font-size="14.00">NavLayoutComponent</text>
</g>
<!-- NavLayoutComponent&#45;&gt;AppLayoutModule -->
<g id="edge3" class="edge">
<title>NavLayoutComponent&#45;&gt;AppLayoutModule</title>
<path fill="none" stroke="black" d="M304.25,-84.91C304.25,-84.91 304.25,-103.79 304.25,-103.79"/>
<polygon fill="black" stroke="black" points="300.75,-103.79 304.25,-113.79 307.75,-103.79 300.75,-103.79"/>
</g>
<!-- ContentLayoutComponent  -->
<g id="node6" class="node">
<title>ContentLayoutComponent </title>
<polygon fill="#fb8072" stroke="black" points="605.32,-214.8 436.68,-214.8 436.68,-178.8 605.32,-178.8 605.32,-214.8"/>
<text text-anchor="middle" x="521" y="-192.6" font-family="Times,serif" font-size="14.00">ContentLayoutComponent </text>
</g>
<!-- AppLayoutModule&#45;&gt;ContentLayoutComponent  -->
<g id="edge5" class="edge">
<title>AppLayoutModule&#45;&gt;ContentLayoutComponent </title>
<path fill="none" stroke="black" stroke-dasharray="5,2" d="M403.68,-131.8C439.01,-131.8 476.38,-131.8 476.38,-131.8 476.38,-131.8 476.38,-168.69 476.38,-168.69"/>
<polygon fill="black" stroke="black" points="472.88,-168.69 476.38,-178.69 479.88,-168.69 472.88,-168.69"/>
</g>
<!-- AppLayoutModule&#45;&gt;ContentLayoutComponent  -->
<g id="edge8" class="edge">
<title>AppLayoutModule&#45;&gt;ContentLayoutComponent </title>
<path fill="none" stroke="black" stroke-dasharray="1,5" d="M403.93,-140.8C430.91,-140.8 456.48,-140.8 456.48,-140.8 456.48,-140.8 456.48,-168.77 456.48,-168.77"/>
<polygon fill="black" stroke="black" points="452.98,-168.77 456.48,-178.77 459.98,-168.77 452.98,-168.77"/>
</g>
<!-- MainLayoutComponent  -->
<g id="node7" class="node">
<title>MainLayoutComponent </title>
<polygon fill="#fb8072" stroke="black" points="419.04,-214.8 264.96,-214.8 264.96,-178.8 419.04,-178.8 419.04,-214.8"/>
<text text-anchor="middle" x="342" y="-192.6" font-family="Times,serif" font-size="14.00">MainLayoutComponent </text>
</g>
<!-- AppLayoutModule&#45;&gt;MainLayoutComponent  -->
<g id="edge6" class="edge">
<title>AppLayoutModule&#45;&gt;MainLayoutComponent </title>
<path fill="none" stroke="black" stroke-dasharray="5,2" d="M321.45,-149.91C321.45,-149.91 321.45,-168.79 321.45,-168.79"/>
<polygon fill="black" stroke="black" points="317.95,-168.79 321.45,-178.79 324.95,-168.79 317.95,-168.79"/>
</g>
<!-- AppLayoutModule&#45;&gt;MainLayoutComponent  -->
<g id="edge9" class="edge">
<title>AppLayoutModule&#45;&gt;MainLayoutComponent </title>
<path fill="none" stroke="black" stroke-dasharray="1,5" d="M362.55,-149.91C362.55,-149.91 362.55,-168.79 362.55,-168.79"/>
<polygon fill="black" stroke="black" points="359.05,-168.79 362.55,-178.79 366.05,-168.79 359.05,-168.79"/>
</g>
<!-- NavLayoutComponent  -->
<g id="node8" class="node">
<title>NavLayoutComponent </title>
<polygon fill="#fb8072" stroke="black" points="246.81,-214.8 99.19,-214.8 99.19,-178.8 246.81,-178.8 246.81,-214.8"/>
<text text-anchor="middle" x="173" y="-192.6" font-family="Times,serif" font-size="14.00">NavLayoutComponent </text>
</g>
<!-- AppLayoutModule&#45;&gt;NavLayoutComponent  -->
<g id="edge7" class="edge">
<title>AppLayoutModule&#45;&gt;NavLayoutComponent </title>
<path fill="none" stroke="black" stroke-dasharray="5,2" d="M280.25,-131.8C243.85,-131.8 204.86,-131.8 204.86,-131.8 204.86,-131.8 204.86,-168.69 204.86,-168.69"/>
<polygon fill="black" stroke="black" points="201.37,-168.69 204.86,-178.69 208.37,-168.69 201.37,-168.69"/>
</g>
<!-- AppLayoutModule&#45;&gt;NavLayoutComponent  -->
<g id="edge10" class="edge">
<title>AppLayoutModule&#45;&gt;NavLayoutComponent </title>
<path fill="none" stroke="black" stroke-dasharray="1,5" d="M280.2,-140.8C252.47,-140.8 225.89,-140.8 225.89,-140.8 225.89,-140.8 225.89,-168.77 225.89,-168.77"/>
<polygon fill="black" stroke="black" points="222.39,-168.77 225.89,-178.77 229.39,-168.77 222.39,-168.77"/>
</g>
<!-- AppCommonModule -->
<g id="node5" class="node">
<title>AppCommonModule</title>
<polygon fill="#8dd3c7" stroke="black" points="159.78,-84.8 156.78,-88.8 135.78,-88.8 132.78,-84.8 24.22,-84.8 24.22,-48.8 159.78,-48.8 159.78,-84.8"/>
<text text-anchor="middle" x="92" y="-62.6" font-family="Times,serif" font-size="14.00">AppCommonModule</text>
</g>
<!-- AppCommonModule&#45;&gt;AppLayoutModule -->
<g id="edge4" class="edge">
<title>AppCommonModule&#45;&gt;AppLayoutModule</title>
<path fill="none" stroke="black" d="M129.49,-84.83C129.49,-101.2 129.49,-122.8 129.49,-122.8 129.49,-122.8 270.25,-122.8 270.25,-122.8"/>
<polygon fill="black" stroke="black" points="270.25,-126.3 280.25,-122.8 270.25,-119.3 270.25,-126.3"/>
</g>
</g>
</svg>
