<svg id="sps_schuco_white_logo" xmlns="http://www.w3.org/2000/svg" width="79.237" height="13.5" viewBox="0 0 79.237 13.5">
  <defs>
    <style>
      .cls-1 {
        fill: #fff;
      }
    </style>
  </defs>
  <path id="Path_153" data-name="Path 153" class="cls-1" d="M40.5,0h2.739L44.1,2.627H42.176Zm7.463,2.627H49.89L51.539,0H48.8ZM44.412,0h3.214l-.671,2.627H45.083ZM79.237,10.565V6.9c0-2.012-1.174-2.935-3.27-2.935H69.735c-2.1,0-3.27.922-3.27,2.935v3.661c0,2.012,1.174,2.935,3.27,2.935h6.233c2.1,0,3.27-.922,3.27-2.935m-3.326,1.09H69.79c-.671,0-1.174-.307-1.174-1.09V6.9c0-.783.5-1.09,1.174-1.09h6.121c.671,0,1.174.307,1.174,1.09v3.661c0,.783-.5,1.09-1.174,1.09m-35.887-1.09V4h2.124v6.568c0,.783.5,1.09,1.174,1.09h5.366c.671,0,1.174-.307,1.174-1.09V4h2.124v6.568c0,2.012-1.174,2.935-3.27,2.935h-5.45c-2.1,0-3.27-.922-3.27-2.935m24.456,1.09h-6.82c-.671,0-1.174-.307-1.174-1.09V6.9c0-.783.5-1.09,1.174-1.09h6.792l.5-1.845H57.576c-2.1,0-3.27.922-3.27,2.935v3.661c0,2.012,1.174,2.935,3.27,2.935h7.407ZM35.384,9.475H28.145V13.5H26.021V4h2.124V7.658h7.239V4h2.124v9.5H35.384Zm-11.767,2.18H16.742c-.671,0-1.174-.307-1.174-1.09V6.9c0-.783.5-1.09,1.174-1.09h6.82l.5-1.845H16.686c-2.1,0-3.27.922-3.27,2.935v3.661c0,2.012,1.174,2.935,3.27,2.935h7.435Zm-12.186-.922c0,1.929-1.062,2.767-3.1,2.767H.168l.5-1.845h7.6c.671,0,1.006-.2,1.006-.922v-.2c0-.755-.335-.922-1.006-.922H3.1C1.062,9.587,0,8.748,0,6.848V6.764C0,4.835,1.062,4,3.1,4h7.91l-.5,1.845H3.158c-.671,0-1.006.2-1.006.922v.084c0,.755.335.922,1.006.922H8.329c2.012,0,3.1.838,3.1,2.767Z" transform="translate(0 0)"/>
</svg>
