<svg xmlns="http://www.w3.org/2000/svg" width="25.006" height="25.006" viewBox="0 0 25.006 25.006">
    <defs>
        <style>
            .cls-1{fill:#666}.cls-2,.cls-3,.cls-5{fill:none}.cls-2,.cls-3{stroke:#666}.cls-2{stroke-linecap:round}.cls-4{stroke:none}
        </style>
    </defs>
    <g id="sps_round_iconreport_thermal_darkgrey">
        <g id="Group_362" data-name="Group 362" transform="translate(5.938 9.377)">
            <g id="Group_360" data-name="Group 360" transform="rotate(90 6.542 6.542)">
                <ellipse id="Ellipse_61" cx="1.301" cy="1.301" class="cls-1" data-name="Ellipse 61" rx="1.301" ry="1.301" transform="translate(.521 10.419)"/>
                <ellipse id="Ellipse_62" cx="1.301" cy="1.301" class="cls-1" data-name="Ellipse 62" rx="1.301" ry="1.301"/>
                <path id="Path_167" d="M1.144 10.107s-2.31-3.518-.365-4.983S.175 0 .175 0" class="cls-2" data-name="Path 167" transform="translate(.678 1.3)"/>
            </g>
            <g id="Group_361" data-name="Group 361" transform="rotate(90 4.615 8.407)">
                <ellipse id="Ellipse_61-2" cx="1.301" cy="1.301" class="cls-1" data-name="Ellipse 61" rx="1.301" ry="1.301" transform="translate(.521 10.419)"/>
                <ellipse id="Ellipse_62-2" cx="1.301" cy="1.301" class="cls-1" data-name="Ellipse 62" rx="1.301" ry="1.301"/>
                <path id="Path_167-2" d="M1.144 10.107s-2.31-3.518-.365-4.983S.175 0 .175 0" class="cls-2" data-name="Path 167" transform="translate(.678 1.3)"/>
            </g>
        </g>
        <g id="Ellipse_98" class="cls-3" data-name="Ellipse 98">
            <ellipse cx="12.503" cy="12.503" class="cls-4" rx="12.503" ry="12.503"/>
            <ellipse cx="12.503" cy="12.503" class="cls-5" rx="12.003" ry="12.003"/>
        </g>
    </g>
</svg>
