<svg xmlns="http://www.w3.org/2000/svg" width="73.655" height="13.378" viewBox="0 0 73.655 13.378">
    <defs>
        <style>
            .prefix__cls-1{isolation:isolate}.prefix__cls-2{fill:#fff}
        </style>
    </defs>
    <g id="prefix__sps_spsolver_white_logo" transform="translate(-208.691 -472.214)">
        <g id="prefix__BP" class="prefix__cls-1">
            <g id="prefix__Group_5661" class="prefix__cls-1" data-name="Group 5661">
                <path id="prefix__Path_1862" d="M213.8 485.394h-5.113v-13.018h4.519a12.067 12.067 0 0 1 2.557.162 3.165 3.165 0 0 1 2.773 3.133c0 1.674-1.062 2.538-2.593 2.934 1.764.325 3.061 1.225 3.061 3.152.004 2.952-2.913 3.637-5.204 3.637zm-.4-11.074h-1.98v3.48h1.8c1.243 0 2.5-.252 2.5-1.765.011-1.354-1.178-1.715-2.312-1.715zm.252 5.329h-2.232v3.8h2.07c1.314 0 2.611-.306 2.611-1.89.008-1.549-1.108-1.91-2.441-1.91z" class="prefix__cls-2" data-name="Path 1862"/>
                <path id="prefix__Path_1863" d="M229.051 479.938a6.888 6.888 0 0 1-2.467.4h-2.449v5.06h-2.826v-13.022h4.825a6.162 6.162 0 0 1 3.529.756 3.8 3.8 0 0 1 1.656 3.3 3.669 3.669 0 0 1-2.268 3.506zm-3.259-5.564h-1.657v3.961h1.459c1.422 0 2.863-.323 2.863-2.034 0-1.62-1.315-1.927-2.665-1.927z" class="prefix__cls-2" data-name="Path 1863"/>
            </g>
        </g>
        <g id="prefix__Solver" class="prefix__cls-1">
            <g id="prefix__Group_5662" class="prefix__cls-1" data-name="Group 5662">
                <path id="prefix__Path_1864" d="M237.616 485.556c-2.377 0-4.123-1.044-4.357-3.547h1.224c.054 1.854 1.531 2.556 3.187 2.556 1.566 0 3.385-.684 3.385-2.52 0-1.4-1.135-2.053-2.809-2.593l-.954-.306c-2.107-.667-3.655-1.441-3.655-3.475 0-2.431 2.142-3.457 4.3-3.457 1.98 0 4.033.738 4.069 3.043H240.8c-.162-1.585-1.368-2.071-2.809-2.071-1.494 0-3.169.667-3.169 2.395 0 1.278.954 1.926 2.971 2.574l1.08.342c2.107.667 3.313 1.369 3.367 3.35.003 2.61-2.302 3.709-4.624 3.709z" class="prefix__cls-2" data-name="Path 1864"/>
                <path id="prefix__Path_1865" d="M248.452 485.592c-2.845 0-4.267-2.143-4.267-4.808 0-2.629 1.494-4.663 4.267-4.663 2.809 0 4.249 2 4.249 4.663-.001 2.557-1.513 4.808-4.249 4.808zm0-8.571c-2.179 0-3.1 1.8-3.1 3.763 0 1.927.9 3.961 3.1 3.961 2.16 0 3.079-2.088 3.079-3.961 0-1.944-.901-3.763-3.079-3.763z" class="prefix__cls-2" data-name="Path 1865"/>
                <path id="prefix__Path_1866" d="M255.146 485.394v-13.018h1.1v13.018z" class="prefix__cls-2" data-name="Path 1866"/>
                <path id="prefix__Path_1867" d="M262.977 485.394h-1.1l-3.745-9.093h1.224l3.187 7.9 3.025-7.9h1.132z" class="prefix__cls-2" data-name="Path 1867"/>
                <path id="prefix__Path_1868" d="M268.808 481.019v.215c0 1.837 1.026 3.547 3.025 3.547a2.494 2.494 0 0 0 2.575-2.268h1.044a3.485 3.485 0 0 1-3.763 3.079c-2.773 0-4-2.035-4-4.592 0-2.61 1.278-4.843 4.141-4.843 2.9 0 3.673 2.431 3.673 4.862zm5.582-.991c0-1.6-.9-3.025-2.629-3.025-1.837 0-2.773 1.549-2.917 3.205h5.546z" class="prefix__cls-2" data-name="Path 1868"/>
                <path id="prefix__Path_1869" d="M281.607 477.31c-1.944 0-2.556 1.133-2.556 2.934v5.15h-1.1v-6.428c0-.883-.036-1.783-.054-2.665h1.081l.072 1.423a3.026 3.026 0 0 1 2.79-1.477 4.769 4.769 0 0 1 .505.036v1.1a3.433 3.433 0 0 0-.738-.073z" class="prefix__cls-2" data-name="Path 1869"/>
            </g>
        </g>
    </g>
</svg>
