<svg xmlns="http://www.w3.org/2000/svg" id="sps_round_icon_thermal_darkgrey" width="18.261" height="18.262" viewBox="0 0 18.261 18.262">
    <defs>
        <style>
            .cls-1{fill:#666}.cls-2,.cls-3,.cls-5{fill:none}.cls-2,.cls-3{stroke:#666}.cls-2{stroke-linecap:round}.cls-4{stroke:none}
        </style>
    </defs>
    <g id="Group_362" data-name="Group 362" transform="translate(4.336 6.848)">
        <g id="Group_360" data-name="Group 360" transform="rotate(90 4.777 4.778)">
            <ellipse id="Ellipse_61" cx=".95" cy=".95" class="cls-1" data-name="Ellipse 61" rx=".95" ry=".95" transform="translate(.38 7.609)"/>
            <ellipse id="Ellipse_62" cx=".95" cy=".95" class="cls-1" data-name="Ellipse 62" rx=".95" ry=".95"/>
            <path id="Path_167" d="M.836 7.381S-.852 4.812.569 3.742.128 0 .128 0" class="cls-2" data-name="Path 167" transform="translate(.495 .95)"/>
        </g>
        <g id="Group_361" data-name="Group 361" transform="rotate(90 3.37 6.139)">
            <ellipse id="Ellipse_61-2" cx=".95" cy=".95" class="cls-1" data-name="Ellipse 61" rx=".95" ry=".95" transform="translate(.38 7.609)"/>
            <ellipse id="Ellipse_62-2" cx=".95" cy=".95" class="cls-1" data-name="Ellipse 62" rx=".95" ry=".95"/>
            <path id="Path_167-2" d="M.836 7.381S-.852 4.812.569 3.742.128 0 .128 0" class="cls-2" data-name="Path 167" transform="translate(.495 .95)"/>
        </g>
    </g>
    <g id="Ellipse_98" class="cls-3" data-name="Ellipse 98">
        <ellipse cx="9.131" cy="9.13" class="cls-4" rx="9.131" ry="9.13"/>
        <ellipse cx="9.131" cy="9.13" class="cls-5" rx="8.631" ry="8.63"/>
    </g>
</svg>
