<svg xmlns="http://www.w3.org/2000/svg" width="50" height="30" viewBox="0 0 50 30">
    <defs>
        <style>
            .cls-1,.cls-2,.cls-4{fill:none}.cls-1,.cls-2{stroke:#fff}.cls-2{stroke-width:1.5px}.cls-3{stroke:none}
        </style>
    </defs>
    <g id="sps_rectangle_icon_doublevent1_white" transform="translate(-740 -590)">
        <g id="Rectangle_1338" class="cls-1" data-name="Rectangle 1338">
            <path d="M0 0h25v30H0z" class="cls-3" transform="translate(765 590)"/>
            <path d="M.5.5h24v29H.5z" class="cls-4" transform="translate(765 590)"/>
        </g>
        <g id="Rectangle_1344" class="cls-1" data-name="Rectangle 1344">
            <path d="M0 0h25v30H0z" class="cls-3" transform="translate(740 590)"/>
            <path d="M.5.5h24v29H.5z" class="cls-4" transform="translate(740 590)"/>
        </g>
        <g id="Rectangle_1339" class="cls-1" data-name="Rectangle 1339">
            <path d="M0 0h21v26H0z" class="cls-3" transform="translate(767 592)"/>
            <path d="M.5.5h20v25H.5z" class="cls-4" transform="translate(767 592)"/>
        </g>
        <g id="Rectangle_1345" class="cls-1" data-name="Rectangle 1345">
            <path d="M0 0h21v26H0z" class="cls-3" transform="translate(742 592)"/>
            <path d="M.5.5h20v25H.5z" class="cls-4" transform="translate(742 592)"/>
        </g>
        <path id="Path_933" d="M831.175-19628.764L812.621-19641l18.555-12.312" class="cls-2" data-name="Path 933" transform="translate(-44 20246)"/>
        <path id="Path_939" d="M831.175-19628.764L812.621-19641l18.555-12.312" class="cls-2" data-name="Path 939" transform="rotate(180 786.898 -9518.038)"/>
    </g>
</svg>
