<svg xmlns="http://www.w3.org/2000/svg" width="13.117" height="23.834" viewBox="0 0 13.117 23.834">
    <defs>
        <style>
            .cls-1,.cls-4{fill:none}.cls-1{stroke:#707070}.cls-2,.cls-8{fill:#bfbfbf}.cls-3,.cls-5,.cls-6,.cls-9{fill:#f18700}.cls-3{stroke:#bfbfbf}.cls-3,.cls-6{stroke-width:2px}.cls-4{stroke:#00a2d1}.cls-6{stroke:#f18700}.cls-7,.cls-8,.cls-9{stroke:none}
        </style>
    </defs>
    <g id="sps_solo_icon_reactions_blue" transform="translate(13094.476 8419.5)">
        <g id="Group_2092" data-name="Group 2092" transform="translate(-679 102)">
            <path id="Union_64" d="M12226.5 8737a1.5 1.5 0 1 1 3 0 1.5 1.5 0 0 1-3 0z" class="cls-1" data-name="Union 64" transform="translate(-24636.92 -17256.5)"/>
            <g id="Group_1959" data-name="Group 1959" transform="translate(-12413.93 -8508.5)">
                <path id="Path_691" d="M-11808-8505.332h5l1.99 1.99h-6.99" class="cls-1" data-name="Path 691" transform="translate(11811.02 8505.332)"/>
                <path id="Path_692" d="M-11801.01-8505.332h-5l-1.99 1.99h6.99" class="cls-1" data-name="Path 692" transform="translate(11808 8505.332)"/>
            </g>
            <g id="Polygon_7" class="cls-2" data-name="Polygon 7">
                <path d="M4.098 3.5H.902L2.5.943 4.098 3.5z" class="cls-7" transform="translate(-12411.42 -8505)"/>
                <path d="M2.5 1.887L1.804 3h1.392L2.5 1.887M2.5 0L5 4H0l2.5-4z" class="cls-8" transform="translate(-12411.42 -8505)"/>
            </g>
            <path id="Path_728" d="M-11798-8505.233v3.567" class="cls-3" data-name="Path 728" transform="translate(-610.92 4)"/>
            <path id="Path_725" d="M-11783-8520v11.531h6.049V-8520" class="cls-1" data-name="Path 725" transform="translate(-628.92)"/>
        </g>
        <g id="Group_2093" data-name="Group 2093" transform="translate(-775 102)">
            <path id="Union_66" d="M12226.5 8737a1.5 1.5 0 1 1 3 0 1.5 1.5 0 0 1-3 0z" class="cls-4" data-name="Union 66" transform="translate(-24540.92 -17256.5)"/>
            <g id="Group_1961" data-name="Group 1961" transform="translate(-12317.93 -8508.5)">
                <path id="Path_691-2" d="M-11808-8505.332h5l1.99 1.99h-6.99" class="cls-4" data-name="Path 691" transform="translate(11811.02 8505.332)"/>
                <path id="Path_692-2" d="M-11801.01-8505.332h-5l-1.99 1.99h6.99" class="cls-4" data-name="Path 692" transform="translate(11808 8505.332)"/>
            </g>
            <g id="Polygon_9" class="cls-5" data-name="Polygon 9">
                <path d="M4.098 3.5H.902L2.5.943 4.098 3.5z" class="cls-7" transform="translate(-12315.42 -8505)"/>
                <path d="M2.5 1.887L1.804 3h1.392L2.5 1.887M2.5 0L5 4H0l2.5-4z" class="cls-9" transform="translate(-12315.42 -8505)"/>
            </g>
            <path id="Path_766" d="M-11798-8505.233v3.567" class="cls-6" data-name="Path 766" transform="translate(-514.92 4)"/>
            <path id="Path_764" d="M-11783-8520v11.531h6.049V-8520" class="cls-4" data-name="Path 764" transform="translate(-532.92)"/>
        </g>
    </g>
</svg>
