<svg xmlns="http://www.w3.org/2000/svg" width="37.859" height="37.859" viewBox="0 0 37.859 37.859">
    <defs>
        <style>
            .cls-1{fill:none}.cls-2,.cls-4{fill:#404040}.cls-3,.cls-4{stroke:none}
        </style>
    </defs>
    <g id="sps_round_icon_createnewglass_darkgrey" transform="translate(-211.07 -221.07)">
        <g id="Group_2776" data-name="Group 2776" transform="rotate(-90 235 20)">
            <g id="Path_358" class="cls-1" data-name="Path 358">
                <path d="M15 0A15 15 0 1 1 0 15 15 15 0 0 1 15 0z" class="cls-3" transform="rotate(90 15 15)"/>
                <path d="M15 3a11.921 11.921 0 0 0-8.485 3.515A11.921 11.921 0 0 0 3 15c0 3.205 1.248 6.219 3.515 8.485A11.921 11.921 0 0 0 15 27c3.205 0 6.219-1.248 8.485-3.515A11.921 11.921 0 0 0 27 15c0-3.205-1.248-6.219-3.515-8.485A11.921 11.921 0 0 0 15 3m0-3c8.284 0 15 6.716 15 15 0 8.284-6.716 15-15 15-8.284 0-15-6.716-15-15C0 6.716 6.716 0 15 0z" class="cls-4" transform="rotate(90 15 15)"/>
            </g>
        </g>
        <g id="Group_2700" data-name="Group 2700" transform="translate(-358.587 156.376)">
            <rect id="Rectangle_411" width="1.731" height="10.018" class="cls-2" data-name="Rectangle 411" rx=".866" transform="rotate(-90 334.046 -249.554)"/>
            <rect id="Rectangle_1471" width="1.731" height="10.018" class="cls-2" data-name="Rectangle 1471" rx=".866" transform="rotate(180 294.738 44.319)"/>
        </g>
        <g id="Group_2777" data-name="Group 2777" transform="rotate(-90 235 23.93)">
            <g id="Path_358-2" class="cls-1" data-name="Path 358">
                <path d="M18.93 0A18.93 18.93 0 1 1 0 18.93 18.93 18.93 0 0 1 18.93 0z" class="cls-3" transform="rotate(90 18.93 18.93)"/>
                <path d="M18.93 1.5A17.316 17.316 0 0 0 6.605 6.605 17.316 17.316 0 0 0 1.5 18.93c0 4.655 1.813 9.032 5.105 12.324A17.316 17.316 0 0 0 18.93 36.36c4.655 0 9.032-1.813 12.324-5.105A17.316 17.316 0 0 0 36.36 18.93c0-4.656-1.813-9.033-5.105-12.325A17.316 17.316 0 0 0 18.93 1.5m0-1.5c10.454 0 18.93 8.475 18.93 18.93 0 10.454-8.476 18.93-18.93 18.93C8.475 37.86 0 29.383 0 18.93 0 8.475 8.475 0 18.93 0z" class="cls-4" transform="rotate(90 18.93 18.93)"/>
            </g>
        </g>
    </g>
</svg>
