<svg xmlns="http://www.w3.org/2000/svg" width="39.753" height="39.754" viewBox="0 0 39.753 39.754">
    <defs>
        <style>
            .cls-1{fill:#00a2d1}.cls-2,.cls-4{fill:none}.cls-2{stroke:#00a2d1;stroke-width:2px}.cls-3{stroke:none}
        </style>
    </defs>
    <g id="sps_round_icon_firetruck_blue" transform="translate(4906 10528)">
        <g id="Group_1975" data-name="Group 1975" transform="translate(-4896 -10519)">
            <path id="Path_778" d="M295.115-1032.276c-.25.016-.5 0-.772 0v-.224-1.162a.531.531 0 0 0-.6-.6c-.266 0-.532-.005-.8 0a.512.512 0 0 0-.537.553v1.234c0 .063-.005.126-.008.185h-2.5v-.824a.3.3 0 0 1 .07.173.509.509 0 0 0 .593.431.492.492 0 0 0 .535-.476c.011-.514.009-1.028 0-1.542a.5.5 0 0 0-.449-.491.565.565 0 0 0-.649.31 2 2 0 0 0-.065.3h-8.492l-.027-.169a.527.527 0 0 0-.617-.45.511.511 0 0 0-.514.522v1.488a.49.49 0 0 0 .506.5.517.517 0 0 0 .624-.435c.01-.059.023-.117.035-.175l.026.009v.823h-2.5v-1.408a.52.52 0 0 0-.563-.565h-.8a.517.517 0 0 0-.573.572v1.216c0 .064-.008.127-.014.2h-.724c-.441 0-.622.184-.622.629v16.25h2.13v2.327a.487.487 0 0 0 .552.545h1.016a.5.5 0 0 0 .545-.556v-2.305h11.544v2.312a.5.5 0 0 0 .547.554h.962c.432 0 .6-.17.6-.6v-2.284h2.126c.005-.07.013-.116.013-.163v-16.116a.547.547 0 0 0-.598-.588zm-12.3-.837h5.755v.834h-5.755zm-4.645 14.785a1.122 1.122 0 0 1-1.132-1.122 1.117 1.117 0 0 1 1.111-1.123 1.125 1.125 0 0 1 1.117 1.085 1.136 1.136 0 0 1-1.094 1.16zm6.916-6.456h-8.04v-5.666h8.04zm1.2 0v-5.66h8.041v5.66zm6.945 6.456a1.128 1.128 0 0 1-1.121-1.133 1.115 1.115 0 0 1 1.1-1.111 1.12 1.12 0 0 1 1.124 1.131 1.132 1.132 0 0 1-1.099 1.113z" class="cls-1" data-name="Path 778" transform="translate(-275.674 1035.025)"/>
        </g>
        <g id="Group_1984" data-name="Group 1984" transform="translate(-5618 -10624)">
            <g id="Ellipse_97" class="cls-2" data-name="Ellipse 97" transform="translate(712 96)">
                <circle cx="19.876" cy="19.876" r="19.876" class="cls-3"/>
                <circle cx="19.876" cy="19.876" r="18.876" class="cls-4"/>
            </g>
        </g>
    </g>
</svg>
