<svg xmlns="http://www.w3.org/2000/svg" width="300.327" height="607" viewBox="0 0 300.327 607">
    <defs>
        <style>
            .cls-1{fill:#00a2d1}.cls-2{fill:#787878}.cls-3,.cls-5,.cls-6,.cls-7,.cls-8{fill:none;stroke:#fff;stroke-miterlimit:10}.cls-3{stroke-width:.5px}.cls-11,.cls-13,.cls-4{fill:#fff}.cls-5{stroke-width:.25px}.cls-7{stroke-dasharray:5.193 5.193 2.077 5.193}.cls-8{stroke-dasharray:10.386 5.193 5.193 5.193 2.077 5.193}.cls-11{font-size:28px}.cls-11,.cls-13{font-family:UniversForSchueco-431RgIt,Univers for Schueco;font-style:italic}.cls-12{font-size:16.332px;baseline-shift:-9.332399639036119}.cls-13{font-size:25px}.cls-14{font-size:14.582px;baseline-shift:-8.332499716634633}
        </style>
    </defs>
    <g id="sps_rectangle_picture_customsection" transform="translate(-18512 17767)">
        <g id="Group_6867" transform="translate(18596.322 -17682)">
            <g id="Group_3121">
                <path id="Rectangle_1613" d="M0 0H164.386V19.336H0z" class="cls-1" transform="translate(.005)"/>
                <path id="Rectangle_1614" d="M0 0H164.386V9.668H0z" class="cls-1" transform="translate(.005 154.708)"/>
                <path id="Rectangle_1615" d="M0 0H154.718V10.274H0z" class="cls-1" transform="rotate(-90 77.89 77.89)"/>
                <path id="Rectangle_1616" d="M0 0H154.718V10.274H0z" class="cls-1" transform="rotate(-90 159.247 5.13)"/>
            </g>
            <g id="Group_3122" transform="translate(.005 328.76)">
                <path id="Rectangle_1617" d="M0 0H164.386V13.541H0z" class="cls-1" transform="rotate(180 82.193 57.538)"/>
                <path id="Rectangle_1618" d="M0 0H164.386V6.771H0z" class="cls-1" transform="rotate(180 82.193 3.386)"/>
                <path id="Rectangle_1619" d="M0 0H108.3V10.274H0z" class="cls-1" transform="rotate(90 79.181 85.202)"/>
                <path id="Rectangle_1620" d="M0 0H108.3V10.274H0z" class="cls-1" transform="rotate(90 5.136 5.139)"/>
            </g>
            <g id="Group_3123" transform="translate(36.088 164.378)">
                <path id="Rectangle_1621" d="M0 0H9.052V147.996H0z" class="cls-2" transform="translate(3.308 7.767)"/>
                <path id="Path_1145" d="M90.659 299.23l-7.829 23.291H98.5z" class="cls-2" transform="translate(-82.83 -158.139)"/>
                <path id="Path_1146" d="M90.659 178.092l7.839-23.3H82.83z" class="cls-2" transform="translate(-82.83 -154.79)"/>
            </g>
            <g id="Group_3124" transform="translate(113.709 164.378)">
                <path id="Rectangle_1622" d="M0 0H9.052V147.996H0z" class="cls-2" transform="translate(3.319 7.767)"/>
                <path id="Path_1147" d="M166.219 299.23l-7.839 23.291h15.678z" class="cls-2" transform="translate(-158.38 -158.139)"/>
                <path id="Path_1148" d="M166.219 178.092l7.839-23.3H158.38z" class="cls-2" transform="translate(-158.38 -154.79)"/>
            </g>
        </g>
        <g id="Group_6873" transform="translate(18555.793 -17608.025)">
            <g id="Group_3128">
                <path id="Line_2" d="M0 0L0 83.375" class="cls-3" transform="translate(1.49 4.541)"/>
                <g id="Group_3126">
                    <path id="Path_1149" d="M19.04 77.7l1.49-5.569 1.5 5.569z" class="cls-4" transform="translate(-19.04 -72.13)"/>
                </g>
                <g id="Group_3127" transform="translate(0 86.888)">
                    <path id="Path_1150" d="M19.04 156.7l1.49 5.579 1.5-5.579z" class="cls-4" transform="translate(-19.04 -156.7)"/>
                </g>
            </g>
        </g>
        <g id="Group_6876" transform="translate(18555.793 -17682)">
            <g id="Group_3132">
                <path id="Line_3" d="M0 64.881L0 0" class="cls-3" transform="translate(1.49 4.541)"/>
                <g id="Group_3130" transform="translate(0 68.395)">
                    <path id="Path_1151" d="M22.03 66.7l-1.5 5.579-1.49-5.579z" class="cls-4" transform="translate(-19.04 -66.7)"/>
                </g>
                <g id="Group_3131">
                    <path id="Path_1152" d="M22.03 5.7L20.53.13 19.04 5.7z" class="cls-4" transform="translate(-19.04 -.13)"/>
                </g>
            </g>
        </g>
        <g id="Group_6875" transform="translate(18555.281 -17284.904)">
            <g id="Group_3136">
                <path id="Line_4" d="M0 0L0 37.141" class="cls-3" transform="translate(1.49 4.541)"/>
                <g id="Group_3134">
                    <path id="Path_1153" d="M18.54 392.2l1.49-5.569 1.5 5.569z" class="cls-4" transform="translate(-18.54 -386.63)"/>
                </g>
                <g id="Group_3135" transform="translate(0 40.655)">
                    <path id="Path_1154" d="M18.54 426.2l1.49 5.579 1.5-5.579z" class="cls-4" transform="translate(-18.54 -426.2)"/>
                </g>
            </g>
        </g>
        <g id="Group_6874" transform="translate(18555.32 -17353.227)">
            <g id="Group_3140">
                <path id="Line_5" d="M0 59.23L0.473 0" class="cls-3" transform="translate(1.49 4.541)"/>
                <g id="Group_3138" transform="translate(0 62.734)">
                    <path id="Path_1155" d="M21.57 381.221l-1.541 5.558-1.449-5.589z" class="cls-4" transform="translate(-18.58 -381.19)"/>
                </g>
                <g id="Group_3139" transform="translate(.462)">
                    <path id="Path_1156" d="M22.01 325.709l-1.449-5.579-1.531 5.548z" class="cls-4" transform="translate(-19.03 -320.13)"/>
                </g>
            </g>
        </g>
        <path id="Line_94" d="M46.653 0L0 0" class="cls-5" transform="translate(18549.676 -17238.156)"/>
        <path id="Line_95" d="M46.653 0L0 0" class="cls-5" transform="translate(18549.676 -17353.227)"/>
        <path id="Line_96" d="M46.427 0L0 0" class="cls-5" transform="translate(18549.676 -17515.559)"/>
        <path id="Line_97" d="M46.427 0L0 0" class="cls-5" transform="translate(18549.676 -17682)"/>
        <g id="Group_6877" transform="translate(18548.875 -17609.068)">
            <g id="Group_3142">
                <path id="Line_10" d="M0 0L4.524 0" class="cls-6"/>
                <path id="Line_11" d="M0 0L13.627 0.027" class="cls-7" transform="translate(9.22 .009)"/>
                <path id="Line_12" d="M0 0L208.155 0.389" class="cls-8" transform="translate(25.199 .045)"/>
                <path id="Line_13" d="M0 0L4.524 0.009" class="cls-6" transform="translate(235.707 .443)"/>
            </g>
        </g>
        <g id="Group_6869" transform="translate(18548.875 -17285.727)">
            <g id="Group_3144">
                <path id="Line_14" d="M0 0.018L4.593 0" class="cls-6" transform="translate(0 .9)"/>
                <path id="Line_15" fill="none" stroke="#fff" stroke-dasharray="5.112 5.112 2.045 5.112" stroke-miterlimit="10" d="M0 0.055L13.624 0" transform="translate(9.288 .827)"/>
                <path id="Line_16" fill="none" stroke="#fff" stroke-dasharray="10.224 5.112 5.112 5.112 2.045 5.112" stroke-miterlimit="10" d="M0 0.799L208.032 0" transform="translate(25.254 .018)"/>
                <path id="Line_17" d="M0 0.009L4.593 0" class="cls-6" transform="translate(235.637)"/>
            </g>
        </g>
        <g id="Group_6872" transform="translate(18642.078 -17585.689)">
            <text id="Ao" class="cls-11" transform="translate(3 27)">
                <tspan x="0" y="0">A</tspan><tspan y="0" class="cls-12">o</tspan>
            </text>
            <text id="_Io" class="cls-11" transform="translate(42.724 27)">
                <tspan x="0" y="0">,I</tspan><tspan y="0" class="cls-12">o</tspan>
            </text>
        </g>
        <g id="Group_6870" transform="translate(18642.078 -17335.85)">
            <text id="Au" class="cls-11" transform="translate(3 27)">
                <tspan x="0" y="0">A</tspan><tspan y="0" class="cls-12">u</tspan>
            </text>
            <text id="_Iu" class="cls-11" transform="translate(42.724 27)">
                <tspan x="0" y="0">,I</tspan><tspan y="0" class="cls-12">u</tspan>
            </text>
        </g>
        <g id="Group_6868" transform="translate(18803.52 -17682)">
            <g id="Group_3162">
                <path id="Line_25" d="M0 0L0 434.75" class="cls-3" transform="translate(1.49 4.541)"/>
                <g id="Group_3160">
                    <path id="Path_1163" d="M289.04 5.7l1.49-5.57 1.5 5.569z" class="cls-4" transform="translate(-289.04 -.13)"/>
                </g>
                <g id="Group_3161" transform="translate(0 438.264)">
                    <path id="Path_1164" d="M289.04 426.7l1.49 5.579 1.5-5.579z" class="cls-4" transform="translate(-289.04 -426.7)"/>
                </g>
            </g>
        </g>
        <path id="Line_93" d="M49.784 0L0 0" class="cls-5" transform="translate(18762.543 -17238.156)"/>
        <text id="zoo" class="cls-13" transform="rotate(-90 453.834 -18082.166)">
            <tspan x="0" y="0">z</tspan><tspan y="0" class="cls-14">oo</tspan>
        </text>
        <text id="zou" class="cls-13" transform="rotate(-90 496.275 -18039.725)">
            <tspan x="0" y="0">z</tspan><tspan y="0" class="cls-14">ou</tspan>
        </text>
        <text id="zuo" class="cls-13" transform="rotate(-90 617.054 -17918.985)">
            <tspan x="0" y="0">z</tspan><tspan y="0" class="cls-14">uo</tspan>
        </text>
        <text id="zuu" class="cls-13" transform="rotate(-90 646.017 -17889.983)">
            <tspan x="0" y="0">z</tspan><tspan y="0" class="cls-14">uu</tspan>
        </text>
        <text id="d" fill="#fff" font-family="UniversForSchueco-431RgIt, Univers for Schueco" font-size="26px" font-style="italic" transform="rotate(-90 673.007 -18123.48)">
            <tspan x="0" y="0">d</tspan>
        </text>
        <path id="Line_98" d="M49.784 0L0 0" class="cls-5" transform="translate(18762.543 -17682)"/>
        <g id="Group_6879" transform="rotate(90 18201.104 477.897)">
            <g id="Group_3128-2">
                <path id="Line_2-2" d="M0 0L0 73.507" class="cls-3" transform="translate(1.49 4.541)"/>
                <g id="Group_3126-2">
                    <path id="Path_1149-2" d="M19.04 77.7l1.49-5.569 1.5 5.569z" class="cls-4" transform="translate(-19.04 -72.13)"/>
                </g>
                <g id="Group_3127-2" transform="translate(0 77.021)">
                    <path id="Path_1150-2" d="M19.04 156.7l1.49 5.579 1.5-5.579z" class="cls-4" transform="translate(-19.04 -156.7)"/>
                </g>
            </g>
        </g>
        <g id="Group_6880" transform="rotate(90 18241.96 518.753)">
            <g id="Group_3132-2">
                <path id="Line_3-2" d="M0 72.62L0 0" class="cls-3" transform="translate(1.49 4.541)"/>
                <g id="Group_3130-2" transform="translate(0 76.134)">
                    <path id="Path_1151-2" d="M22.03 66.7l-1.5 5.579-1.49-5.579z" class="cls-4" transform="translate(-19.04 -66.7)"/>
                </g>
                <g id="Group_3131-2">
                    <path id="Path_1152-2" d="M22.03 5.7L20.53.13 19.04 5.7z" class="cls-4" transform="translate(-19.04 -.13)"/>
                </g>
            </g>
        </g>
        <path id="Line_99" d="M46.427 0L0 0" class="cls-5" transform="rotate(90 18162.862 433.538)"/>
        <path id="Line_100" d="M46.427 0L0 0" class="cls-5" transform="rotate(90 18245.162 515.838)"/>
        <g id="Group_6871" transform="rotate(90 18204.563 474.438)">
            <g id="Group_3142-2">
                <path id="Line_10-2" d="M0 0L4.524 0" class="cls-6"/>
                <path id="Line_11-2" d="M0 0L13.627 0.027" class="cls-7" transform="translate(9.22 .009)"/>
                <path id="Line_12-2" d="M0 0L208.155 0.389" class="cls-8" transform="translate(25.199 .045)"/>
                <path id="Line_13-2" d="M0 0L4.524 0.009" class="cls-6" transform="translate(235.707 .443)"/>
            </g>
        </g>
        <text id="zor" class="cls-13" transform="translate(18709.174 -17743)">
            <tspan x="0" y="0">z</tspan><tspan y="0" class="cls-14">or</tspan>
        </text>
        <text id="zur" class="cls-13" transform="translate(18709.174 -17172)">
            <tspan x="0" y="0">z</tspan><tspan y="0" class="cls-14">ur</tspan>
        </text>
        <text id="zol" class="cls-13" transform="translate(18624.291 -17743)">
            <tspan x="0" y="0">z</tspan><tspan y="0" class="cls-14">ol</tspan>
        </text>
        <text id="zul" class="cls-13" transform="translate(18624.291 -17172)">
            <tspan x="0" y="0">z</tspan><tspan y="0" class="cls-14">ul</tspan>
        </text>
        <g id="Group_6866" transform="translate(17482 -17859.957)">
            <g id="Group_6864" transform="rotate(-90 933.894 -262.507)">
                <g id="Group_3142-3">
                    <path id="Line_10-3" d="M0 0L3.643 0" class="cls-6"/>
                    <path id="Line_11-3" d="M0 0L10.972 0.027" class="cls-7" transform="translate(7.424 .009)"/>
                    <path id="Line_12-3" d="M0 0L166.181 0.389" class="cls-8" transform="translate(20.29 .045)"/>
                    <path id="Line_13-3" d="M0 0L3.643 0.009" class="cls-6" transform="translate(188.365 .443)"/>
                </g>
            </g>
            <g id="Group_6863" transform="rotate(-90 930.436 -265.965)">
                <g id="Group_3128-3">
                    <path id="Line_2-3" d="M0 0L0 73.507" class="cls-3" transform="translate(1.49 4.541)"/>
                    <g id="Group_3126-3">
                        <path id="Path_1149-3" d="M19.04 77.7l1.49-5.569 1.5 5.569z" class="cls-4" transform="translate(-19.04 -72.13)"/>
                    </g>
                    <g id="Group_3127-3" transform="translate(0 77.021)">
                        <path id="Path_1150-3" d="M19.04 156.7l1.49 5.579 1.5-5.579z" class="cls-4" transform="translate(-19.04 -156.7)"/>
                    </g>
                </g>
            </g>
            <g id="Group_6862" transform="rotate(-90 889.58 -225.109)">
                <g id="Group_3132-3">
                    <path id="Line_3-3" d="M0 72.62L0 0" class="cls-3" transform="translate(1.49 4.541)"/>
                    <g id="Group_3130-3" transform="translate(0 76.134)">
                        <path id="Path_1151-3" d="M22.03 66.7l-1.5 5.579-1.49-5.579z" class="cls-4" transform="translate(-19.04 -66.7)"/>
                    </g>
                    <g id="Group_3131-3">
                        <path id="Path_1152-3" d="M22.03 5.7L20.53.13 19.04 5.7z" class="cls-4" transform="translate(-19.04 -.13)"/>
                    </g>
                </g>
            </g>
            <path id="Line_92" d="M46.427 0L0 0" class="cls-5" transform="rotate(-90 974.794 -304.206)"/>
            <path id="Line_91" d="M46.427 0L0 0" class="cls-5" transform="rotate(-90 892.494 -221.906)"/>
        </g>
    </g>
</svg>
