<svg xmlns="http://www.w3.org/2000/svg" viewBox="0 0 20 20" width="20" height="20">
	<style>
		tspan { white-space:pre }
		.shp0 { fill: #ffffff } 
	</style>
	<g id="Layer">
		<g id="Layer">
			<g id="Layer">
				<path id="Layer" class="shp0" d="M15.19 13.79L10.42 11.4L10.42 5.84C10.42 5.63 10.27 5.44 10.06 5.42C9.81 5.38 9.58 5.58 9.58 5.83L9.58 11.4L4.81 13.79C4.61 13.89 4.53 14.14 4.63 14.34C4.73 14.55 4.98 14.63 5.18 14.53L10 12.12L14.81 14.53C15.02 14.64 15.27 14.55 15.37 14.34C15.48 14.14 15.39 13.89 15.19 13.79Z" />
				<path id="Layer" class="shp0" d="M9.58 2.21L9.58 3.74C9.58 3.95 9.73 4.14 9.94 4.17C10.2 4.2 10.42 4 10.42 3.75L10.42 2.21L11.96 0.72C12.13 0.56 12.13 0.29 11.97 0.13C11.81 -0.04 11.54 -0.04 11.38 0.12L10 1.45L8.63 0.12C8.46 -0.04 8.2 -0.04 8.03 0.13C7.87 0.29 7.88 0.56 8.04 0.72L9.58 2.21Z" />
				<path id="Layer" class="shp0" d="M3.33 18.75L1.33 18.75L3.65 16.11C3.8 15.94 3.78 15.67 3.61 15.52C3.53 15.46 3.44 15.42 3.34 15.42L0.43 15.42C0.22 15.42 0.03 15.57 0.01 15.77C-0.03 16.03 0.17 16.25 0.42 16.25L2.42 16.25L0.11 18.89C-0.04 19.07 -0.03 19.33 0.15 19.48C0.22 19.55 0.32 19.59 0.42 19.59L3.32 19.59C3.53 19.59 3.72 19.44 3.75 19.23C3.78 18.97 3.58 18.75 3.33 18.75Z" />
				<path id="Layer" class="shp0" d="M19.88 19.29L18.66 17.9L19.88 16.51C20.04 16.34 20.04 16.08 19.88 15.92C19.71 15.76 19.45 15.76 19.29 15.92C19.28 15.93 19.26 15.95 19.25 15.96L18.11 17.27L16.96 15.96C16.82 15.78 16.56 15.74 16.38 15.88C16.2 16.02 16.16 16.28 16.3 16.47C16.31 16.48 16.33 16.49 16.34 16.51L17.56 17.9L16.34 19.29C16.18 19.45 16.18 19.72 16.34 19.88C16.5 20.04 16.76 20.04 16.93 19.88C16.94 19.87 16.95 19.85 16.96 19.84L18.11 18.53L19.25 19.84C19.39 20.02 19.65 20.05 19.83 19.92C20.02 19.77 20.05 19.52 19.91 19.33C19.9 19.32 19.89 19.3 19.88 19.29Z" />
			</g>
		</g>
	</g>
	<g id="Layer">
	</g>
	<g id="Layer">
	</g>
	<g id="Layer">
	</g>
	<g id="Layer">
	</g>
	<g id="Layer">
	</g>
	<g id="Layer">
	</g>
	<g id="Layer">
	</g>
	<g id="Layer">
	</g>
	<g id="Layer">
	</g>
	<g id="Layer">
	</g>
	<g id="Layer">
	</g>
	<g id="Layer">
	</g>
	<g id="Layer">
	</g>
	<g id="Layer">
	</g>
	<g id="Layer">
	</g>
</svg>