<svg xmlns="http://www.w3.org/2000/svg" width="39.753" height="39.754" viewBox="0 0 39.753 39.754">
    <defs>
        <style>
            .cls-1{fill:#00a2d1}.cls-2,.cls-4{fill:none}.cls-2{stroke:#00a2d1;stroke-width:2px}.cls-3{stroke:none}
        </style>
    </defs>
    <g id="sps_round_icon_train_blue" transform="translate(4838 10528)">
        <g id="Group_1974" data-name="Group 1974" transform="translate(-4827 -10519)">
            <g id="Group_1970" data-name="Group 1970">
                <g id="Group_1969" data-name="Group 1969">
                    <g id="Group_1968" data-name="Group 1968">
                        <path id="Path_776" d="M326.151 269.023v1.663h-1.8l.723 1.17-1.378-.062-.681-1.108H312.33l-.693 1.108-1.3.062.723-1.17h-1.96v-1.663h2.989l.859-1.386h-1.63v-1.386h2.482l.53-.851a3 3 0 0 1-2.662-2.974v-9.952a3 3 0 0 1 2.994-2.993h6.071a2.993 2.993 0 0 1 2.994 2.993v9.952a2.993 2.993 0 0 1-2.659 2.974l.53.851h2.331v1.386h-1.475l.859 1.386zm-3.806-12.849v-2.024a1 1 0 0 0-1-1h-7.291a1 1 0 0 0-1 1v2.024a1 1 0 0 0 1 1h7.291a1 1 0 0 0 1-1zm0 6.556a1.109 1.109 0 1 0-1.108 1.108 1.109 1.109 0 0 0 1.108-1.107zm-.352 6.293l-.851-1.386h-6.905l-.867 1.386zm-1.7-2.772l-.51-.832h-4.158l-.522.832zm-.925-14.179v-1.3a.179.179 0 0 0-.178-.18h-2.969a.18.18 0 0 0-.18.18v1.3a.18.18 0 0 0 .18.18h2.969a.179.179 0 0 0 .175-.181zm-4.089 10.659a1.109 1.109 0 1 0-1.109 1.108 1.109 1.109 0 0 0 1.106-1.108z" class="cls-1" data-name="Path 776" transform="translate(-309.1 -249.48)"/>
                    </g>
                </g>
            </g>
        </g>
        <g id="Group_1985" data-name="Group 1985" transform="translate(-5550 -10624)">
            <g id="Ellipse_97" class="cls-2" data-name="Ellipse 97" transform="translate(712 96)">
                <circle cx="19.876" cy="19.876" r="19.876" class="cls-3"/>
                <circle cx="19.876" cy="19.876" r="18.876" class="cls-4"/>
            </g>
        </g>
    </g>
</svg>
