<svg xmlns="http://www.w3.org/2000/svg" width="39.753" height="39.754" viewBox="0 0 39.753 39.754">
    <defs>
        <style>
            .cls-1{fill:#00a2d1}.cls-2,.cls-4{fill:none}.cls-2{stroke:#00a2d1;stroke-width:2px}.cls-3{stroke:none}
        </style>
    </defs>
    <g id="sps_round_icon_airport_blue" transform="translate(4975 10528)">
        <g id="Group_1976" data-name="Group 1976" transform="translate(-4966.5 -10518.5)">
            <path id="Path_777" d="M259.209-3643.533c-.464.275-.651.281-.919.038-.361-.326-.373-.455-.089-1.05l-.509-.212-3.52-1.44c-.175-.071-.32-.163-.343-.373a.464.464 0 0 1 .263-.452 3.989 3.989 0 0 1 2.773-.64c.59.059 1.183.09 1.775.135.472.036.944.078 1.416.108a.241.241 0 0 0 .174-.076c.551-.664 1.073-1.352 1.648-1.994.7-.782 1.456-1.514 2.16-2.292a4.639 4.639 0 0 0 .486-.832l-1.427-.606-9.184-3.9a3.097 3.097 0 0 1-.131-.06.416.416 0 0 1-.147-.7 2.416 2.416 0 0 1 2.218-.842c1.11.148 2.222.281 3.333.421a.734.734 0 0 1 .106.017.29.29 0 0 0 .348-.133 5.1 5.1 0 0 1 1.151-1.1c.03-.02.059-.041.09-.06.45-.286.478-.283.845.091.156.158.319.31.464.478a.249.249 0 0 1 .048.214c-.124.263-.268.517-.411.786.336.045.688.094 1.041.14s.7.086 1.051.136a.289.289 0 0 0 .308-.113 5.047 5.047 0 0 1 1.136-1.068l.06-.04c.454-.29.475-.288.849.087.153.153.3.313.46.457a.191.191 0 0 1 .052.264l-.368.7c.195.023.393.053.592.07.573.047 1.146.117 1.719.121a1.413 1.413 0 0 0 1.068-.466 44.607 44.607 0 0 1 1.907-1.885 5.78 5.78 0 0 1 2.287-1.238c.216-.067.439-.117.661-.165a.709.709 0 0 1 .858.819 6.376 6.376 0 0 1-1.412 3.005c-.59.662-1.209 1.3-1.844 1.92a1.483 1.483 0 0 0-.474 1.1c0 .574.074 1.147.117 1.72.006.083.019.165.029.247.183-.079.359-.165.543-.228a.234.234 0 0 1 .2.046c.244.231.474.477.717.708a.155.155 0 0 1 .039.218c-.211.332-.414.67-.646.986a3.71 3.71 0 0 1-.48.486.279.279 0 0 0-.1.276c.1.76.181 1.523.27 2.284a.187.187 0 0 0 .021.042c.173-.1.342-.214.52-.307.261-.136.264-.13.467.074s.411.4.6.617a.238.238 0 0 1 .043.213 6.475 6.475 0 0 1-.535.865 7.4 7.4 0 0 1-.731.743.279.279 0 0 0-.1.264c.158 1.241.293 2.487.476 3.725a2.449 2.449 0 0 1-.737 2.206c-.306.308-.614.24-.782-.163l-3.679-8.845-.746-1.788c-.018-.044-.039-.086-.062-.136a3.643 3.643 0 0 0-1.038.659 158.14 158.14 0 0 1-3.175 3.007c-.262.244-.572.435-.853.659a.258.258 0 0 0-.093.184c.084 1.178.177 2.356.266 3.533a3.922 3.922 0 0 1-.7 2.549.419.419 0 0 1-.411.208.423.423 0 0 1-.343-.305l-1.6-3.959-.066-.158z" class="cls-1" data-name="Path 777" transform="translate(-253.503 3661.025)"/>
        </g>
        <g id="Group_520" data-name="Group 520" transform="translate(-5687 -10624)">
            <g id="Ellipse_97" class="cls-2" data-name="Ellipse 97" transform="translate(712 96)">
                <circle cx="19.876" cy="19.876" r="19.876" class="cls-3"/>
                <circle cx="19.876" cy="19.876" r="18.876" class="cls-4"/>
            </g>
        </g>
    </g>
</svg>
