<svg xmlns="http://www.w3.org/2000/svg" width="42.248" height="42.248" viewBox="0 0 42.248 42.248">
    <defs>
        <style>
            .cls-1,.cls-2,.cls-5{fill:none}.cls-1{stroke:#666;stroke-width:2px}.cls-3,.cls-6{fill:#666}.cls-4,.cls-6{stroke:none}
        </style>
    </defs>
    <g id="sps_round_icon_productinfo_grey" transform="translate(5872 9797)">
        <g id="Group_2033" data-name="Group 2033" transform="translate(-1454 -724)">
            <g id="Ellipse_283" class="cls-1" data-name="Ellipse 283" transform="translate(-4418 -9073)">
                <ellipse cx="21.124" cy="21.124" class="cls-4" rx="21.124" ry="21.124"/>
                <ellipse cx="21.124" cy="21.124" class="cls-5" rx="20.124" ry="20.124"/>
            </g>
        </g>
        <g id="Subtraction_66" class="cls-2" data-name="Subtraction 66">
            <path d="M15.017 21.5H2a2 2 0 0 1-2-2V2a2 2 0 0 1 2-2h13.017a2 2 0 0 1 2 2v17.5a2 2 0 0 1-2 2zM2.655 1.672a1 1 0 0 0-1 1v16.151a1 1 0 0 0 1 1h11.708a1 1 0 0 0 1-1V2.672a1 1 0 0 0-1-1z" class="cls-4" transform="translate(-5859.009 -9786.748)"/>
            <path d="M15.017 21.496H2c-1.103 0-2-.898-2-2V2C0 .897.897 0 2 0h13.017c1.104 0 2.001.897 2.001 2v17.496c0 1.102-.897 2-2 2zM2.655 1.672c-.551 0-1 .449-1 1v16.151c0 .552.449 1 1 1h11.708c.551 0 1-.448 1-1V2.673c0-.552-.449-1-1-1H2.655z" class="cls-6" transform="translate(-5859.009 -9786.748)"/>
        </g>
        <path id="Subtraction_67" d="M11.644 16.122H0V0h11.644v16.121zM5.322 6.047l-2 6.863h2.094l2-6.863h-2.1zm.832-2.985L5.8 4.246h2.231l.352-1.184H6.154z" class="cls-3" data-name="Subtraction 67" transform="translate(-5856.322 -9784.062)"/>
    </g>
</svg>
