<svg xmlns="http://www.w3.org/2000/svg" width="42.248" height="42.248" viewBox="0 0 42.248 42.248">
    <defs>
        <style>
            .cls-1,.cls-4{fill:none}.cls-1{stroke:#00a2d1;stroke-width:2px}.cls-2{fill:#00a2d1}.cls-3{stroke:none}
        </style>
    </defs>
    <g id="sps_round_icon_environmentalaudio_blue" transform="translate(4418 9073)">
        <g id="Ellipse_283" class="cls-1" data-name="Ellipse 283" transform="translate(-4418 -9073)">
            <ellipse cx="21.124" cy="21.124" class="cls-3" rx="21.124" ry="21.124"/>
            <ellipse cx="21.124" cy="21.124" class="cls-4" rx="20.124" ry="20.124"/>
        </g>
        <g id="Group_2024" data-name="Group 2024" transform="rotate(-30 -1543.642 -10107.11)">
            <g id="Group_2011" data-name="Group 2011" transform="translate(-4555 -10630)">
                <path id="Path_782" d="M198.145 252.11a1.32 1.32 0 0 0-1.437.264l-4.178 4.021-1.047 1.006h-5.329a1.327 1.327 0 0 0-1.326 1.326v6.594a1.327 1.327 0 0 0 1.326 1.326h5.331l5.222 5.024a1.326 1.326 0 0 0 2.245-.954v-17.386a1.324 1.324 0 0 0-.807-1.221z" class="cls-2" data-name="Path 782" transform="translate(-184.829 -252.004)"/>
            </g>
            <g id="Group_2013" data-name="Group 2013" transform="translate(-4534.717 -10628.854)">
                <g id="Group_2012" data-name="Group 2012">
                    <path id="Path_783" d="M692.042 289.257a11.451 11.451 0 0 1-3.9 8.612.718.718 0 0 1-1.011-.069.722.722 0 0 1 .073-1.02 10.025 10.025 0 0 0-.091-15.124.722.722 0 0 1-.078-1.026.718.718 0 0 1 1.005-.073 11.456 11.456 0 0 1 4.002 8.7z" class="cls-2" data-name="Path 783" transform="translate(-686.858 -280.386)"/>
                </g>
            </g>
            <g id="Group_2015" data-name="Group 2015" transform="translate(-4537.08 -10625.62)">
                <g id="Group_2014" data-name="Group 2014">
                    <path id="Path_784" d="M632.1 366.04a7.16 7.16 0 0 1-2.421 5.37.723.723 0 0 1-1.024-.058.714.714 0 0 1 .061-1.007 5.729 5.729 0 0 0-.08-8.675.718.718 0 0 1-.079-1.022.723.723 0 0 1 1.016-.065 7.163 7.163 0 0 1 2.527 5.457z" class="cls-2" data-name="Path 784" transform="translate(-628.376 -360.402)"/>
                </g>
            </g>
            <g id="Group_2017" data-name="Group 2017" transform="translate(-4539.692 -10623.2)">
                <g id="Group_2016" data-name="Group 2016">
                    <path id="Path_785" d="M566.357 423.514a3.936 3.936 0 0 1-1.344 2.965.714.714 0 0 1-1-.076.709.709 0 0 1 .049-1 2.508 2.508 0 0 0-.078-3.844.71.71 0 0 1-.068-1.017.711.711 0 0 1 .977-.1 3.941 3.941 0 0 1 1.464 3.072z" class="cls-2" data-name="Path 785" transform="translate(-563.731 -420.295)"/>
                </g>
            </g>
        </g>
    </g>
</svg>
