<svg xmlns="http://www.w3.org/2000/svg" width="323" height="68" viewBox="0 0 323 68">
    <defs>
        <style>
            .cls-2{fill:#fff}
        </style>
    </defs>
    <g id="edgetech_enabled" transform="translate(-410 -335)">
        <rect id="Rectangle_2342" width="323" height="68" fill="#363636" data-name="Rectangle 2342" rx="3" transform="translate(410 335)"/>
        <g id="Group_6005" data-name="Group 6005" transform="translate(1794.66 -1010.993)">
            <path id="Path_1992" d="M-1035.307 1406.284c-.171-.238-.453-.186-.685-.248a6.633 6.633 0 0 1-4.657-3.989c1.15 0 2.212.007 3.275 0 .281 0 .408.209.589.345a4.138 4.138 0 0 0 5.174-.106 3.579 3.579 0 0 0 1.212-2.759c-.289.285-.479.479-.676.665a4.624 4.624 0 0 1-4.2 1.26 6.525 6.525 0 0 1-5.4-5.406 6.557 6.557 0 0 1 5.765-7.9 4.75 4.75 0 0 1 4.517 1.9.663.663 0 0 0 .057-.173c.028-1.36.027-1.36 1.374-1.36 1.414 0 1.414 0 1.414 1.433v9.5a6.574 6.574 0 0 1-5.893 6.718c-.09.013-.166.025-.186.128zm1.185-15.181a3.586 3.586 0 0 0-3.633 3.617 3.745 3.745 0 0 0 3.74 3.839 3.69 3.69 0 0 0 3.607-3.68 3.69 3.69 0 0 0-3.714-3.779z" class="cls-2" data-name="Path 1992" transform="translate(-197.072 -15.322)"/>
            <path id="Path_1993" d="M-1103.236 1369.045c0 5.389-.006 10.778.011 16.167 0 .488-.1.684-.625.638a11.644 11.644 0 0 0-1.738 0c-.413.026-.526-.124-.491-.508.03-.332.006-.669.006-1.094a5.294 5.294 0 0 1-6.388 1.571 6.278 6.278 0 0 1-4.062-5.749 6.531 6.531 0 0 1 5.795-7.21 5.349 5.349 0 0 1 4.4 1.573v-5.387zm-6.6 6.778a3.772 3.772 0 0 0-3.693 3.617 3.789 3.789 0 0 0 3.683 3.839 3.776 3.776 0 0 0 3.75-3.766 3.729 3.729 0 0 0-3.737-3.69z" class="cls-2" data-name="Path 1993" transform="translate(-136.361 -.042)"/>
            <path id="Path_1994" d="M-1286.619 1388.926c1.243-.013 2.487-.034 3.73-.037 2.06-.006 4.12.005 6.18-.008.39 0 .581.074.579.524q-.023 5.1 0 10.2c0 .382-.11.523-.51.52-3.326-.018-6.652-.018-9.978-.024z" class="cls-2" data-name="Path 1994" transform="translate(-.033 -15.942)"/>
            <path id="Path_1995" d="M-1163.118 1369.045c-.009.855-.041 1.71-.017 2.563.011.4-.119.5-.511.5-1.631-.02-3.263 0-4.894-.017-.4 0-.563.076-.546.518.036.94.031 1.882 0 2.822-.013.4.122.5.509.5 1.567-.021 3.134 0 4.7-.017.384-.005.531.079.509.491a17.725 17.725 0 0 0 0 2.052c.028.454-.156.514-.548.51-1.545-.02-3.091.007-4.637-.018-.425-.007-.551.113-.536.536.032.94.032 1.882 0 2.822-.014.406.113.5.5.491 1.588-.022 3.178.025 4.765-.027.6-.02.722.178.683.715a18.119 18.119 0 0 0 0 1.924c.011.334-.094.442-.436.441-2.748-.012-5.5-.018-8.244 0-.563 0-.422-.352-.422-.641q-.006-7.731 0-15.461c0-.234-.017-.469-.026-.7z" class="cls-2" data-name="Path 1995" transform="translate(-91.692 -.042)"/>
            <path id="Path_1996" d="M-704.031 1369.045v4.944c.276-.194.512-.385.771-.537a4.907 4.907 0 0 1 7.231 3.432 27.669 27.669 0 0 1 .117 3.906c.014 1.518-.009 3.036.012 4.554.005.385-.086.527-.5.506a19.751 19.751 0 0 0-2.06 0c-.44.024-.53-.139-.529-.546.01-2.181 0-4.361-.025-6.542a5.06 5.06 0 0 0-.131-1.014 2.173 2.173 0 0 0-2.344-1.923 2.338 2.338 0 0 0-2.447 1.926 5.874 5.874 0 0 0-.127 1.4c0 2.053-.011 4.105.009 6.158 0 .415-.1.565-.534.541a14.328 14.328 0 0 0-1.93 0c-.531.042-.623-.159-.622-.641.017-5.388.011-10.777.011-16.165z" class="cls-2" data-name="Path 1996" transform="translate(-464.534 -.042)"/>
            <path id="Path_1997" d="M-889.4 1369.045c-.009 1.261-.01 2.522-.033 3.782-.006.309.1.4.4.4.467 0 1.125-.215 1.351.1.237.328.08.945.082 1.435 0 1.186 0 1.21-1.206 1.178-.494-.013-.644.108-.639.623.027 2.887 0 5.774.026 8.66 0 .521-.15.661-.647.626a13.172 13.172 0 0 0-1.8 0c-.49.034-.65-.1-.645-.62.029-2.865 0-5.731.028-8.6.006-.555-.117-.79-.691-.684-.618.115-.907-.084-.813-.769a6.321 6.321 0 0 0 0-1.409c-.042-.47.147-.613.582-.552.147.021.3-.014.45.007.371.052.468-.1.462-.461-.021-1.24-.008-2.48-.008-3.721z" class="cls-2" data-name="Path 1997" transform="translate(-314.749 -.042)"/>
            <path id="Path_1998" d="M-1268.346 1369c0 .684-.028 1.37.01 2.053.023.43-.124.526-.536.524-3.8-.015-7.6-.009-11.4-.009h-6.377c0-.726.015-1.452-.007-2.176-.009-.3.043-.408.385-.4 1.456.024 2.913.01 4.369.01z" class="cls-2" data-name="Path 1998"/>
            <path id="Path_1999" d="M-1286.619 1453.762c5.878 0 11.755.01 17.633-.016.586 0 .744.158.682.7a5.4 5.4 0 0 0 0 1.216c.063.548-.1.711-.685.708-5.255-.027-10.511-.015-15.766-.017-.621 0-1.243-.018-1.864-.028z" class="cls-2" data-name="Path 1999" transform="translate(-.033 -67.937)"/>
            <path id="Path_2000" d="M-848.81 1396.14c-1.482 0-2.964.012-4.445-.007-.436-.006-.452.117-.287.472a3.725 3.725 0 0 0 5.581 1.148 1.467 1.467 0 0 1 .99-.327c.751.019 1.5.032 2.254 0 .471-.023.507.131.319.5a6.544 6.544 0 0 1-4.432 3.422 6.633 6.633 0 0 1-7.1-2.876 6.8 6.8 0 0 1 .431-7.862 6.628 6.628 0 0 1 7.226-2.193 6.687 6.687 0 0 1 4.419 7.339c-.067.4-.28.4-.576.4-1.459-.02-2.92-.016-4.38-.016zm-1.494-2.69c.987 0 1.974-.013 2.961.006.425.008.481-.11.281-.47a3.442 3.442 0 0 0-3.257-1.9 3.615 3.615 0 0 0-3.268 1.916c-.239.412-.036.454.32.45.989-.01 1.976-.002 2.967-.002z" class="cls-2" data-name="Path 2000" transform="translate(-344.424 -15.301)"/>
            <path id="Path_2001" d="M-952.283 1397.411a2.267 2.267 0 0 1-.462 1.088 6.716 6.716 0 0 1-8.863 2.133 6.688 6.688 0 0 1-2.66-8.848 6.641 6.641 0 0 1 8.4-3.249 6.715 6.715 0 0 1 4.029 7.109c-.064.433-.269.484-.638.483-2.877-.012-5.754-.007-8.63-.006-.635 0-.664.056-.352.628a3.733 3.733 0 0 0 5.488.989 1.486 1.486 0 0 1 .991-.334c.89.023 1.78.007 2.697.007zm-9.455-4.005h6.784a3.3 3.3 0 0 0-2.98-2.337 3.648 3.648 0 0 0-3.804 2.337z" class="cls-2" data-name="Path 2001" transform="translate(-257.849 -15.282)"/>
            <path id="Path_2002" d="M-772.119 1392.746a4.419 4.419 0 0 0-.515 0 1.857 1.857 0 0 1-1.751-.712c-1.685-1.839-4.983-.927-5.765 1.53a3.845 3.845 0 0 0 1.112 4.146 3.694 3.694 0 0 0 3.983.468 2 2 0 0 0 .811-.619 1.216 1.216 0 0 1 1.255-.538c.686.031 1.376.033 2.061 0 .515-.026.565.122.377.571a6.678 6.678 0 0 1-8.268 3.587 6.624 6.624 0 0 1-4.58-6.388 6.619 6.619 0 0 1 4.506-6.306 6.8 6.8 0 0 1 7.484 2.168 6.444 6.444 0 0 1 .936 1.673c.11.281.067.439-.292.423-.451-.019-.903-.003-1.354-.003z" class="cls-2" data-name="Path 2002" transform="translate(-403.402 -15.336)"/>
        </g>
    </g>
</svg>
