<svg xmlns="http://www.w3.org/2000/svg" width="323" height="68" viewBox="0 0 323 68">
    <defs>
        <style>
            .cls-2{fill:#fff}
        </style>
    </defs>
    <g id="ensinger_enabled" transform="translate(-410 -735)">
        <rect id="Rectangle_2342" width="323" height="68" fill="#363636" data-name="Rectangle 2342" rx="3" transform="translate(410 735)"/>
        <g id="Group_6009" data-name="Group 6009" transform="translate(-2815.342 492.229)">
            <path id="Path_2028" d="M4412.163 394.068a6.595 6.595 0 1 1-6.6 6.546 6.6 6.6 0 0 1 6.6-6.546z" class="cls-2" data-name="Path 2028" transform="translate(-972.763 -119.357)"/>
            <path id="Path_2029" d="M3894.5 397.64a7.45 7.45 0 0 1 .312 3.934 3.2 3.2 0 0 1-2.1 2.637 6.888 6.888 0 0 1-3.024.44 1.026 1.026 0 0 0-1.021.615c-.24.42-.1.747.379.838.436.084.882.111 1.324.161l2.653.3a3.266 3.266 0 0 1 .452.091 2.234 2.234 0 0 1 1.857 2.112 6.12 6.12 0 0 1-.081 2.044 2.382 2.382 0 0 1-1.391 1.732 6.017 6.017 0 0 1-2.037.484 19.319 19.319 0 0 1-6.074-.382 2.768 2.768 0 0 0-.3-.074c-.245-.029-.3-.163-.261-.39.1-.572.206-1.145.289-1.72.031-.226.141-.232.316-.192a17.912 17.912 0 0 0 2.073.356 20.554 20.554 0 0 0 3.488.045 2.676 2.676 0 0 0 .454-.081.935.935 0 0 0 .636-1.39.771.771 0 0 0-.646-.36c-.542-.072-1.087-.137-1.631-.2q-1.3-.154-2.6-.305c-.068-.008-.137-.011-.2-.026-.8-.17-1.542-.422-1.789-1.322a2.425 2.425 0 0 1 .6-2.559 2.293 2.293 0 0 0 .495-.489l-.12-.082a3.3 3.3 0 0 1-1.437-2.552 10.436 10.436 0 0 1 .063-2.765 3.267 3.267 0 0 1 2.215-2.663 8.157 8.157 0 0 1 4.205-.253 5.581 5.581 0 0 0 .968.1q1.438-.006 2.877 0c.386 0 .4.008.393.4 0 .357.129.774-.053 1.057s-.65.233-.981.358c-.092.027-.171.054-.303.101zm-6.539 2.435c0 .256-.019.514 0 .769a1.3 1.3 0 0 0 1.12 1.282 4.393 4.393 0 0 0 1.785 0 1.276 1.276 0 0 0 1.136-1.21 5.986 5.986 0 0 0-.029-1.837 1.22 1.22 0 0 0-.908-1.009 3.808 3.808 0 0 0-2.126-.01 1.257 1.257 0 0 0-.932.993 4.737 4.737 0 0 0-.046 1.022z" class="cls-2" data-name="Path 2029" transform="translate(-503.154 -120.613)"/>
            <path id="Path_2030" d="M3336.946 359.144a.64.64 0 0 1 .077.427v1.9c0 .448 0 .452-.439.452h-5.447c-.12 0-.24.007-.359 0-.2-.013-.273.069-.272.267q.008 1.9 0 3.8c0 .176.065.251.241.242.12-.006.24 0 .36 0h5.96c.573 0 .515-.036.516.533 0 .651-.006 1.3 0 1.952 0 .22-.071.316-.294.3-.119-.01-.24 0-.36 0h-9.145c-.443 0-.448-.005-.448-.447v-15.769c0-.452 0-.457.441-.458h9.351c.445 0 .448 0 .45.446v1.8c0 .565.052.536-.516.536h-5.909c-.12 0-.241.009-.36 0-.224-.019-.3.076-.295.3.008 1.147.014 2.294 0 3.441 0 .343.207.286.4.286h5.5z" class="cls-2" data-name="Path 2030" transform="translate(0 -81.709)"/>
            <path id="Path_2031" d="M4342.271 268.4a6.6 6.6 0 1 1-6.566-6.629 6.6 6.6 0 0 1 6.566 6.629zm-6.573 3.691a3.723 3.723 0 1 0-3.755-3.687 3.739 3.739 0 0 0 3.757 3.687z" class="cls-2" data-name="Path 2031" transform="translate(-903.754)"/>
            <path id="Path_2032" d="M4252.771 400.656a6.6 6.6 0 1 1 6.607 6.6 6.586 6.586 0 0 1-6.607-6.6zm10.324-.009a3.735 3.735 0 1 0-3.709 3.738 3.748 3.748 0 0 0 3.709-3.738z" class="cls-2" data-name="Path 2032" transform="translate(-834.914 -119.353)"/>
            <path id="Path_2033" d="M3760.635 408h-2.972a1.024 1.024 0 0 1-.053-.517v-11.1c0-.645-.041-.562.592-.566.462 0 .925.013 1.387-.006a.381.381 0 0 1 .456.355 1.847 1.847 0 0 0 .228.649 16.169 16.169 0 0 1 2.4-.875 9.563 9.563 0 0 1 2.532-.368 2.375 2.375 0 0 1 2.456 1.855 6.073 6.073 0 0 1 .219 1.777q.011 4.187 0 8.373c0 .436-.005.439-.455.44-.753 0-1.508-.011-2.26.006-.273.006-.346-.084-.344-.348.011-1.387.005-2.774.005-4.161v-3.647-.36c-.034-.714-.315-.984-1.032-.967a6.034 6.034 0 0 0-2.076.535c-.347.138-.777.21-.989.506s-.07.7-.071 1.052c-.006 2.346 0 4.692 0 7.038-.002.106-.015.207-.023.329z" class="cls-2" data-name="Path 2033" transform="translate(-388.176 -120.718)"/>
            <path id="Path_2034" d="M4016.147 403c-1.01 0-2.021.007-3.031 0-.258 0-.377.061-.363.341.015.308.015.616.06.922a1.4 1.4 0 0 0 1.187 1.297 7.4 7.4 0 0 0 2.4.049 10.824 10.824 0 0 0 2.163-.424c.237-.073.337-.016.383.229.107.571.228 1.14.356 1.707.054.239-.043.332-.26.4a12.77 12.77 0 0 1-2.45.549 11.209 11.209 0 0 1-3.529-.05 3.763 3.763 0 0 1-3.3-3.648 36.029 36.029 0 0 1 0-4.98 3.872 3.872 0 0 1 3.25-3.724 7.718 7.718 0 0 1 3.463 0 3.643 3.643 0 0 1 2.941 3.115 9.137 9.137 0 0 1 .134 1.687c.006.736-.007 1.473.007 2.209 0 .249-.077.323-.323.32-1.035-.01-2.06.001-3.088.001zm-1.416-2.46h.924c1.121 0 1.122 0 .961-1.133a2.71 2.71 0 0 0-.08-.349 1.317 1.317 0 0 0-1.065-.992 3.313 3.313 0 0 0-.661-.077 1.789 1.789 0 0 0-2.057 1.99 2.051 2.051 0 0 1 0 .205c-.032.257.058.369.337.361.545-.021 1.094-.009 1.641-.009z" class="cls-2" data-name="Path 2034" transform="translate(-615.593 -120.625)"/>
            <path id="Path_2035" d="M3457.5 401.891v-5.653c0-.442 0-.444.453-.447.514 0 1.028.01 1.542-.005.245-.008.39.063.435.315a2.979 2.979 0 0 0 .115.394c.1.307.1.313.414.174a13 13 0 0 1 3.736-1.072 4.615 4.615 0 0 1 1.583.031 2.211 2.211 0 0 1 1.607 1.31 4.2 4.2 0 0 1 .378 1.744c.015 3 .009 6 .019 8.993 0 .245-.072.327-.32.323-.805-.013-1.611-.015-2.415 0-.278.005-.344-.1-.341-.358.01-1.319 0-2.638 0-3.957v-3.905c0-.171 0-.344-.013-.513a.752.752 0 0 0-.764-.744 3.348 3.348 0 0 0-1.217.152 13.781 13.781 0 0 0-1.777.664.569.569 0 0 0-.379.625c.012 2.484.008 4.967.005 7.451 0 .638.089.578-.568.58h-2.108c-.384 0-.389-.007-.39-.4q.005-2.85.005-5.702z" class="cls-2" data-name="Path 2035" transform="translate(-117.426 -120.689)"/>
            <path id="Path_2036" d="M3586.742 405.223a13.693 13.693 0 0 0 3.757.511 2.715 2.715 0 0 0 .863-.1.722.722 0 0 0 .505-.529 2.321 2.321 0 0 0 .042-.916 1.012 1.012 0 0 0-.609-.773 6.334 6.334 0 0 0-1.356-.461 14.213 14.213 0 0 1-1.811-.559 2.416 2.416 0 0 1-1.632-2.324 8.605 8.605 0 0 1 .082-2.2 2.525 2.525 0 0 1 1.66-1.931 5.919 5.919 0 0 1 1.651-.346 16.251 16.251 0 0 1 4.443.291c.271.052.351.175.306.454-.095.591-.159 1.186-.22 1.782-.023.225-.092.277-.324.237a22.737 22.737 0 0 0-2.6-.289 5.649 5.649 0 0 0-1.28.053.77.77 0 0 0-.737.831c-.007.119-.005.24 0 .359.013.591.137.788.715.973.683.219 1.378.4 2.068.6a7.865 7.865 0 0 1 1.434.55 2.012 2.012 0 0 1 1.153 1.592 8.582 8.582 0 0 1-.038 2.809 2.6 2.6 0 0 1-1.789 2.067 7.033 7.033 0 0 1-2.427.349 13.8 13.8 0 0 1-3.846-.566c-.425-.125-.43-.13-.357-.544.105-.625.223-1.243.347-1.92z" class="cls-2" data-name="Path 2036" transform="translate(-233.681 -120.688)"/>
            <path id="Path_2037" d="M4137.2 397.395a15.015 15.015 0 0 1 3.084-1.532c.138.066.125.2.137.311.079.7.14 1.4.23 2.091a.444.444 0 0 1-.312.545 24.37 24.37 0 0 0-2.479 1.342.763.763 0 0 0-.412.779c.016 2.259.01 4.518.007 6.776 0 .635.085.571-.575.573h-2.054c-.481 0-.44.015-.44-.45v-9.65c0-.582.01-1.164 0-1.745-.007-.261.066-.368.344-.361.65.016 1.3.013 1.952 0a.286.286 0 0 1 .337.283 6.027 6.027 0 0 0 .181 1.038z" class="cls-2" data-name="Path 2037" transform="translate(-728.099 -120.976)"/>
            <path id="Path_2038" d="M3701.155 404.161v5.647c0 .416-.005.42-.42.422h-2.208c-.482 0-.438.014-.438-.452v-9.856c0-.53.007-1.061 0-1.591 0-.215.064-.309.291-.306.821.008 1.643.01 2.465 0 .254 0 .321.1.317.336-.01.821 0 1.643 0 2.464z" class="cls-2" data-name="Path 2038" transform="translate(-334.481 -122.926)"/>
            <path id="Path_2039" d="M3701.149 345.957c0 .5-.007.992 0 1.488 0 .223-.084.3-.3.3q-1.231-.011-2.463 0c-.211 0-.311-.058-.309-.289q.012-1.488 0-2.976c0-.221.078-.3.3-.3.821.009 1.642.011 2.463 0 .259 0 .317.109.312.339-.011.481-.003.959-.003 1.438z" class="cls-2" data-name="Path 2039" transform="translate(-334.475 -74.349)"/>
        </g>
    </g>
</svg>
