<svg xmlns="http://www.w3.org/2000/svg" width="323" height="68" viewBox="0 0 323 68">
    <g id="fenzi_enabled" transform="translate(-410 -815)">
        <rect id="Rectangle_2342" width="323" height="68" fill="#363636" data-name="Rectangle 2342" rx="3" transform="translate(410 815)"/>
        <path id="Path_2040" fill="#fff" d="M4359.769 1467.021v22.66h86.685v-22.66zm21.016 7.424H4368.4v2.42h10.348v3.5H4368.4v5.527h-4.978v-15.082h17.359zm18.756 0h-12.381v2.42h10.349v3.5h-10.349v2.346h12.289v3.181h-17.267v-15.082h17.359zm18.651 11.448h-4.7l-7.855-8.543v8.543h-4.737v-15.083h4.735l7.855 9.331v-9.331h4.7zm18.716 0h-17.272v-3.181l10.784-8.266h-10.812v-3.611h17.27v3.611l-10.9 8.266h10.925zm5.89 0h-4.471v-15.083h4.471z" data-name="Path 2040" transform="translate(-3831.769 -629.021)"/>
    </g>
</svg>
