<svg xmlns="http://www.w3.org/2000/svg" width="323" height="68" viewBox="0 0 323 68">
    <defs>
        <style>
            .cls-2{isolation:isolate}.cls-3{fill:#fff}
        </style>
    </defs>
    <g id="generalspacers_de_enabled" transform="translate(-785 -1085)">
        <rect id="Rectangle_2342" width="323" height="68" fill="#363636" rx="3" transform="translate(785 1085)"/>
        <g id="ALLGEMEINE_ABSTANDSHALTER" class="cls-2" transform="translate(-3233.309 -1193.605)">
            <g id="Group_6882" class="cls-2">
                <path id="Path_2377" d="M4073.178 2318.975l-.828-3.116h-4.2l-.845 3.116h-2l3.728-13.018h2.557l3.654 13.018zm-2.936-11.308l-1.656 6.662h3.332z" class="cls-3"/>
                <path id="Path_2378" d="M4076.65 2318.975v-13.018h2.016v11.469h4.069v1.549z" class="cls-3"/>
                <path id="Path_2379" d="M4084.6 2318.975v-13.018h2.018v11.469h4.068v1.549z" class="cls-3"/>
                <path id="Path_2380" d="M4098.252 2309.647v-.215c0-1.26-.4-2.215-1.837-2.215-2.161 0-2.233 2.233-2.233 4.988 0 3.69.162 5.491 2.287 5.491a4.577 4.577 0 0 0 1.764-.324v-3.728h-1.944v-1.53h3.925v6.519a12.826 12.826 0 0 1-3.709.594c-4.232 0-4.376-2.755-4.376-6.789 0-3.762.181-6.733 4.267-6.733 2.647 0 3.89 1.188 3.89 3.745v.2z" class="cls-3"/>
                <path id="Path_2381" d="M4102.695 2318.975v-13.018h6.447v1.548h-4.448v3.962h4.16v1.511h-4.16v4.448h4.574v1.549z" class="cls-3"/>
                <path id="Path_2382" d="M4121.364 2318.975v-11.632l-2.989 11.632h-2.175l-2.989-11.632v11.632h-1.8v-13.018h3.278l2.718 10.857 2.593-10.857h3.277v13.018z" class="cls-3"/>
                <path id="Path_2383" d="M4126.186 2318.975v-13.018h6.445v1.548h-4.447v3.962h4.16v1.511h-4.16v4.448h4.574v1.549z" class="cls-3"/>
                <path id="Path_2384" d="M4134.879 2318.975v-13.018h2.017v13.018z" class="cls-3"/>
                <path id="Path_2385" d="M4145.268 2318.975l-3.674-11.253v11.253h-1.8v-13.018h3.061l3.673 11.253v-11.253h1.8v13.018z" class="cls-3"/>
                <path id="Path_2386" d="M4151.223 2318.975v-13.018h6.446v1.548h-4.447v3.962h4.159v1.511h-4.159v4.448h4.573v1.549z" class="cls-3"/>
                <path id="Path_2387" d="M4170.881 2318.975l-.828-3.116h-4.2l-.845 3.116h-2l3.728-13.018h2.557l3.654 13.018zm-2.936-11.308l-1.656 6.662h3.332z" class="cls-3"/>
                <path id="Path_2388" d="M4177.936 2318.975h-3.368v-13.018h3.836c2.305 0 3.529.81 3.529 3.24 0 1.585-.523 2.539-2.052 2.953 1.8.378 2.286 1.459 2.286 3.242 0 2.934-1.639 3.583-4.231 3.583zm-.09-11.506h-1.279v4.015h1.279c1.459 0 2.125-.558 2.125-2.052 0-1.603-.871-1.963-2.125-1.963zm.017 5.492h-1.3v4.5h1.189c1.387 0 2.394-.306 2.394-2.233.004-1.601-.679-2.267-2.283-2.267z" class="cls-3"/>
                <path id="Path_2389" d="M4187.656 2319.227c-2.809 0-3.853-1.153-3.853-3.908v-.143h2.07v.143c0 1.279.234 2.4 1.783 2.4a1.635 1.635 0 0 0 1.782-1.855 2.253 2.253 0 0 0-1.243-2l-2.232-1.4a3.732 3.732 0 0 1-1.981-3.367c0-2.377 1.6-3.385 3.818-3.385 2.268 0 3.565.9 3.565 3.259v.468h-2.017v-.325c0-1.08-.287-1.89-1.639-1.89a1.575 1.575 0 0 0-1.674 1.728 2.411 2.411 0 0 0 1.459 2.108l1.729 1.061c1.476.919 2.267 1.693 2.267 3.583 0 2.496-1.548 3.523-3.834 3.523z" class="cls-3"/>
                <path id="Path_2390" d="M4197.25 2307.5v11.47h-2.018v-11.47h-3v-1.548h8.029v1.548z" class="cls-3"/>
                <path id="Path_2391" d="M4207.547 2318.975l-.828-3.116h-4.2l-.845 3.116h-2l3.728-13.018h2.557l3.654 13.018zm-2.936-11.308l-1.656 6.662h3.332z" class="cls-3"/>
                <path id="Path_2392" d="M4216.709 2318.975l-3.674-11.253v11.253h-1.8v-13.018h3.061l3.674 11.253v-11.253h1.8v13.018z" class="cls-3"/>
                <path id="Path_2393" d="M4229.4 2318.02a4.636 4.636 0 0 1-3.241.955h-3.493v-13.018h3.457a5.374 5.374 0 0 1 3.008.7c1.4.937 1.584 2.61 1.584 5.527-.002 2.757-.092 4.738-1.315 5.836zm-1.4-9.758a2.336 2.336 0 0 0-2.017-.793h-1.295v9.993h1.4a2.655 2.655 0 0 0 1.477-.414c.971-.684 1.08-2.251 1.08-4.52-.002-1.962-.045-3.457-.651-4.266z" class="cls-3"/>
                <path id="Path_2394" d="M4236.328 2319.227c-2.809 0-3.853-1.153-3.853-3.908v-.143h2.07v.143c0 1.279.234 2.4 1.783 2.4a1.634 1.634 0 0 0 1.781-1.855 2.254 2.254 0 0 0-1.242-2l-2.232-1.4a3.732 3.732 0 0 1-1.981-3.367c0-2.377 1.6-3.385 3.818-3.385 2.268 0 3.565.9 3.565 3.259v.468h-2.017v-.325c0-1.08-.288-1.89-1.639-1.89a1.575 1.575 0 0 0-1.674 1.728 2.411 2.411 0 0 0 1.459 2.108l1.729 1.061c1.476.919 2.267 1.693 2.267 3.583 0 2.496-1.548 3.523-3.834 3.523z" class="cls-3"/>
                <path id="Path_2395" d="M4248.227 2318.975V2313h-3.854v5.978h-2.018v-13.018h2.018v5.51h3.854v-5.51h2.015v13.018z" class="cls-3"/>
                <path id="Path_2396" d="M4259.729 2318.975l-.829-3.116h-4.195l-.848 3.116h-2l3.727-13.018h2.558l3.655 13.018zm-2.936-11.308l-1.656 6.662h3.33z" class="cls-3"/>
                <path id="Path_2397" d="M4263.2 2318.975v-13.018h2.018v11.469h4.068v1.549z" class="cls-3"/>
                <path id="Path_2398" d="M4274 2307.5v11.47h-2.018v-11.47h-3v-1.548h8.029v1.548z" class="cls-3"/>
                <path id="Path_2399" d="M4278.662 2318.975v-13.018h6.446v1.548h-4.447v3.962h4.159v1.511h-4.159v4.448h4.573v1.549z" class="cls-3"/>
                <path id="Path_2400" d="M4292.813 2318.975a10.758 10.758 0 0 1-.145-1.729c0-.54-.018-1.116-.055-1.675-.107-1.818-.215-2.394-2.034-2.394h-1.206v5.8h-2.018v-13.018h3.8c2.251 0 3.709.594 3.709 3.295 0 1.6-.468 2.755-2.142 3.15 1.566.126 1.837.973 1.926 2.719.018.541.018 1.152.055 1.8.018.486.071.954.108 1.35.017.235.072.468.107.7zm-2.036-11.488h-1.4v4.159h1.08c1.729 0 2.341-.45 2.341-2.232-.004-1.44-.671-1.927-2.021-1.927z" class="cls-3"/>
            </g>
        </g>
    </g>
</svg>
