<svg xmlns="http://www.w3.org/2000/svg" width="323" height="68" viewBox="0 0 323 68">
    <defs>
        <style>
            .cls-2{fill:#fff}
        </style>
    </defs>
    <g id="generalspacers_enabled" transform="translate(-410 -1055)">
        <rect id="Rectangle_2342" width="323" height="68" fill="#363636" data-name="Rectangle 2342" rx="3" transform="translate(410 1055)"/>
        <g id="Group_6012" data-name="Group 6012" transform="translate(-3430.787 -1533.307)">
            <path id="Path_2064" d="M3941.012 2619.316v-.22c0-1.281-.4-2.252-1.867-2.252-2.2 0-2.27 2.271-2.27 5.071 0 3.753.165 5.584 2.325 5.584a4.65 4.65 0 0 0 1.794-.33v-3.789h-1.977v-1.556h3.991v6.627a13 13 0 0 1-3.771.6c-4.3 0-4.449-2.8-4.449-6.9 0-3.826.184-6.846 4.339-6.846 2.691 0 3.954 1.208 3.954 3.808v.2z" class="cls-2" data-name="Path 2064"/>
            <path id="Path_2065" d="M3976.4 2629.55v-13.236h6.554v1.575h-4.522v4.027h4.229v1.538h-4.229v4.522h4.65v1.574z" class="cls-2" data-name="Path 2065" transform="translate(-31.035 -.751)"/>
            <path id="Path_2066" d="M4016.1 2629.55l-3.735-11.442v11.442h-1.831v-13.236h3.112l3.734 11.442v-11.442h1.831v13.236z" class="cls-2" data-name="Path 2066" transform="translate(-56.486 -.751)"/>
            <path id="Path_2067" d="M4055.6 2629.55v-13.236h6.554v1.575h-4.522v4.027h4.229v1.538h-4.229v4.522h4.65v1.574z" class="cls-2" data-name="Path 2067" transform="translate(-90.099 -.751)"/>
            <path id="Path_2068" d="M4095.276 2629.55a11.092 11.092 0 0 1-.146-1.757c0-.549-.019-1.135-.055-1.7-.11-1.849-.22-2.435-2.068-2.435h-1.227v5.895h-2.051v-13.236h3.863c2.289 0 3.771.6 3.771 3.35 0 1.629-.476 2.8-2.178 3.2 1.592.128 1.867.988 1.958 2.764.018.549.018 1.172.055 1.831.019.494.073.97.11 1.373.018.238.073.476.109.714zm-2.068-11.679h-1.428v4.229h1.1c1.758 0 2.38-.458 2.38-2.27-.002-1.465-.679-1.96-2.052-1.96z" class="cls-2" data-name="Path 2068" transform="translate(-115.55 -.751)"/>
            <path id="Path_2069" d="M4131.857 2629.55l-.842-3.167h-4.266l-.86 3.167h-2.032l3.79-13.236h2.6l3.716 13.236zm-2.984-11.5l-1.684 6.774h3.387z" class="cls-2" data-name="Path 2069" transform="translate(-141.002 -.751)"/>
            <path id="Path_2070" d="M4168.57 2629.55v-13.236h2.051v11.662h4.137v1.574z" class="cls-2" data-name="Path 2070" transform="translate(-174.346 -.751)"/>
            <path id="Path_2071" d="M4217.7 2629.055c-2.855 0-3.918-1.172-3.918-3.972v-.147h2.105v.147c0 1.3.238 2.435 1.813 2.435a1.663 1.663 0 0 0 1.813-1.886 2.293 2.293 0 0 0-1.264-2.032l-2.27-1.428a3.792 3.792 0 0 1-2.013-3.423c0-2.417 1.629-3.442 3.881-3.442 2.307 0 3.625.915 3.625 3.313v.476h-2.05v-.33c0-1.1-.293-1.923-1.666-1.923a1.6 1.6 0 0 0-1.7 1.758 2.449 2.449 0 0 0 1.482 2.142l1.757 1.08c1.5.934 2.307 1.721 2.307 3.643-.002 2.546-1.574 3.589-3.902 3.589z" class="cls-2" data-name="Path 2071" transform="translate(-208.066)"/>
            <path id="Path_2072" d="M4255.832 2623.82h-1.117v5.73h-2.05v-13.236h3.534c2.672 0 3.954.843 3.954 3.662-.001 3.441-1.74 3.844-4.321 3.844zm-.073-5.968h-1.043v4.412h.952c1.7 0 2.417-.476 2.417-2.27-.001-1.702-.733-2.142-2.326-2.142z" class="cls-2" data-name="Path 2072" transform="translate(-237.061 -.751)"/>
            <path id="Path_2073" d="M4289.032 2629.55l-.842-3.167h-4.266l-.861 3.167h-2.032l3.79-13.236h2.6l3.716 13.236zm-2.984-11.5l-1.684 6.774h3.387z" class="cls-2" data-name="Path 2073" transform="translate(-258.216 -.751)"/>
            <path id="Path_2074" d="M4329.017 2629.055c-3.917 0-4.137-2.691-4.137-6.865 0-3.808.146-6.883 4.248-6.883 2.691 0 3.734 1.3 3.734 3.826v.293h-2.031v-.238c0-1.116-.238-2.325-1.758-2.325-2 0-2.1 2.05-2.1 5.2 0 3.79.146 5.456 2.032 5.456 1.684 0 1.922-1.282 1.922-2.6v-.293h2.05v.348c-.005 2.745-1.269 4.081-3.96 4.081z" class="cls-2" data-name="Path 2074" transform="translate(-290.916)"/>
            <path id="Path_2075" d="M4364.479 2629.55v-13.236h6.554v1.575h-4.522v4.027h4.229v1.538h-4.229v4.522h4.65v1.574z" class="cls-2" data-name="Path 2075" transform="translate(-320.448 -.751)"/>
            <path id="Path_2076" d="M4404.154 2629.55a11.035 11.035 0 0 1-.146-1.757c0-.549-.019-1.135-.055-1.7-.11-1.849-.22-2.435-2.069-2.435h-1.226v5.895h-2.051v-13.236h3.863c2.289 0 3.771.6 3.771 3.35 0 1.629-.476 2.8-2.179 3.2 1.593.128 1.868.988 1.959 2.764.018.549.018 1.172.055 1.831.018.494.073.97.11 1.373.018.238.073.476.109.714zm-2.068-11.679h-1.428v4.229h1.1c1.757 0 2.38-.458 2.38-2.27-.002-1.465-.68-1.96-2.053-1.96z" class="cls-2" data-name="Path 2076" transform="translate(-345.899 -.751)"/>
            <path id="Path_2077" d="M4438.957 2629.055c-2.855 0-3.917-1.172-3.917-3.972v-.147h2.105v.147c0 1.3.238 2.435 1.812 2.435a1.663 1.663 0 0 0 1.813-1.886 2.293 2.293 0 0 0-1.264-2.032l-2.27-1.428a3.792 3.792 0 0 1-2.013-3.423c0-2.417 1.629-3.442 3.88-3.442 2.307 0 3.625.915 3.625 3.313v.476h-2.05v-.33c0-1.1-.293-1.923-1.666-1.923a1.6 1.6 0 0 0-1.7 1.758 2.449 2.449 0 0 0 1.483 2.142l1.757 1.08c1.5.934 2.307 1.721 2.307 3.643-.003 2.546-1.577 3.589-3.902 3.589z" class="cls-2" data-name="Path 2077" transform="translate(-373.069)"/>
        </g>
    </g>
</svg>
