<svg xmlns="http://www.w3.org/2000/svg" width="323" height="68" viewBox="0 0 323 68">
    <defs>
        <style>
            .cls-2{fill:#fff}
        </style>
    </defs>
    <g id="helima_enabled" transform="translate(-410 -895)">
        <rect id="Rectangle_2342" width="323" height="68" fill="#363636" data-name="Rectangle 2342" rx="3" transform="translate(410 895)"/>
        <g id="Group_6010" data-name="Group 6010" transform="translate(-2357.243 -1426.642)">
            <path id="Path_2041" d="M3181.817 2361.507l-.62-.135c-1.515-2.346-3.377-4.433-4.987-6.706a2.013 2.013 0 0 0-1.94-.954c-1.636.068-1.637.023-1.633-1.661a2.768 2.768 0 0 0 0-.318c-.082-.672.252-.861.875-.83a18.442 18.442 0 0 0 2.332 0 1.676 1.676 0 0 1 1.6.786c1.4 1.865 2.861 3.683 4.253 5.553.49.658.793.707 1.3.016 1.4-1.906 2.859-3.771 4.3-5.649.276-.36.528-.731 1.093-.707.953.04 1.91.032 2.864.01a.709.709 0 0 1 .83.724q-.161 4.465 0 8.929l.008.2c-.015.465-.216.754-.717.759a.121.121 0 0 0-.18 0c-2.08-.166-2.079-.166-2.123-2.25 0-.137-.027-.275-.041-.412v-4.565a68.419 68.419 0 0 0-4.6 5.724c-.668.924-1.337 1.693-2.614 1.486z" class="cls-2" data-name="Path 2041" transform="translate(-232.32 -.195)"/>
            <path id="Path_2042" d="M2968.939 2374.413l-.126-.544-.028-.393v-3.017a1.265 1.265 0 0 0 .023-.823c.466-.414 1.048-.082 1.553-.241h14.249l.408.006h.227l.611.049.144 1.671c.03 1.057-.72 1.023-1.44 1.023h-11.9c-.422 0-1-.2-.988.572s.607.544 1.01.546c4.392.013 8.785.008 13.177.008l-.012-.013.135.593c-.014.491-.04.982-.039 1.473 0 .373-.016.715-.491.779h-.437l-12.547.009a.129.129 0 0 0-.181 0h-.443l-.633-.049-.251-.051c-.028-.091-.074-.117-.149-.042l-.462-.181a.809.809 0 0 0-.625-.4l-.638-.668z" class="cls-2" data-name="Path 2042" transform="translate(-71.453 -14.798)"/>
            <path id="Path_2043" d="M2891.455 2354.677c.827.222 1.183-.052 1.095-.942-.063-.63.042-1.278-.031-1.905-.1-.9.343-1.075 1.108-1.055 1.812.048 1.809.03 1.8 1.848-.008 2.545-.047 5.09.01 7.633.02.891-.24 1.225-1.124 1.114a6.939 6.939 0 0 0-1.16.042c-.245-.072-.543-.026-.688-.316.023-.915.015-1.831.078-2.743.049-.712-.254-.906-.922-.9-3.174.022-6.348.027-9.522 0-.85-.008-1.073.335-.862 1.093a4.658 4.658 0 0 0-.009 1.7 1.27 1.27 0 0 0 .01.849l-.2.285-1.5.033-.413.006c-.487-.025-.914-.12-.889-.751l.042-9.771a3.117 3.117 0 0 1 1.342-.116c1.459-.031 1.459-.023 1.611 1.385a7.178 7.178 0 0 0 .027 2.339c-.018.154.064.185.193.156 3.34.115 6.672.079 10.004.016z" class="cls-2" data-name="Path 2043" transform="translate(0 -.095)"/>
            <path id="Path_2044" d="M3277 2354.713a.234.234 0 0 0 .17-.041h1.056l2.141-.005a.57.57 0 0 0 .528-.02l.227.012c.476.069.865.094.405-.55a1.17 1.17 0 0 0-1.075-.531c-.809.027-1.618.029-2.427.042h.007c.033-.757.6-1.233.974-1.8a2.851 2.851 0 0 1 4.048-.442l.253.355.189.255a.174.174 0 0 0 .1.154c-.028.128.034.193.154.217l.019-.008a53.719 53.719 0 0 0 4.173 6.03l.025-.073-.032.069a13.08 13.08 0 0 0 1.79 2.691l-.426.323-.436.014a2.543 2.543 0 0 0-.522-.058c-1.357.126-2.61.058-3.089-1.555a1.011 1.011 0 0 0-.426-.637 2.1 2.1 0 0 0-.615-.873c-.193-.648-.55-1.028-1.288-.793l-2.569.007a2.284 2.284 0 0 0-1.266 0l-.417.042a15.625 15.625 0 0 0-2.56 3.522c-.494.5-1.148.153-1.706.318h-.2l-1.509-.043c.174-.945 1.037-1.5 1.345-2.368l.238-.338a17.467 17.467 0 0 0 2.062-3.073 1.5 1.5 0 0 0 .659-.843z" class="cls-2" data-name="Path 2044" transform="translate(-311.29 -.07)"/>
            <path id="Path_2045" d="M3062.559 2361.565c-2.662-.3-3.374-1.172-3.308-3.854.047-1.9.021-3.8-.034-5.7-.022-.78.225-1.071 1.021-1.047 2.144.063 1.893-.332 1.907 1.905 0 .385.038.771.058 1.157v1.906c-.219 2.467.058 2.772 2.509 2.772 3.566 0 7.132.017 10.7-.012.726-.006 1.058.2.965.955a3.694 3.694 0 0 0-.006.951c.092.668-.163 1-.845.978h-1.063z" class="cls-2" data-name="Path 2045" transform="translate(-142.82 -.25)"/>
            <path id="Path_2046" d="M3152.056 2361.476a6.693 6.693 0 0 0-1.9 0l-.633-.127-.059-1.269V2358.38v-1.483a15.391 15.391 0 0 0 0-2.981 5.643 5.643 0 0 0 0-1.7l.067-1.267c.558-.033 1.119-.042 1.674-.105.882-.1 1.421.157 1.337 1.155a20.315 20.315 0 0 0 0 3.4l-.067 5.118c-.014.383.079.797-.419.959z" class="cls-2" data-name="Path 2046" transform="translate(-214.038 -.153)"/>
            <path id="Path_2047" d="M3172.261 2370.348c-.013-.667.3-.861.967-.855 2.016.017 2.019-.016 2.017 1.969 0 1.545-.01 3.09-.016 4.635l-.056-.009-.018.054-.449.047-.415.009H3172.8l-.444-.081-.036-.025-.091-.4a39.427 39.427 0 0 0 .032-5.344z" class="cls-2" data-name="Path 2047" transform="translate(-232.01 -14.877)"/>
            <path id="Path_2048" d="M3264.944 2396.958l-.009-.2a.91.91 0 0 1 .069.141c.004.011-.039.039-.06.059z" class="cls-2" data-name="Path 2048" transform="translate(-305.171 -36.392)"/>
            <path id="Path_2049" d="M3260.721 2401.154a.121.121 0 0 1 .18 0z" class="cls-2" data-name="Path 2049" transform="translate(-301.845 -39.833)"/>
            <path id="Path_2050" d="M2986.2 2352.278l-.063 1.084-.7.218-15.1-.025h-1.051l-.242-.18-.011-.023q0-.322.006-.644a.156.156 0 0 0 .05-.164l.135-.256a.2.2 0 0 0 .08-.176.711.711 0 0 0 .369-.475l.245-.2 1.683-.711 13.4-.083 1.077.144.111.207a2.084 2.084 0 0 0 .011 1.284z" class="cls-2" data-name="Path 2050" transform="translate(-71.659)"/>
            <path id="Path_2051" d="M2969.095 2363.61l.242.18z" class="cls-2" data-name="Path 2051" transform="translate(-71.699 -10.234)"/>
            <path id="Path_2052" d="M2969.444 2358.455l-.135.256z" class="cls-2" data-name="Path 2052" transform="translate(-71.868 -6.166)"/>
        </g>
    </g>
</svg>
