<svg xmlns="http://www.w3.org/2000/svg" width="323" height="68" viewBox="0 0 323 68">
    <g id="igk_enabled" transform="translate(-410 -655)">
        <rect id="Rectangle_2342" width="323" height="68" fill="#363636" data-name="Rectangle 2342" rx="3" transform="translate(410 655)"/>
        <path id="Path_2013" fill="#fff" d="M191.69 2389.359c-.378-.092-.541-.382-.755-.6q-8.583-8.572-17.157-17.154c-2.43-2.43-4.845-4.874-7.3-7.278-.5-.493-.561-.762-.026-1.294q12.283-12.233 24.514-24.517c.492-.495.756-.571 1.294-.031q12.229 12.288 24.516 24.517c.594.591.459.864-.051 1.372q-12.243 12.2-24.453 24.435c-.193.197-.398.378-.582.55zm1.645-22.973c.1-2.243.1-2.243-2.14-2.24a4.74 4.74 0 0 1-.52 0c-.537-.058-.8.174-.72.71.057.4-.34 1.069.552 1.022.351-.019.524.124.472.489-.046.322.08.68-.366.877a2.157 2.157 0 0 1-2.972-1.693 2.632 2.632 0 0 1 2.279-3.071 7.032 7.032 0 0 1 2.476.129c.284.037.769.458.8-.149.023-.515.372-1.378-.388-1.537-2.058-.428-4.151-.611-6.027.679a4.392 4.392 0 0 0-1.592 4.733 3.668 3.668 0 0 0 3.475 2.664 15.106 15.106 0 0 0 1.976.032c2.585-.075 2.585-.081 2.695-2.645zm9.915-5.616h-2.573a.694.694 0 0 0-.58.373c-.723 1.016-1.439 2.037-2.19 3.031a.678.678 0 0 0-.034.908c.7 1.115 1.359 2.254 2.024 3.39.127.216.235.431.524.432h2.777c-.923-1.347-1.679-2.507-2.5-3.621a.913.913 0 0 1 .036-1.345c.826-.961 1.582-1.982 2.516-3.169zm-19.577 4.094h.053c.047-.794.093-1.588.143-2.382.109-1.754.109-1.715-1.681-1.734-.7-.007-.859.225-.87.885-.028 1.8-.115 3.595-.221 5.389-.137 2.327-.4 1.8 1.789 1.9.666.031.823-.229.8-.842-.044-1.071-.013-2.144-.013-3.216zm11.1 2.724c-.094 1.323-.094 1.323 1.223 1.322a3.1 3.1 0 0 1 .415 0c.662.09.884-.159.9-.854.04-1.87.157-3.739.283-5.6.115-1.715.137-1.679-1.611-1.7-.709-.01-.95.18-.962.919-.032 1.967-.158 3.939-.247 5.912z" data-name="Path 2013" transform="translate(379.924 -1675.116)"/>
    </g>
</svg>
