<svg xmlns="http://www.w3.org/2000/svg" width="323" height="68" viewBox="0 0 323 68">
    <defs>
        <style>
            .cls-2{fill:#fff;fill-rule:evenodd}
        </style>
    </defs>
    <g id="kommerling_enabled" transform="translate(-410 -575)">
        <rect id="Rectangle_2342" width="323" height="68" fill="#363636" data-name="Rectangle 2342" rx="3" transform="translate(410 575)"/>
        <g id="Group_6008" data-name="Group 6008" transform="translate(425.94 -2522.855)">
            <path id="Path_2014" d="M193.408 3134.552a5.809 5.809 0 0 0-2.868-1.7 6.426 6.426 0 0 0-3.379.1 6.623 6.623 0 0 0-2.892 1.979 6.236 6.236 0 0 0-1.364 3.078 7.031 7.031 0 0 0 .327 3.529 6.565 6.565 0 0 0 2.037 2.728 6.1 6.1 0 0 0 6.4.695 6.627 6.627 0 0 0 2.42-2.115 6.48 6.48 0 0 0 1.1-3.047 6.671 6.671 0 0 0-1.772-5.248zm-6.108 2.155a2.162 2.162 0 0 1 1.413-.966 2 2 0 0 1 1.563.423 3.68 3.68 0 0 1 1.172 3.1 3.557 3.557 0 0 1-1.1 2.688 2.077 2.077 0 0 1-1.439.537 2.02 2.02 0 0 1-1.443-.782 4.16 4.16 0 0 1-.164-5z" class="cls-2" data-name="Path 2014" transform="translate(-72.017 -6.006)"/>
            <path id="Path_2015" d="M471.534 3136.347a2.77 2.77 0 0 1 1.112-1.181 2.394 2.394 0 0 1 1.608-.135 1.877 1.877 0 0 1 1.258.936c.046.082.116.339.184.379a.537.537 0 0 0 .172 0h3.4a5.646 5.646 0 0 0-1.546-3.068 5.884 5.884 0 0 0-3.132-1.342 6.069 6.069 0 0 0-3.455.347 6.166 6.166 0 0 0-2.674 2.3 7.029 7.029 0 0 0-.954 3.43 7.243 7.243 0 0 0 .558 3.3 6.281 6.281 0 0 0 2.181 2.677 5.659 5.659 0 0 0 3.274.872 4.287 4.287 0 0 0 2.958-1.177c.223-.213.424.125.424.324v.511c0 .11.014.084.119.084h2.238c.145 0 .119 0 .119-.141v-3.125-3.65h-4.891c-.11 0-.05.274-.05.359v2.3c0 .058-.021.088.039.088h1.476c-.062.154-.075.338-.132.491a1.3 1.3 0 0 1-.461.571.863.863 0 0 1-.5.224l-1.223.092a1.413 1.413 0 0 1-.725-.049 2.231 2.231 0 0 1-.718-.441 3.563 3.563 0 0 1-.941-1.427 4.36 4.36 0 0 1 .289-3.551z" class="cls-2" data-name="Path 2015" transform="translate(-265.866 -5.435)"/>
            <path id="Path_2016" d="M434.3 3133.565c-.335 0-3.429-.012-3.429.011v12.195h2.992a3.07 3.07 0 0 0 .437-.009v-6.837l3.835 6.751c.055.1.045.094.16.094h3.305c.089 0 .15.037.15-.054v-11.544c0-.066.034-.609-.027-.609h-3.244c-.069 0-.29-.048-.29.04v6.2l-3.889-6.244z" class="cls-2" data-name="Path 2016" transform="translate(-240.929 -6.603)"/>
            <path id="Path_2017" d="M419.649 3133.593h-3.709v12.186c0 .062.2.026.25.026h3.359c.1 0 .1.02.1-.071v-12.136z" class="cls-2" data-name="Path 2017" transform="translate(-230.758 -6.631)"/>
            <path id="Path_2018" d="M389.228 3133.537h-3.071c-.079 0-.511-.06-.569 0-.022.021 0 .168 0 .2v11.991c0 .043.089.021.123.021h8.876a4.1 4.1 0 0 0 .007-.437v-2.475-.515H389.5c-.028 0-.271.014-.271-.011v-8.77z" class="cls-2" data-name="Path 2018" transform="translate(-210.085 -6.575)"/>
            <path id="Path_2019" d="M358.949 3135.034a3.754 3.754 0 0 0-2.939-1.458c-1.108-.083-2.239-.025-3.348-.025h-4.017c-.011 0-.006 2.36-.006 2.5v9.665c0 .082.136.039.2.039h3.238c.105 0 .053-.176.053-.262v-4.173c0-.029 1.727-.014 1.89-.014a1.66 1.66 0 0 1 1.32.487 2.675 2.675 0 0 1 .616 1.384l.307 1.771.131.758c.017.094.15.05.234.05h3.345l-.5-3.517a3.412 3.412 0 0 0-1.511-2.267l1.149-1.148a2.584 2.584 0 0 0 .5-1.216 3.325 3.325 0 0 0-.656-2.577zm-4.764 1.2a1.687 1.687 0 0 1 1.481.57 1.449 1.449 0 0 1-.1 1.475 1.674 1.674 0 0 1-1.318.492h-2.036c-.109 0-.086-.007-.086-.115v-2.254c0-.073-.037-.168.047-.168h2.008z" class="cls-2" data-name="Path 2019" transform="translate(-184.93 -6.59)"/>
            <path id="Path_2020" d="M323.751 3136.505v-2.894c0-.062-.1-.033-.149-.033h-10.146c-.119 0-.054.346-.054.441v9.353c0 .143-.01 2.414.009 2.414h10.608c.092 0 .044-.146.044-.221v-2.408-.548h-6.906c-.171 0-.122-.034-.122-.217v-1.185c0-.162.052-.113.207-.113h5.458c.135 0 .165.038.165-.1v-1.012-1.924h-5.783c-.1 0-.043-.452-.043-.537v-1.015c0-.005 1.12 0 1.187 0z" class="cls-2" data-name="Path 2020" transform="translate(-160.925 -6.616)"/>
            <path id="Path_2021" d="M237.106 3133.576h-4.89c-.11 0-.094 0-.123.11l-.477 1.735-1.227 4.47-1.037-3.71-.6-2.161-.122-.434c-.009-.032-.3-.009-.333-.009H223.9c-.163 0-.08.354-.08.486v11.164c0 .1-.064.558.054.558h3.226c.13 0 .153.034.153-.092v-6.964l.9 3.555.619 2.428a9.029 9.029 0 0 0 .274 1.073h2.541c.035 0 .186.024.214 0 .048-.04.066-.249.081-.306l1.209-4.549.585-2.2v6.884c0 .084-.04.172.054.172h3.221c.089 0 .153.038.153-.054v-12.153z" class="cls-2" data-name="Path 2021" transform="translate(-99.922 -6.614)"/>
            <path id="Path_2022" d="M160.615 3133.567h-4.623c-.056 0-.23.249-.265.287l-1.594 1.733-1.711 1.859v-3.846c0-.08-.279-.035-.344-.035h-3.258c-.084 0-.038.5-.038.583v11.562c0 .092.026.063.122.063h3.238c.065 0 .279.044.279-.038v-3.594c0-.032.1-.106.123-.126l.405-.4.6-.6 2.244 3.362.921 1.38c.039.059.244.02.306.02h4.191l-4.475-6.867a5.736 5.736 0 0 1-.465-.724l.969-1.031 3.209-3.415.161-.171z" class="cls-2" data-name="Path 2022" transform="translate(-48.83 -6.605)"/>
            <path id="Path_2023" d="M190.505 3123.855v2.044c0 .124-.077.391.075.391h3.113a16.676 16.676 0 0 0 .03-1.82c0-.072.038-.615-.03-.615h-3.188z" class="cls-2" data-name="Path 2023" transform="translate(-77.238)"/>
            <path id="Path_2024" d="M204.336 3123.855v2.044c0 .122-.076.391.075.391h3.133c.1 0 .042-.4.042-.476v-1.295c0-.074.037-.664-.03-.664h-3.22z" class="cls-2" data-name="Path 2024" transform="translate(-86.656)"/>
            <path id="Path_2025" d="M281.879 3133.576h-4.891c-.11 0-.093 0-.122.11l-.474 1.735-1.222 4.47-1.037-3.71-.6-2.161-.122-.434c-.009-.032-.3-.01-.331-.01h-4.418c-.087 0-.1-.02-.1.063v11.561c0 .081-.049.583.04.583h3.21c.121 0 .179.044.179-.079v-6.977l.925 3.555.631 2.428a8.883 8.883 0 0 0 .281 1.073h2.541c.034 0 .186.024.214 0 .048-.04.066-.249.081-.306l1.2-4.548.583-2.2v6.884c0 .083-.04.172.053.172h3.222c.089 0 .153.038.153-.054v-12.153z" class="cls-2" data-name="Path 2025" transform="translate(-130.394 -6.614)"/>
            <g id="Group_6007" data-name="Group 6007" transform="translate(77.059 3125.426)">
                <path id="Path_2026" d="M86.277 3132.838a6.074 6.074 0 1 0 6.074 6.074 6.081 6.081 0 0 0-6.074-6.074zm2.3 4.26a1.333 1.333 0 0 1 .412 0h.357l-1.155 1.366c-.05.06-.3.445-.381.445h-.8l1.157-1.342c.102-.116.263-.404.406-.467zm1.29 5.28a4.132 4.132 0 0 1-.509.648 1.9 1.9 0 0 1-.72.4 1.988 1.988 0 0 1-1.575-.217 5.528 5.528 0 0 1-1.182-1.112q-.675-.712-1.351-1.421v2.556c0 .254.036.243-.223.243h-1.64c-.019 0-.008-.106-.008-.123v-2.341c0-.058.027-.531-.023-.531h-1.518c-.006 0 0-.235 0-.252v-1.216c0-.09-.034-.14.06-.14h1.173c.042 0 .274.032.305 0 .051-.054 0-.411 0-.48v-3.628-.447h1.608c.035 0 .238-.026.262 0 .052.056 0 .4 0 .477v4.1l1.366-1.8c.031-.042.2-.013.249-.013h1.788l-1.445 1.727-.609.728c-.035.041.493.545.562.618a2.494 2.494 0 0 1 1.036-.81 1.908 1.908 0 0 1 1.258.013 2.225 2.225 0 0 1 1.4 2.02 1.9 1.9 0 0 1-.268 1.001zm-.273-3.914c-.051.06-.3.445-.384.445h-.787l1.172-1.366c.052-.06.3-.445.387-.445h.78z" class="cls-2" data-name="Path 2026" transform="translate(-79.2 -3131.543)"/>
                <path id="Path_2027" d="M83.785 3128.793h-6.364c-.088 0-.347-.059-.347.053v14.318c0 .081-.056.353.047.353h14.092v-14.723zm.351 13.841a6.487 6.487 0 1 1 6.487-6.487 6.495 6.495 0 0 1-6.487 6.487z" class="cls-2" data-name="Path 2027" transform="translate(-77.059 -3128.778)"/>
            </g>
        </g>
    </g>
</svg>
