<svg xmlns="http://www.w3.org/2000/svg" width="323" height="68" viewBox="0 0 323 68">
    <defs>
        <style>
            .cls-2{fill:#fff}
        </style>
    </defs>
    <g id="rolltech_enabled" transform="translate(-410 -975)">
        <rect id="Rectangle_2342" width="323" height="68" fill="#363636" data-name="Rectangle 2342" rx="3" transform="translate(410 975)"/>
        <g id="Group_6011" data-name="Group 6011" transform="translate(-3663.338 -1998.132)">
            <path id="Path_2053" d="M4502.948 2997.176c.012 3.072.033 6.143.036 9.215 0 3.29-.012 6.578-.012 9.867 0 .863 0 .88-.858.878l-17.275-.037c-.436 0-.872.022-1.306 0-.3-.016-.542-.121-.54-.511q.036-5.064.053-10.129c.007-3.094 0-6.188-.008-9.283zm-5.883 16.989c.454.133.721.058.708-.5a.692.692 0 0 0-.69-.708.64.64 0 0 0-.689.607c.006.425.075.83.67.601zm2.664-2.834c.764.261.621-.43.7-.75.069-.281-.3-.608-.537-.584-.353.036-.808.267-.86.635s.061.873.696.699zm-6.922 4.087c.618.345.686-.193.727-.533.059-.479-.479-.6-.748-.622s-.592.318-.627.685c-.045.459.194.632.647.469zm7.4-8.466c-.093.428.173.579.58.582s.709-.154.693-.627a.741.741 0 0 0-.708-.715c-.352-.023-.602.296-.567.759zm-14.056 4.411c.446.178.553-.158.594-.535a.673.673 0 0 0-.666-.72c-.4.014-.559.476-.6.869-.062.507.321.387.67.385zm13.9-7.439c.521.191.683-.142.71-.552.03-.448-.409-.514-.677-.538a.6.6 0 0 0-.708.594c-.005.431.207.65.673.495zm-14.05-.167a.725.725 0 0 0 .65-.669c.031-.345-.483-.488-.745-.528a.651.651 0 0 0-.612.615.611.611 0 0 0 .706.581zm3.047 10.482c.313.067.6.074.6-.385a.69.69 0 0 0-.621-.769c-.4-.02-.537.394-.587.726-.067.447.27.455.606.427zm-3.814-6.816c.479.049.454-.347.469-.611a.538.538 0 0 0-.593-.552c-.366.01-.543.305-.553.673-.014.487.354.456.675.489zm3.838-6.877c.522.07.543-.319.557-.587.021-.423-.357-.527-.677-.528a.53.53 0 0 0-.59.554c.008.496.343.595.708.56zm3.886-.97c.367.114.521-.044.534-.412.014-.4-.186-.64-.562-.639a.578.578 0 0 0-.627.6c-.021.475.297.499.654.45zm4.175 1.107c.374.055.559-.112.559-.463a.633.633 0 0 0-.664-.658c-.331-.009-.528.28-.538.622-.013.45.285.532.641.498z" class="cls-2" data-name="Path 2053" transform="translate(-258.47 -.033)"/>
            <path id="Path_2054" d="M4417.339 2997.176c-.009 2.942-.022 5.884-.025 8.824q-.006 5.264.012 10.527c0 .456-.155.621-.606.62q-9.064-.033-18.128-.049c-.261 0-.523 0-.785-.006-.369-.008-.523-.158-.522-.566q.023-9.675.015-19.35zm-10.217 15.892v.013c1.069 0 2.138.014 3.207 0 1.508-.024 1.314.168 1.606-1.321.021-.107.044-.214.072-.319.2-.765.121-.846-.69-.834-1.439.022-2.879.022-4.318.024-.314 0-.7-.015-.541-.485.335-1 .467-2.035.705-3.051q.707-3.019 1.416-6.037c.118-.5-.089-.682-.577-.668q-1.012.028-2.027.012c-.455-.007-.653.2-.736.643-.5 2.682-1.207 5.319-1.793 7.983a28.053 28.053 0 0 1-.82 3.371c-.18.509.007.68.506.677 1.329-.014 2.66-.008 3.99-.008z" class="cls-2" data-name="Path 2054" transform="translate(-193.818 -.033)"/>
            <path id="Path_2055" d="M4331.678 2997.176q0 9.679.02 19.358c0 .568-.3.576-.7.575q-7.988-.008-15.975-.008-1.341 0-2.683.009c-.4 0-.661-.094-.658-.586q.032-6.049.034-12.1v-7a1.3 1.3 0 0 1 .052-.253zm-10.155 15.919c.916 0 1.833.017 2.749 0 1.951-.045 1.675.386 2.143-1.74 0-.021.013-.042.018-.063.1-.484.006-.715-.587-.69-1.48.063-2.964.053-4.446.063-.484 0-.677-.219-.515-.711.115-.349.2-.709.287-1.068q.586-2.556 1.16-5.114c.208-.934.392-1.873.6-2.806.1-.422-.009-.648-.476-.59a11.267 11.267 0 0 1-2.155.022c-.28-.019-.508.021-.584.369-.19.871-.4 1.737-.614 2.6-.717 2.94-1.293 5.913-2.094 8.833-.186.677-.045.889.649.891 1.29.009 2.577.009 3.865.009z" class="cls-2" data-name="Path 2055" transform="translate(-129.245 -.033)"/>
            <path id="Path_2056" d="M4588.69 2997.176c.015.216.044.432.044.648 0 5.863.033 11.726-.007 17.588-.013 1.857.387 1.713-1.674 1.7-5.912-.024-11.824 0-17.736.007-.379 0-.663-.061-.6-.534a23.772 23.772 0 0 0 .062-2.937q.019-8.238.005-16.476zm-10 3.213v.033h-3.666c-1.769 0-1.746 0-2.092 1.748-.114.575.094.691.593.681.895-.018 1.789 0 2.684-.012.415-.007.547.144.45.554-.7 2.943-1.39 5.889-2.1 8.831-.151.629-.064.819.561.844.61.025 1.222-.007 1.832.017a.794.794 0 0 0 .907-.727c.253-1.17.533-2.334.8-3.5.42-1.844.856-3.686 1.241-5.537.083-.4.237-.493.6-.484.851.02 1.7-.02 2.553.018.651.029 1.095-.113 1.152-.862a5.487 5.487 0 0 1 .215-1.021c.125-.456-.075-.587-.5-.585-1.742.007-3.487.002-5.232.002z" class="cls-2" data-name="Path 2056" transform="translate(-323.124 -.033)"/>
            <path id="Path_2057" d="M4760.122 2997.176c-.014.26-.042.52-.042.779q0 9.346.018 18.692c0 .442-.2.494-.557.493q-8.537-.016-17.075-.017c-.589 0-1.179.015-1.767.008-.393 0-.688-.121-.629-.615a27.747 27.747 0 0 0 .045-3.2q.011-7.712 0-15.425c0-.238-.023-.477-.036-.715zm-16.5 11.055c0 .327-.026.656 0 .98a3.957 3.957 0 0 0 2.7 3.685 8.447 8.447 0 0 0 6.442-.369 1.246 1.246 0 0 0 .878-1.083 11.936 11.936 0 0 1 .387-1.584c.051-.2.216-.439-.022-.6s-.4.051-.575.185a6.374 6.374 0 0 1-3.329 1.4c-1.613.162-3.027-.565-3.1-2.35a7.683 7.683 0 0 1 .288-2.518 4.147 4.147 0 0 1 3.188-3.282 4.328 4.328 0 0 1 4.066 1.26c.417.408.606.37.757-.168.2-.713.344-1.44.528-2.157.113-.44-.1-.639-.48-.779a12.493 12.493 0 0 0-2.2-.608 8.108 8.108 0 0 0-5.852 1.065 7.654 7.654 0 0 0-3.681 6.923z" class="cls-2" data-name="Path 2057" transform="translate(-452.381 -.033)"/>
            <path id="Path_2058" d="M4674.35 2997.176q0 9.355-.006 18.709c0 1.218 0 1.214-1.235 1.215q-8.971.006-17.942.017c-.81 0-.8-.036-.8-.847q.012-9.452-.006-18.9a.789.789 0 0 0-.047-.188zm-9.584 3.237v.061h-4.057c-.281 0-.513.037-.588.377-.392 1.762-.77 3.528-1.2 5.281-.5 2.071-.833 4.183-1.476 6.222-.149.472.069.721.54.733.61.016 1.222 0 1.833 0 1.942 0 3.884-.01 5.826-.008.42 0 .822-.065.915-.538.081-.406.227-.792.3-1.192.045-.238.117-.667-.287-.652-.349.013-.68-.07-1.027-.059-1.285.042-2.572.029-3.858.035-.462 0-.593-.257-.438-.642a16.5 16.5 0 0 0 .494-2.092c.11-.423.285-.516.667-.508 1.156.024 2.313.055 3.469.029 1.466-.033 1.4.342 1.808-1.461.2-.879.127-.959-.8-.951q-1.9.017-3.794 0c-.629 0-.707-.138-.51-.755a3.2 3.2 0 0 0 .225-.882c.009-.516.271-.608.712-.6 1.222.017 2.444.022 3.666 0 2.08-.033 1.535.309 2.057-1.737.118-.463-.022-.682-.555-.669-1.304.028-2.613.008-3.922.008z" class="cls-2" data-name="Path 2058" transform="translate(-387.696 -.033)"/>
            <path id="Path_2059" d="M4845.856 2997.176a1.334 1.334 0 0 1 .081.766q.007 8.889 0 17.779c0 1.383 0 1.381-1.382 1.381h-17.274c-1.168 0-1.167 0-1.166-1.117q0-9.021.009-18.04a1.329 1.329 0 0 1 .08-.766zm-9.872 10.276v-.035c.567 0 1.134.008 1.7 0 .633-.011.73.105.577.731q-.507 2.063-1.011 4.125c-.1.421-.049.765.476.782.72.024 1.44.026 2.159.015a.576.576 0 0 0 .63-.541 13.789 13.789 0 0 1 .387-1.506c.683-3.345 1.6-6.639 2.23-10 .092-.487-.045-.653-.5-.647q-1.08.012-2.158.021a.492.492 0 0 0-.537.45c-.271 1.231-.578 2.456-.842 3.689-.065.308-.2.488-.5.49-1.331.011-2.661.018-3.99.006-.293 0-.525-.146-.383-.508.435-1.1.542-2.281.9-3.4.176-.559.027-.771-.53-.72a9.88 9.88 0 0 1-1.764 0c-.688-.06-.957.235-1.087.885-.367 1.833-.775 3.659-1.2 5.481-.433 1.865-.9 3.722-1.357 5.581-.11.446.048.678.5.692.588.019 1.182-.016 1.766.044.7.073.975-.258 1.106-.892.286-1.387.63-2.761.919-4.146a.654.654 0 0 1 .808-.61c.565.043 1.134.013 1.701.013z" class="cls-2" data-name="Path 2059" transform="translate(-517.289 -.033)"/>
            <path id="Path_2060" d="M4160.389 2997.143a.884.884 0 0 0-.077.57q0 9.376.014 18.751c0 .6-.258.649-.763.647q-9.45-.03-18.9-.016a1.527 1.527 0 0 0-.313.067q0-9.78-.011-19.561c0-.39.079-.47.47-.469q9.791.023 19.58.011zm-10.873 3.234c-.841 0-1.778-.006-2.715 0-.3 0-.607-.012-.7.411-.484 2.144-.988 4.283-1.486 6.424-.4 1.737-.684 3.5-1.221 5.209-.135.429.054.584.423.59.784.012 1.569 0 2.354-.008.356 0 .473-.224.543-.535.218-.978.459-1.949.686-2.925.261-1.125.259-1.1 1.419-1.146a.922.922 0 0 1 1 .615c.554 1.183 1.166 2.339 1.737 3.514.145.3.294.514.67.5.85-.021 1.7-.018 2.551-.025.458 0 .615-.243.407-.632-.728-1.364-1.465-2.723-2.232-4.065-.338-.591-.336-.688.294-.93a4.018 4.018 0 0 0 2.6-2.564c.461-1.473.229-3.478-2.078-4.1a19.727 19.727 0 0 0-4.252-.334z" class="cls-2" data-name="Path 2060"/>
            <path id="Path_2061" d="M4246.017 2997.176c.01 1.635.025 3.27.027 4.905.006 4.8 0 9.595.017 14.392 0 .44-.137.644-.594.643q-9.168-.015-18.335-.019c-1.064 0-1.058-.016-1.058-1.083v-18.056c0-.261.02-.521.03-.783zm-11.261 16.143a7.594 7.594 0 0 0 5.576-1.9 7.707 7.707 0 0 0 1.948-2.733 8.625 8.625 0 0 0 .742-3.934 4.567 4.567 0 0 0-2.221-3.848c-2.832-1.677-7.255-.685-9.295 1.814a8.135 8.135 0 0 0-1.943 6.281 4.473 4.473 0 0 0 .916 2.516 5.338 5.338 0 0 0 4.277 1.804z" class="cls-2" data-name="Path 2061" transform="translate(-64.671 -.033)"/>
            <path id="Path_2062" d="M4174.059 3023.386c-1.6-.028-1.521.125-1.2-1.268.068-.3.141-.593.213-.889.29-1.2.29-1.2 1.56-1.19h.589c1.026 0 1.458.3 1.606 1.133a1.646 1.646 0 0 1-1.11 1.9 5.177 5.177 0 0 1-.877.258 5.874 5.874 0 0 1-.781.056z" class="cls-2" data-name="Path 2062" transform="translate(-24.391 -17.279)"/>
            <path id="Path_2063" d="M4260.675 3022.369a5.872 5.872 0 0 1-1.874 4.044 3.065 3.065 0 0 1-3.079.754 2.288 2.288 0 0 1-1.639-2.142 6.378 6.378 0 0 1 1.491-4.984 3.347 3.347 0 0 1 3.095-1.178c1.331.179 2.123 1.437 2.006 3.506z" class="cls-2" data-name="Path 2063" transform="translate(-85.774 -16.365)"/>
        </g>
    </g>
</svg>
