<svg xmlns="http://www.w3.org/2000/svg" width="323" height="68" viewBox="0 0 323 68">
    <defs>
        <style>
            .cls-2{fill:#fff}
        </style>
    </defs>
    <g id="swisspacer_enabled" transform="translate(-410 -415)">
        <rect id="Rectangle_2342" width="323" height="68" fill="#363636" data-name="Rectangle 2342" rx="3" transform="translate(410 415)"/>
        <g id="Group_6006" data-name="Group 6006" transform="translate(1924.004 -1447.246)">
            <path id="Path_2003" d="M-1320.127 1901.951c.763-3.966 1.835-7.753 2.719-11.585a.254.254 0 0 1 .3-.236c.848.01 1.7.015 2.544 0 .27 0 .326.063.259.322-.474 1.821-.937 3.645-1.4 5.468-.839 3.286-1.683 6.572-2.508 9.861-.076.3-.195.381-.5.375-1.051-.02-2.1-.011-3.155 0-.176 0-.282-.022-.335-.225-.817-3.187-1.714-6.353-2.483-9.552-.162-.675-.251-1.367-.423-2.055-.069.431-.127.864-.21 1.292-.38 1.937-.954 3.826-1.441 5.737-.378 1.485-.778 2.964-1.157 4.449-.063.248-.138.368-.438.36-.983-.026-1.967-.017-2.951 0-.229 0-.33-.052-.391-.291q-1.955-7.717-3.934-15.428c-.066-.257-.007-.307.239-.3.916.011 1.832.008 2.748 0 .182 0 .276.031.325.237.809 3.4 1.73 6.769 2.458 10.187.108.505.169 1.021.258 1.565.594-3.593 1.77-7 2.655-10.479.108-.426.239-.846.344-1.272.041-.167.1-.241.292-.239.95.01 1.9.007 2.85 0 .157 0 .242.034.287.2.9 3.34 1.9 6.651 2.728 10.01.12.493.201 1 .32 1.599z" class="cls-2" data-name="Path 2003" transform="translate(-69.728 -1.614)"/>
            <path id="Path_2004" d="M-588.215 1898.855v.4c0 1.942-.006 3.884.006 5.826 0 .285-.051.391-.365.381q-1.169-.038-2.34 0c-.318.01-.414-.061-.413-.4.014-3.929.009-7.859.009-11.789 0-1.174.008-2.349-.007-3.523 0-.268.078-.344.339-.349a53.86 53.86 0 0 1 5.488-.012 5.733 5.733 0 0 1 3.217 1.11 3.917 3.917 0 0 1 1.394 3 4.454 4.454 0 0 1-3.739 4.751c-.087.018-.174.039-.314.07 1.753 2.345 3.4 4.718 5.092 7.063-.085.105-.181.063-.262.063-1.086 0-2.171-.005-3.257.009a.484.484 0 0 1-.462-.254q-2.045-3.051-4.105-6.093c-.058-.084-.089-.208-.281-.253zm0-4.64v2.067c0 .117-.038.269.157.275a5.455 5.455 0 0 0 2.6-.3 2.288 2.288 0 0 0 1.324-2.378 2.007 2.007 0 0 0-1.752-1.914 8.467 8.467 0 0 0-2.094-.072c-.194.007-.24.107-.238.285.007.682.003 1.36.003 2.037z" class="cls-2" data-name="Path 2004" transform="translate(-707.756 -.916)"/>
            <path id="Path_2005" d="M-877.864 1906.146l.691-1.975q2.408-6.874 4.81-13.749c.074-.213.157-.3.4-.3.984.016 1.967.012 2.951 0a.32.32 0 0 1 .364.251q2.758 7.736 5.532 15.466c.078.218.086.312-.2.307-.961-.016-1.922-.013-2.883 0a.313.313 0 0 1-.354-.263c-.3-.92-.627-1.834-.928-2.755a.312.312 0 0 0-.358-.256q-2.765.012-5.529 0a.291.291 0 0 0-.331.24c-.305.919-.631 1.832-.932 2.753-.067.2-.149.284-.373.281-.94-.008-1.877 0-2.86 0zm7.255-12.384a.432.432 0 0 0-.051.092 64.824 64.824 0 0 1-2.075 6.277c-.093.264-.008.289.227.287 1.254-.009 2.507-.014 3.76 0 .313 0 .338-.065.241-.347-.719-2.091-1.586-4.137-2.102-6.309z" class="cls-2" data-name="Path 2005" transform="translate(-462.141 -1.611)"/>
            <path id="Path_2006" d="M-948.047 1897.425c0-2.551 0-5.1-.005-7.653 0-.249.044-.352.325-.357a49.425 49.425 0 0 1 5.079-.016 6.165 6.165 0 0 1 3.312 1.149 4.5 4.5 0 0 1 1.7 4.1 5.438 5.438 0 0 1-4.88 5.111 7.966 7.966 0 0 1-2.16.076c-.267-.03-.26.1-.26.29 0 1.67 0 3.341.009 5.011 0 .272-.079.339-.341.334-.813-.016-1.628-.021-2.441 0-.3.009-.343-.1-.342-.362.008-2.559.004-5.121.004-7.683zm3.111-2.846c0 .791.006 1.581 0 2.371 0 .211.051.3.278.311a8.978 8.978 0 0 0 1.117 0 2.728 2.728 0 0 0 2.651-2.288 2.412 2.412 0 0 0-2.072-3.017 10.913 10.913 0 0 0-1.689-.065c-.218 0-.289.061-.286.286.009.798.001 1.6.001 2.401z" class="cls-2" data-name="Path 2006" transform="translate(-401.977 -.931)"/>
            <path id="Path_2007" d="M-674.378 1898.126c0-2.552 0-5.1-.007-7.656 0-.281.068-.353.351-.352q4.02.017 8.04 0c.313 0 .374.094.364.38q-.033.931 0 1.863c.01.278-.062.36-.349.357-1.64-.014-3.279 0-4.919-.013-.28 0-.387.041-.38.359.024 1.095.017 2.191 0 3.286 0 .242.069.3.3.3 1.572-.01 3.144 0 4.716-.01.241 0 .336.043.327.31-.021.632-.019 1.265 0 1.9.007.252-.063.324-.319.322-1.56-.012-3.121 0-4.682-.011-.256 0-.349.05-.345.33.016 1.242.013 2.484 0 3.726 0 .225.065.281.284.28 1.674-.009 3.347 0 5.021-.01.262 0 .347.059.339.333-.021.688-.014 1.378 0 2.066 0 .212-.067.265-.271.264q-4.105-.009-8.21 0c-.28 0-.27-.132-.269-.328q.012-3.851.009-7.696z" class="cls-2" data-name="Path 2007" transform="translate(-636.56 -1.603)"/>
            <path id="Path_2008" d="M-1413.228 1904.808a14.305 14.305 0 0 1-3.119-.318c-.195-.043-.255-.114-.239-.314.063-.787.113-1.575.158-2.363.013-.23.08-.266.306-.2a9.673 9.673 0 0 0 3.472.473 2.709 2.709 0 0 0 1.849-.723 1.834 1.834 0 0 0-.152-2.724 7.15 7.15 0 0 0-1.9-.953 13.4 13.4 0 0 1-2.21-1.016 3.953 3.953 0 0 1-1.892-4.177 4.639 4.639 0 0 1 4-4.025 11.89 11.89 0 0 1 4.314-.035c.675.1.666.111.617.784-.042.585-.071 1.171-.093 1.758-.008.217-.046.288-.295.221a9.439 9.439 0 0 0-2.914-.352 3.124 3.124 0 0 0-1.521.412 1.682 1.682 0 0 0-.146 2.84 7.433 7.433 0 0 0 1.743.89 14.136 14.136 0 0 1 2.469 1.179 3.865 3.865 0 0 1 1.786 4 5.077 5.077 0 0 1-4.309 4.433 8.5 8.5 0 0 1-1.924.21z" class="cls-2" data-name="Path 2008" transform="translate(0 -.009)"/>
            <path id="Path_2009" d="M-1118.379 1901.552a11.242 11.242 0 0 0 3.429.56 3.645 3.645 0 0 0 1.61-.336 1.853 1.853 0 0 0 .256-3.24 8.816 8.816 0 0 0-1.893-.9c-.525-.206-1.046-.42-1.552-.671a4 4 0 0 1-2.448-3.711 4.338 4.338 0 0 1 2.388-4.165 7.775 7.775 0 0 1 3.933-.826 20.036 20.036 0 0 1 2.393.224c.229.031.32.107.3.363-.065.73-.1 1.463-.136 2.195-.009.192-.063.215-.244.167a9.4 9.4 0 0 0-2.981-.359 2.684 2.684 0 0 0-1.882.721 1.657 1.657 0 0 0 0 2.317 4.233 4.233 0 0 0 1.344.834c.865.384 1.767.686 2.6 1.143a3.965 3.965 0 0 1 2.248 2.839 4.891 4.891 0 0 1-2.911 5.44 9.081 9.081 0 0 1-4.514.623 12.344 12.344 0 0 1-1.908-.282c-.186-.043-.234-.117-.22-.3.067-.859.124-1.724.188-2.636z" class="cls-2" data-name="Path 2009" transform="translate(-255.462 -.017)"/>
            <path id="Path_2010" d="M-1037.122 1901.535a10.664 10.664 0 0 0 3.765.547 2.984 2.984 0 0 0 1.564-.491 1.85 1.85 0 0 0 .081-2.987 6.183 6.183 0 0 0-1.528-.791 24.957 24.957 0 0 1-2.325-1.013c-2.957-1.553-2.679-5.712-.4-7.327a6.972 6.972 0 0 1 3.649-1.2 15.428 15.428 0 0 1 3.342.208c.2.029.284.1.266.323-.061.742-.1 1.485-.137 2.229-.009.2-.067.214-.245.167a9.713 9.713 0 0 0-2.948-.36 3.062 3.062 0 0 0-1.605.466 1.667 1.667 0 0 0-.125 2.738 8.2 8.2 0 0 0 2.107 1.063 16.5 16.5 0 0 1 1.752.8 4.01 4.01 0 0 1 2.1 4.806 4.931 4.931 0 0 1-3.914 3.792 11.334 11.334 0 0 1-5.37-.034c-.162-.034-.225-.088-.212-.265.066-.875.121-1.752.183-2.671z" class="cls-2" data-name="Path 2010" transform="translate(-325.108)"/>
            <path id="Path_2011" d="M-762.024 1905.547a8.249 8.249 0 0 1-3.78-.754 5.989 5.989 0 0 1-3.272-4.134 11.031 11.031 0 0 1 .419-7.037 6.766 6.766 0 0 1 5.439-4.271 12.544 12.544 0 0 1 4.945.2c.2.045.3.1.259.355-.112.747-.194 1.5-.268 2.25-.025.252-.114.278-.34.214a10.723 10.723 0 0 0-2.944-.4 3.983 3.983 0 0 0-4.059 2.869 8.007 8.007 0 0 0 .044 5.25 3.782 3.782 0 0 0 3.4 2.6 7.716 7.716 0 0 0 3.655-.5c.251-.092.324-.067.352.205.074.718.161 1.435.276 2.146.044.272-.057.344-.285.416a12.2 12.2 0 0 1-3.841.591z" class="cls-2" data-name="Path 2011" transform="translate(-555.064 -.809)"/>
            <path id="Path_2012" d="M-1166.6 1898.118c0-2.552 0-5.1-.006-7.656 0-.256.051-.347.328-.341.836.02 1.674.015 2.51 0 .228 0 .282.071.282.288q-.008 7.724 0 15.448c0 .218-.054.291-.282.288-.848-.013-1.7-.015-2.544 0-.247 0-.294-.076-.294-.306.006-2.572.006-5.147.006-7.721z" class="cls-2" data-name="Path 2012" transform="translate(-214.634 -1.607)"/>
        </g>
    </g>
</svg>
