<svg xmlns="http://www.w3.org/2000/svg" width="323" height="68" viewBox="0 0 323 68">
    <defs>
        <style>
            .cls-2{fill:#fff}
        </style>
    </defs>
    <g id="thermoseal_enabled" transform="translate(-410 -205)">
        <rect id="Rectangle_2342" width="323" height="68" fill="#363636" data-name="Rectangle 2342" rx="3" transform="translate(410 205)"/>
        <g id="Group_6020" data-name="Group 6020" transform="translate(-2375.617 -3585.549)">
            <path id="Path_2080" d="M3014.694 3811.558l.018 3.285c0 .153-.059.207-.208.205-.344-.006-.687 0-1.031 0h-125.5c-.247 0-.495.011-.741 0-.19-.011-.244.067-.235.244.011.225 0 .451 0 .676q0 6.17.008 12.34c0 .321-.075.41-.4.4-1.235-.022-2.471-.019-3.707 0-.286 0-.356-.073-.355-.356.009-4.307 0-8.613.014-12.92 0-.317-.091-.394-.393-.391-1.181.013-2.363 0-3.544 0v-3.287c0-.162.037-.224.2-.194a.529.529 0 0 0 .1 0z" class="cls-2" data-name="Path 2080"/>
            <path id="Path_2081" d="M3278.288 3850.473l-1.27 1.728c-.638.871-1.281 1.738-1.908 2.618-.163.228-.226.109-.331-.035q-1.2-1.644-2.406-3.281c-.249-.339-.5-.676-.751-1.015l-.086.026c0 .155-.007.312 0 .467.084 1.6.035 3.2.078 4.8.01.386.014.772.035 1.158.01.186-.03.268-.242.266-1.321-.008-2.642-.011-3.963 0-.257 0-.24-.129-.239-.3v-5.379c0-2.2.007-4.4-.008-6.6 0-.306.094-.365.376-.361 1.106.015 2.213.009 3.319 0a.505.505 0 0 1 .472.236c1.133 1.554 2.287 3.093 3.426 4.642.133.181.2.163.325 0 1.128-1.534 2.266-3.062 3.39-4.6a.573.573 0 0 1 .522-.279c1.128.013 2.256.01 3.384 0 .2 0 .278.05.278.266q-.008 6.056 0 12.112c0 .218-.079.264-.281.263-1.278-.007-2.556-.011-3.834 0-.272 0-.313-.1-.309-.337.034-1.813.058-3.627.083-5.439v-.93z" class="cls-2" data-name="Path 2081" transform="translate(-335.472 -28.5)"/>
            <path id="Path_2082" d="M2967.349 3850.9c0 2 0 3.994.005 5.991 0 .232-.044.313-.3.31q-1.917-.021-3.834 0c-.241 0-.313-.062-.311-.3.009-1.385 0-2.77.008-4.155 0-.255-.07-.323-.322-.321q-2.127.018-4.253 0c-.227 0-.285.06-.284.285.011 1.4 0 2.792.011 4.188 0 .234-.048.311-.3.308q-1.917-.02-3.834 0c-.263 0-.325-.081-.324-.328q.008-5.991 0-11.983c0-.239.047-.336.318-.333 1.278.016 2.557.014 3.835 0 .242 0 .3.062.3.3-.012 1.331 0 2.663-.01 3.994 0 .221.05.29.285.288q2.127-.019 4.253 0c.256 0 .326-.072.323-.329-.014-1.31 0-2.62-.012-3.93 0-.247.056-.331.32-.328q1.9.022 3.8 0c.253 0 .321.063.32.319.001 2.008.006 4.015.006 6.024z" class="cls-2" data-name="Path 2082" transform="translate(-64.749 -28.496)"/>
            <path id="Path_2083" d="M3402.409 3856.3a7.232 7.232 0 0 1-4.79-1.433 5.711 5.711 0 0 1-2.137-3.727 6.484 6.484 0 0 1 1.967-6.207 6.418 6.418 0 0 1 3.867-1.543 8.722 8.722 0 0 1 3.592.357 5.783 5.783 0 0 1 3.873 3.934 6.836 6.836 0 0 1-.546 5.564 5.776 5.776 0 0 1-3.694 2.781 7.731 7.731 0 0 1-2.132.274zm2.265-6.471a3.192 3.192 0 0 0-.265-1.378 2.15 2.15 0 0 0-1.9-1.371 2.215 2.215 0 0 0-2.231.97 3.355 3.355 0 0 0-.369 2.716 2.159 2.159 0 0 0 1.677 1.752 2.344 2.344 0 0 0 2.476-.74 3.016 3.016 0 0 0 .612-1.952z" class="cls-2" data-name="Path 2083" transform="translate(-446.123 -27.448)"/>
            <path id="Path_2084" d="M3168.084 3851.115a5.1 5.1 0 0 1 1.919 2.6c.505 1.072.976 2.162 1.47 3.24.1.207.055.254-.165.252-1.289-.007-2.577-.009-3.866 0a.3.3 0 0 1-.332-.215c-.313-.75-.625-1.5-.959-2.242a8.174 8.174 0 0 0-1.252-2.155 1.729 1.729 0 0 0-1.459-.672 4.806 4.806 0 0 1-.74 0c-.251-.022-.3.077-.3.31.009 1.428 0 2.855 0 4.283 0 .688 0 .688-.691.688-1.16 0-2.319-.006-3.479 0-.227 0-.31-.038-.31-.294q.015-6.022 0-12.044c0-.243.062-.3.3-.3 2.437.009 4.875-.011 7.312.014a5 5 0 0 1 3.43 1.134 3.194 3.194 0 0 1 1 3.153 2.857 2.857 0 0 1-1.565 2.039c-.066.035-.129.077-.192.117-.026.021-.05.041-.121.092zm-5.692-2.8h.008v1.417c0 .122-.008.25.168.248a5.839 5.839 0 0 0 2.317-.244 1.523 1.523 0 0 0 .944-1.533 1.476 1.476 0 0 0-1.112-1.438 8.337 8.337 0 0 0-2.144-.131c-.2-.007-.182.133-.181.265v1.415z" class="cls-2" data-name="Path 2084" transform="translate(-241.13 -28.508)"/>
            <path id="Path_2085" d="M3673.526 3844.572c.677 0 1.353.006 2.03 0a.351.351 0 0 1 .389.235c.795 1.753 1.605 3.5 2.4 5.25 1.044 2.288 2.078 4.581 3.132 6.865.125.27.062.292-.188.292q-1.916-.012-3.833 0a.357.357 0 0 1-.389-.282c-.194-.521-.417-1.03-.613-1.549a.315.315 0 0 0-.349-.24q-2.577.012-5.154 0a.325.325 0 0 0-.373.247c-.186.513-.411 1.012-.609 1.521a.4.4 0 0 1-.436.306c-1.256-.016-2.512-.014-3.769 0-.289 0-.316-.059-.2-.314.9-1.943 1.78-3.892 2.666-5.838s1.767-3.872 2.641-5.812c.3-.666.286-.672 1.006-.672h1.643zm0 3.348l-.11.281-1.7 4.327c-.062.157-.143.318.147.317h3.314c.194 0 .235-.053.158-.248-.342-.865-.666-1.737-1-2.6-.262-.68-.528-1.352-.811-2.077z" class="cls-2" data-name="Path 2085" transform="translate(-679.339 -28.505)"/>
            <path id="Path_2086" d="M3082 3844.5v2.544c0 .216-.162.156-.278.157h-3.673c-.29 0-.58.006-.87 0-.15 0-.209.045-.207.2.007.6.01 1.2 0 1.8 0 .23.138.195.275.195 1.332 0 2.664.01 4-.006.3 0 .377.08.367.373-.022.675-.014 1.352 0 2.029 0 .211-.063.274-.276.272-1.342-.009-2.685 0-4.027-.011-.272 0-.343.078-.333.341.021.558.022 1.117 0 1.675-.011.286.058.38.363.376 1.471-.018 2.943 0 4.415-.014.271 0 .377.053.367.351-.022.7-.016 1.4 0 2.093 0 .219-.067.267-.272.266q-4.511-.007-9.022 0c-.222 0-.292-.064-.292-.293q.01-6.024 0-12.047c0-.219.052-.3.284-.3q4.221.01 8.442.006c.231.008.466.151.737-.007z" class="cls-2" data-name="Path 2086" transform="translate(-167.408 -28.447)"/>
            <path id="Path_2087" d="M3592.585 3857.2h-4.413c-.219 0-.317-.023-.317-.287q.014-6.038 0-12.076c0-.236.078-.278.294-.277q4.445.01 8.891 0c.257 0 .3.1.3.318-.01.687-.014 1.375 0 2.062 0 .247-.06.325-.322.323-1.46-.014-2.921 0-4.381-.014-.3 0-.382.091-.368.382.023.492.021.988 0 1.48-.011.271.083.353.345.351 1.331-.009 2.663 0 3.994-.01.223 0 .3.04.291.272q-.023 1.046 0 2.093c.005.238-.054.309-.3.306-1.32-.013-2.641 0-3.962-.009-.272 0-.38.057-.366.355.025.557.023 1.116 0 1.674-.011.279.06.364.351.36 1.482-.015 2.963 0 4.445-.012.259 0 .354.051.345.331-.022.665-.023 1.332 0 2 .009.3-.071.389-.376.386-1.487-.015-2.969-.008-4.451-.008z" class="cls-2" data-name="Path 2087" transform="translate(-612.302 -28.502)"/>
            <path id="Path_2088" d="M3507.762 3851.834a8.442 8.442 0 0 0 2.006 1.012 3.737 3.737 0 0 0 1.962.182.845.845 0 0 0 .713-.652.748.748 0 0 0-.387-.783c-.629-.472-1.368-.752-2.036-1.156a4.383 4.383 0 0 1-2.034-2.179 3.66 3.66 0 0 1 2-4.646 6.139 6.139 0 0 1 5.142.23c.125.061.249.123.373.187a1.128 1.128 0 0 1 .738 1.219c-.079.84-.019 1.692-.019 2.6-.391-.3-.73-.587-1.091-.84a3.416 3.416 0 0 0-2.137-.763 1.727 1.727 0 0 0-.508.071.8.8 0 0 0-.276 1.433 11.107 11.107 0 0 0 1.962 1.144 5.82 5.82 0 0 1 1.977 1.6 3.568 3.568 0 0 1-.99 4.872 6.01 6.01 0 0 1-3.552.769 9.939 9.939 0 0 1-3.688-.787c-.083-.037-.154-.047-.154-.162l-.001-3.351z" class="cls-2" data-name="Path 2088" transform="translate(-543.153 -27.284)"/>
            <path id="Path_2089" d="M3793.588 3850.873c0-2 .005-3.994-.006-5.991 0-.258.072-.32.323-.318q1.917.018 3.834 0c.26 0 .322.079.321.33-.009 2.92 0 5.841-.011 8.762 0 .26.061.352.34.349 1.428-.014 2.857 0 4.285-.011.283 0 .337.093.333.348-.014.859-.01 1.718 0 2.577 0 .195-.034.288-.261.287q-4.462-.009-8.925 0c-.264 0-.231-.148-.231-.309l-.002-6.024z" class="cls-2" data-name="Path 2089" transform="translate(-789.911 -28.5)"/>
            <path id="Path_2090" d="M3370.771 3963.307a3.043 3.043 0 0 1-2.369-1.082 3.217 3.217 0 0 1-.585-3 3 3 0 0 1 3.047-2.231 3.245 3.245 0 0 1 2.8 1.082 3.211 3.211 0 0 1 .471 3.386c-.482 1.238-1.655 1.893-3.364 1.845zm1.442-3.16a1.38 1.38 0 0 0-.321-.982 1.133 1.133 0 0 0-1.213-.3 1.017 1.017 0 0 0-.756.862 1.381 1.381 0 0 0 .558 1.634 1.182 1.182 0 0 0 1.733-1.213z" class="cls-2" data-name="Path 2090" transform="translate(-422.222 -125.561)"/>
            <path id="Path_2091" d="M3290.865 3960.695c0-.922.006-1.846-.006-2.769 0-.23.073-.292.293-.291 1.138.011 2.276.01 3.414.011a2.438 2.438 0 0 1 1.595.484 1.554 1.554 0 0 1-.081 2.526c-.195.135-.222.2-.022.353a2.714 2.714 0 0 1 .688 1.069c.234.468.444.949.656 1.427.08.179.071.3-.188.29-.557-.016-1.116-.014-1.674 0-.192 0-.229-.13-.281-.254-.229-.543-.462-1.083-.736-1.606a1.143 1.143 0 0 0-1.216-.7c-.21.021-.274.076-.271.282.01.666 0 1.332.007 2 0 .224-.055.3-.291.288-.525-.02-1.052-.013-1.578 0-.234.007-.347-.059-.308-.305a.373.373 0 0 0 0-.064zm2.177-1.275v.644c0 .094-.008.206.14.2a2.88 2.88 0 0 0 1.049-.106.76.76 0 0 0 .42-1.011c-.19-.469-.608-.493-1.016-.51-.59-.026-.59-.017-.59.557z" class="cls-2" data-name="Path 2091" transform="translate(-355.897 -126.119)"/>
            <path id="Path_2092" d="M3449.26 3959.683c0-.591.008-1.181 0-1.771 0-.2.065-.259.257-.255.558.01 1.117.016 1.675 0 .228-.006.265.088.264.284q-.009 1.594 0 3.188a1.038 1.038 0 0 0 .7 1.014 1.126 1.126 0 0 0 1.2-.25 1.537 1.537 0 0 0 .346-1.139c.005-.923.009-1.846 0-2.77 0-.253.067-.337.327-.327.515.021 1.031.016 1.546 0 .215-.006.3.042.3.278-.012 1.052-.007 2.1-.007 3.155a2.571 2.571 0 0 1-2.342 2.718 4.7 4.7 0 0 1-2.889-.326 2.306 2.306 0 0 1-1.346-2.031c-.041-.587-.008-1.18-.008-1.77z" class="cls-2" data-name="Path 2092" transform="translate(-492.646 -126.138)"/>
            <path id="Path_2093" d="M3217.469 3961.369c0 .461-.008.923 0 1.384 0 .183-.051.274-.235.308a7.815 7.815 0 0 1-3.538.054 3.022 3.022 0 0 1-2.029-4.048 3.256 3.256 0 0 1 2.864-2.064 5.565 5.565 0 0 1 2.568.278.3.3 0 0 1 .252.343c-.014.343-.016.688 0 1.03.012.252-.068.269-.27.165a3.139 3.139 0 0 0-2.081-.347 1.66 1.66 0 0 0-1.325 1.282 1.608 1.608 0 0 0 .7 1.761 2.042 2.042 0 0 0 1.246.22c.322-.022.137-.3.172-.459.032-.144-.016-.233-.2-.243-.557-.029-.556-.038-.556-.595 0-.731 0-.731.748-.731.472 0 .945.01 1.417 0 .217-.006.276.075.27.281-.011.458-.003.919-.003 1.381z" class="cls-2" data-name="Path 2093" transform="translate(-287.355 -125.532)"/>
            <path id="Path_2094" d="M3531.779 3960.692c0-.913.006-1.825 0-2.737 0-.225.04-.321.3-.317 1.042.017 2.084 0 3.125.014a2.151 2.151 0 0 1 1.958.954 1.945 1.945 0 0 1-1.056 2.809 5.65 5.65 0 0 1-1.846.177c-.28 0-.321.108-.314.342.014.525 0 1.052.014 1.578 0 .205-.064.288-.278.283-.537-.011-1.074-.014-1.611 0-.234.006-.29-.085-.288-.3.009-.935 0-1.868 0-2.8zm2.155-1.073c0 .924.008.93.811.795a.766.766 0 0 0 .651-.962c-.059-.51-.391-.7-1.219-.637-.508.04-.13.458-.24.677-.018.034-.003.084-.003.127z" class="cls-2" data-name="Path 2094" transform="translate(-563.886 -126.122)"/>
        </g>
    </g>
</svg>
