<svg xmlns="http://www.w3.org/2000/svg" width="323" height="68" viewBox="0 0 323 68">
    <defs>
        <style>
            .cls-2{fill:#fff}
        </style>
    </defs>
    <g id="vitroarchitecturalglass_enabled" transform="translate(-580 -742)">
        <rect id="Rectangle_2342" width="323" height="68" fill="#363636" rx="3" transform="translate(580 742)"/>
        <g id="vitro_logo_color" transform="translate(684 750)">
            <path id="Path_2449" d="M0 12.7V5.258a5.08 5.08 0 0 1 1.531-3.71A5.073 5.073 0 0 1 5.258 0h38.993v3.909H33.8a3.766 3.766 0 0 0-2.6.943A12.332 12.332 0 0 0 28.953 7.8c-.216.355-7.55 12.773-10.058 17.019-.311.51-.657.7-1.038.554a1.4 1.4 0 0 1-.709-.666c-.234-.372-3.857-6.78-5.085-8.994a8.019 8.019 0 0 0-1.7-2A5.745 5.745 0 0 0 6.538 12.7zm7.351 5.1a2.228 2.228 0 0 0-2.205-1.081H0v14.07a5.065 5.065 0 0 0 1.548 3.727 5.1 5.1 0 0 0 3.719 1.522l12.384-.009zm36.918-5.085V30.8a5.414 5.414 0 0 1-1.349 3.727 4.975 4.975 0 0 1-3.926 1.522h-14.2c.216-.354 9.175-15.436 11.822-19.942a11.483 11.483 0 0 1 1.929-2.638 3.211 3.211 0 0 1 2.179-.752z" class="cls-2" transform="translate(0)"/>
            <path id="Path_2450" d="M101.568 13.211c-10.68 0-11.121 3.805-11.121 9.608v4.194c0 5.8.45 9.608 11.121 9.608s11.121-3.805 11.121-9.608v-4.194c.001-5.803-.441-9.608-11.121-9.608zm-5.95 9.66c0-2.646-.354-5.647 5.95-5.647s5.958 3 5.958 5.647v4.082c0 2.646.346 5.656-5.958 5.656s-5.95-3-5.95-5.656z" class="cls-2" transform="translate(-3.769 -0.55)"/>
            <path id="Path_2451" d="M55.534 13.265h-5.171V36.6h5.171z" class="cls-2" transform="translate(-2.098 -0.553)"/>
            <path id="Path_2452" d="M72.983 32.382H70.2c-3.312-.052-3.476-.891-3.476-3.295v-12h6.261v-4.016h-6.263V8.6h-5.171v4.471h-2.7v4.013h2.7V29.1c0 5.6 2.032 7.3 8.708 7.3h2.724z" class="cls-2" transform="translate(-2.452 -0.358)"/>
            <path id="Path_2453" d="M88.619 17.122a6.708 6.708 0 0 1 3.1-3.857H89.19c-2.767 0-5.292-.147-7.333 1.92h-.217v-1.92h-5.163V36.6h5.163V21.627c0-2.776 1.124-4.5 6.719-4.5h.259z" class="cls-2" transform="translate(-3.186 -0.553)"/>
            <path id="Path_2455" d="M115.217 35.112a2.292 2.292 0 1 1 2.292 2.3 2.253 2.253 0 0 1-2.292-2.3zm4.177 0a1.886 1.886 0 1 0-1.885 1.9 1.841 1.841 0 0 0 1.885-1.9zm-2.69 1.254a.077.077 0 0 1-.086-.086V33.9a.077.077 0 0 1 .086-.086h.96c.554 0 .873.277.873.752a.7.7 0 0 1-.51.709l.518.995c.027.052 0 .086-.043.086h-.337a.107.107 0 0 1-.1-.086l-.484-.934h-.458c-.035 0-.044.017-.044.052v.891a.077.077 0 0 1-.086.086zm1.384-1.781c0-.225-.129-.346-.424-.346h-.544c-.035 0-.044.017-.044.043v.618c0 .026.009.052.044.052h.544c.295-.013.424-.143.424-.368z" class="cls-2" transform="translate(-4.801 -1.367)"/>
            <path id="Path_2456" d="M9.086 54.363h-.995a.408.408 0 0 1-.277-.087.555.555 0 0 1-.156-.216l-.891-2.292H2.5l-.886 2.292a.508.508 0 0 1-.156.216.414.414 0 0 1-.268.087H.2L4 44.876h1.3zM6.4 50.843l-1.483-3.857c-.043-.112-.086-.251-.138-.4s-.1-.311-.138-.484a7.831 7.831 0 0 1-.285.891l-1.488 3.859H6.4z" class="cls-2" transform="translate(-0.008 -1.87)"/>
            <path id="Path_2457" d="M11.582 49.117a3.073 3.073 0 0 1 .778-1.072 1.7 1.7 0 0 1 1.133-.389 2.088 2.088 0 0 1 .407.043 1.129 1.129 0 0 1 .346.147l-.086.882a.188.188 0 0 1-.2.164 1.387 1.387 0 0 1-.268-.043 1.894 1.894 0 0 0-.406-.043 1.593 1.593 0 0 0-.562.1 1.311 1.311 0 0 0-.441.277 1.9 1.9 0 0 0-.355.45 4.07 4.07 0 0 0-.285.614v4.237h-1.185v-6.716h.674a.368.368 0 0 1 .268.078.423.423 0 0 1 .1.251z" class="cls-2" transform="translate(-0.436 -1.986)"/>
            <path id="Path_2458" d="M19.857 48.962a.444.444 0 0 1-.1.112.247.247 0 0 1-.147.043.348.348 0 0 1-.216-.086c-.078-.052-.182-.112-.294-.182a2.028 2.028 0 0 0-.432-.182 2.16 2.16 0 0 0-.623-.087 2.127 2.127 0 0 0-.873.173 1.636 1.636 0 0 0-.631.51 2.24 2.24 0 0 0-.38.8 3.962 3.962 0 0 0-.13 1.055 3.729 3.729 0 0 0 .138 1.081 2.29 2.29 0 0 0 .4.8 1.686 1.686 0 0 0 .614.493 1.9 1.9 0 0 0 .813.173 2.081 2.081 0 0 0 .709-.1 2.52 2.52 0 0 0 .458-.225c.121-.087.225-.164.3-.225a.374.374 0 0 1 .242-.1.253.253 0 0 1 .225.112l.329.432a2.513 2.513 0 0 1-.493.467 3.044 3.044 0 0 1-.6.32 3.544 3.544 0 0 1-.675.19 3.957 3.957 0 0 1-.718.06 2.9 2.9 0 0 1-1.168-.233 2.59 2.59 0 0 1-.934-.675 3.085 3.085 0 0 1-.623-1.081 4.509 4.509 0 0 1-.225-1.461 4.421 4.421 0 0 1 .208-1.384 3.3 3.3 0 0 1 .605-1.1 2.739 2.739 0 0 1 .986-.718 3.293 3.293 0 0 1 1.349-.259 3.234 3.234 0 0 1 1.245.225 2.9 2.9 0 0 1 .96.649z" class="cls-2" transform="translate(-0.618 -1.987)"/>
            <path id="Path_2459" d="M22.991 48.539a3.614 3.614 0 0 1 .951-.726 2.564 2.564 0 0 1 1.2-.268 2.42 2.42 0 0 1 .969.182 1.9 1.9 0 0 1 .7.519 2.236 2.236 0 0 1 .424.8 3.537 3.537 0 0 1 .147 1.038v4.272H26.2v-4.269a1.809 1.809 0 0 0-.346-1.185 1.312 1.312 0 0 0-1.055-.424 2.028 2.028 0 0 0-.977.251 3.239 3.239 0 0 0-.839.683v4.938H21.8V44.6h1.185v3.943z" class="cls-2" transform="translate(-0.908 -1.858)"/>
            <path id="Path_2460" d="M31 45.543a.786.786 0 0 1-.069.32.857.857 0 0 1-.45.45.861.861 0 0 1-.329.069.786.786 0 0 1-.32-.069.7.7 0 0 1-.259-.182.818.818 0 0 1-.182-.268.785.785 0 0 1-.069-.32.859.859 0 0 1 .069-.329.817.817 0 0 1 .182-.268.88.88 0 0 1 .259-.182.787.787 0 0 1 .32-.069.861.861 0 0 1 .329.069.858.858 0 0 1 .45.45.861.861 0 0 1 .069.329zm-.251 2.1v6.711h-1.172v-6.71z" class="cls-2" transform="translate(-1.222 -1.862)"/>
            <path id="Path_2461" d="M34.866 54.492a1.621 1.621 0 0 1-1.219-.441 1.759 1.759 0 0 1-.424-1.28v-4.107h-.8a.271.271 0 0 1-.182-.061.234.234 0 0 1-.069-.2v-.467l1.1-.138.268-2.076a.333.333 0 0 1 .086-.164.244.244 0 0 1 .174-.058h.6v2.309h1.937v.856H34.4v4.03a.854.854 0 0 0 .207.631.71.71 0 0 0 .528.208.886.886 0 0 0 .32-.052 1.17 1.17 0 0 0 .233-.113c.069-.043.121-.078.173-.112a.206.206 0 0 1 .121-.052.191.191 0 0 1 .164.112l.346.562a2.239 2.239 0 0 1-.735.45 2.46 2.46 0 0 1-.891.163z" class="cls-2" transform="translate(-1.34 -1.896)"/>
            <path id="Path_2462" d="M43.176 53.536a2.407 2.407 0 0 1-.519.458 3.482 3.482 0 0 1-.649.32 4.184 4.184 0 0 1-.718.19 4.287 4.287 0 0 1-.735.06 3.405 3.405 0 0 1-1.28-.233 2.817 2.817 0 0 1-1.012-.692 3.084 3.084 0 0 1-.666-1.124 4.676 4.676 0 0 1-.242-1.539 3.844 3.844 0 0 1 .216-1.314 2.993 2.993 0 0 1 .623-1.055 2.8 2.8 0 0 1 .986-.7 3.185 3.185 0 0 1 1.314-.251 3.152 3.152 0 0 1 1.116.2 2.6 2.6 0 0 1 .891.579 2.731 2.731 0 0 1 .588.943 3.624 3.624 0 0 1 .216 1.271.736.736 0 0 1-.061.372.252.252 0 0 1-.225.1h-4.48a4.074 4.074 0 0 0 .173 1.107 2.292 2.292 0 0 0 .432.787 1.725 1.725 0 0 0 .666.467 2.3 2.3 0 0 0 .865.156 2.452 2.452 0 0 0 .761-.1 3.846 3.846 0 0 0 .554-.225 3.622 3.622 0 0 0 .389-.225.5.5 0 0 1 .268-.1.253.253 0 0 1 .225.113zm-.951-3.148a2.292 2.292 0 0 0-.112-.752 1.715 1.715 0 0 0-.337-.588 1.481 1.481 0 0 0-.536-.381 1.9 1.9 0 0 0-.718-.138 1.816 1.816 0 0 0-1.34.493 2.31 2.31 0 0 0-.614 1.366z" class="cls-2" transform="translate(-1.556 -1.986)"/>
            <path id="Path_2463" d="M49.7 48.962a.444.444 0 0 1-.1.112.247.247 0 0 1-.147.043.348.348 0 0 1-.216-.086c-.078-.052-.182-.112-.294-.182a2.028 2.028 0 0 0-.432-.182 2.16 2.16 0 0 0-.623-.087 2.127 2.127 0 0 0-.873.173 1.635 1.635 0 0 0-.631.51 2.24 2.24 0 0 0-.381.8 3.962 3.962 0 0 0-.13 1.055A3.729 3.729 0 0 0 46 52.205a2.291 2.291 0 0 0 .4.8 1.687 1.687 0 0 0 .614.493 1.9 1.9 0 0 0 .813.173 2.047 2.047 0 0 0 .709-.1 2.517 2.517 0 0 0 .464-.233c.121-.087.225-.164.3-.225a.374.374 0 0 1 .242-.1.253.253 0 0 1 .225.112l.329.432a2.513 2.513 0 0 1-.493.467 3.044 3.044 0 0 1-.6.32 3.545 3.545 0 0 1-.674.19 3.958 3.958 0 0 1-.718.06 2.9 2.9 0 0 1-1.167-.233 2.591 2.591 0 0 1-.934-.675 3.085 3.085 0 0 1-.623-1.081 4.509 4.509 0 0 1-.225-1.461 4.421 4.421 0 0 1 .208-1.384 3.3 3.3 0 0 1 .605-1.1 2.739 2.739 0 0 1 .986-.718 3.293 3.293 0 0 1 1.349-.259 3.234 3.234 0 0 1 1.245.225 2.9 2.9 0 0 1 .96.649z" class="cls-2" transform="translate(-1.861 -1.987)"/>
            <path id="Path_2464" d="M53.679 54.492a1.621 1.621 0 0 1-1.219-.441 1.759 1.759 0 0 1-.424-1.28v-4.107h-.8a.271.271 0 0 1-.182-.061.234.234 0 0 1-.069-.2v-.467l1.1-.138.268-2.076a.333.333 0 0 1 .086-.164.244.244 0 0 1 .182-.061h.6v2.309h1.937v.856h-1.946v4.03a.854.854 0 0 0 .207.631.71.71 0 0 0 .528.208.887.887 0 0 0 .32-.052 1.17 1.17 0 0 0 .233-.113c.069-.043.121-.078.173-.112a.206.206 0 0 1 .121-.052.191.191 0 0 1 .164.112l.346.562a2.238 2.238 0 0 1-.735.45 2.427 2.427 0 0 1-.89.166z" class="cls-2" transform="translate(-2.124 -1.896)"/>
            <path id="Path_2465" d="M62.111 47.772v6.711h-.7a.3.3 0 0 1-.32-.242l-.1-.718a3.8 3.8 0 0 1-.977.778 2.549 2.549 0 0 1-1.245.294 2.42 2.42 0 0 1-.969-.182 2.015 2.015 0 0 1-.709-.51 2.1 2.1 0 0 1-.424-.8 3.545 3.545 0 0 1-.138-1.038v-4.284h1.176v4.281a1.768 1.768 0 0 0 .346 1.176 1.314 1.314 0 0 0 1.064.415 2.028 2.028 0 0 0 .985-.253 3.239 3.239 0 0 0 .839-.683v-4.936h1.176z" class="cls-2" transform="translate(-2.356 -1.991)"/>
            <path id="Path_2466" d="M65.425 49.117a3.073 3.073 0 0 1 .778-1.072 1.7 1.7 0 0 1 1.133-.389 2.088 2.088 0 0 1 .407.043 1.045 1.045 0 0 1 .346.147l-.089.881a.188.188 0 0 1-.2.164 1.386 1.386 0 0 1-.268-.043 1.894 1.894 0 0 0-.406-.043 1.629 1.629 0 0 0-.562.1 1.311 1.311 0 0 0-.441.277 1.9 1.9 0 0 0-.355.45 4.07 4.07 0 0 0-.285.614v4.237H64.3v-6.715h.674a.368.368 0 0 1 .268.078.423.423 0 0 1 .1.251z" class="cls-2" transform="translate(-2.679 -1.986)"/>
            <path id="Path_2467" d="M69.025 48.718a3.961 3.961 0 0 1 1.2-.8 3.779 3.779 0 0 1 1.427-.268 2.626 2.626 0 0 1 1 .182 1.958 1.958 0 0 1 .735.519 2.209 2.209 0 0 1 .45.8A3.251 3.251 0 0 1 74 50.18v4.289h-.519a.475.475 0 0 1-.268-.06.379.379 0 0 1-.147-.225l-.13-.64a4.592 4.592 0 0 1-.519.432 2.775 2.775 0 0 1-.527.32 2.548 2.548 0 0 1-.6.2 3.433 3.433 0 0 1-.7.069 2.294 2.294 0 0 1-.735-.112 1.542 1.542 0 0 1-.6-.329 1.562 1.562 0 0 1-.406-.553 1.868 1.868 0 0 1-.147-.8 1.432 1.432 0 0 1 .216-.761 1.862 1.862 0 0 1 .709-.649 4.631 4.631 0 0 1 1.28-.467 9.755 9.755 0 0 1 1.937-.208v-.528a1.809 1.809 0 0 0-.337-1.185 1.211 1.211 0 0 0-.986-.4 2.023 2.023 0 0 0-.735.112 2.805 2.805 0 0 0-.51.242c-.147.086-.268.173-.372.242a.572.572 0 0 1-.311.112.345.345 0 0 1-.207-.06.63.63 0 0 1-.147-.156zm3.814 2.741a9.555 9.555 0 0 0-1.384.13 3.929 3.929 0 0 0-.934.268 1.373 1.373 0 0 0-.528.389.869.869 0 0 0-.164.5 1.085 1.085 0 0 0 .086.458.868.868 0 0 0 .234.311 1.055 1.055 0 0 0 .354.182 1.743 1.743 0 0 0 .432.052 2.36 2.36 0 0 0 .571-.061 2.156 2.156 0 0 0 .484-.182 2.733 2.733 0 0 0 .441-.285 3.32 3.32 0 0 0 .406-.38z" class="cls-2" transform="translate(-2.863 -1.985)"/>
            <path id="Path_2468" d="M77.308 44.6v9.755h-1.176V44.6z" class="cls-2" transform="translate(-3.172 -1.858)"/>
            <path id="Path_2469" d="M90.86 49.791v3.641a5.157 5.157 0 0 1-1.522.77 6.314 6.314 0 0 1-3.848-.1 4.528 4.528 0 0 1-1.574-.994 4.324 4.324 0 0 1-1-1.531 5.355 5.355 0 0 1-.354-1.963 5.565 5.565 0 0 1 .337-1.98 4.213 4.213 0 0 1 2.5-2.517 5.5 5.5 0 0 1 2.015-.355 5.691 5.691 0 0 1 1.046.087 4.464 4.464 0 0 1 .891.242 4.168 4.168 0 0 1 .761.381 4.544 4.544 0 0 1 .657.5l-.363.579a.4.4 0 0 1-.225.173.409.409 0 0 1-.3-.06c-.1-.061-.225-.138-.363-.225a3 3 0 0 0-.5-.251 5.108 5.108 0 0 0-.692-.208 4.3 4.3 0 0 0-.951-.086 3.882 3.882 0 0 0-1.453.259 3 3 0 0 0-1.107.752 3.406 3.406 0 0 0-.7 1.176 4.6 4.6 0 0 0-.242 1.557 4.814 4.814 0 0 0 .251 1.6 3.576 3.576 0 0 0 .726 1.2 3.094 3.094 0 0 0 1.15.752 4.21 4.21 0 0 0 1.513.259 4.417 4.417 0 0 0 1.176-.147 5.018 5.018 0 0 0 1-.415V50.8H88.2a.292.292 0 0 1-.2-.069.236.236 0 0 1-.078-.182v-.726h2.938z" class="cls-2" transform="translate(-3.44 -1.865)"/>
            <path id="Path_2470" d="M94.136 44.6v9.755H92.96V44.6z" class="cls-2" transform="translate(-3.873 -1.858)"/>
            <path id="Path_2471" d="M95.989 48.718a3.962 3.962 0 0 1 1.2-.8 3.779 3.779 0 0 1 1.427-.268 2.627 2.627 0 0 1 1 .182 1.96 1.96 0 0 1 .735.519 2.213 2.213 0 0 1 .449.8 3.259 3.259 0 0 1 .156 1.029v4.289h-.519a.478.478 0 0 1-.268-.06.379.379 0 0 1-.147-.225l-.129-.64a4.62 4.62 0 0 1-.519.432 2.778 2.778 0 0 1-.528.32 2.547 2.547 0 0 1-.6.2 3.433 3.433 0 0 1-.7.069 2.3 2.3 0 0 1-.735-.112 1.541 1.541 0 0 1-.6-.329 1.561 1.561 0 0 1-.406-.553 1.868 1.868 0 0 1-.147-.8 1.432 1.432 0 0 1 .216-.761 1.863 1.863 0 0 1 .709-.649 4.631 4.631 0 0 1 1.28-.467 9.757 9.757 0 0 1 1.937-.208v-.528a1.809 1.809 0 0 0-.337-1.185 1.212 1.212 0 0 0-.986-.4 2.022 2.022 0 0 0-.735.112 2.8 2.8 0 0 0-.51.242c-.147.086-.268.173-.372.242a.572.572 0 0 1-.311.112.345.345 0 0 1-.208-.06.632.632 0 0 1-.147-.156zm3.805 2.741a9.556 9.556 0 0 0-1.384.13 3.93 3.93 0 0 0-.934.268 1.374 1.374 0 0 0-.527.389.869.869 0 0 0-.164.5 1.084 1.084 0 0 0 .087.458.868.868 0 0 0 .233.311 1.055 1.055 0 0 0 .355.182 1.743 1.743 0 0 0 .432.052 2.361 2.361 0 0 0 .571-.061 2.157 2.157 0 0 0 .484-.182 2.733 2.733 0 0 0 .441-.285 3.313 3.313 0 0 0 .406-.38z" class="cls-2" transform="translate(-3.986 -1.985)"/>
            <path id="Path_2472" d="M106.937 48.877a.267.267 0 0 1-.242.147.509.509 0 0 1-.224-.069c-.086-.052-.191-.1-.311-.164a3.041 3.041 0 0 0-.432-.164 2 2 0 0 0-.6-.078 1.705 1.705 0 0 0-.536.078 1.387 1.387 0 0 0-.407.208.894.894 0 0 0-.259.311.8.8 0 0 0-.086.381.655.655 0 0 0 .147.432 1.289 1.289 0 0 0 .4.294 3.657 3.657 0 0 0 .554.225c.207.061.424.13.639.208s.433.156.64.242a2.347 2.347 0 0 1 .554.329 1.567 1.567 0 0 1 .4.484 1.437 1.437 0 0 1 .147.692 2.134 2.134 0 0 1-.164.856 1.927 1.927 0 0 1-.494.683 2.294 2.294 0 0 1-.8.45 3.211 3.211 0 0 1-1.09.164 3.5 3.5 0 0 1-1.271-.225 3.261 3.261 0 0 1-.969-.588l.277-.45a.312.312 0 0 1 .129-.13.315.315 0 0 1 .182-.043.454.454 0 0 1 .25.1c.086.061.2.13.32.208a2.273 2.273 0 0 0 .458.208 2.151 2.151 0 0 0 .675.1 1.827 1.827 0 0 0 .606-.087 1.227 1.227 0 0 0 .432-.242.92.92 0 0 0 .251-.354 1.2 1.2 0 0 0 .086-.424.729.729 0 0 0-.147-.458 1.342 1.342 0 0 0-.4-.311 2.82 2.82 0 0 0-.563-.225c-.208-.061-.424-.13-.64-.2a5.788 5.788 0 0 1-.64-.242 2.421 2.421 0 0 1-.562-.337 1.61 1.61 0 0 1-.4-.5 1.688 1.688 0 0 1-.148-.735 1.777 1.777 0 0 1 .623-1.358 2.113 2.113 0 0 1 .752-.424 3.034 3.034 0 0 1 1.012-.156 3.18 3.18 0 0 1 1.184.208 2.71 2.71 0 0 1 .909.571z" class="cls-2" transform="translate(-4.272 -1.987)"/>
            <path id="Path_2473" d="M112.919 48.877a.267.267 0 0 1-.242.147.513.513 0 0 1-.225-.069c-.086-.052-.19-.1-.311-.164a3 3 0 0 0-.432-.164 2 2 0 0 0-.6-.078 1.705 1.705 0 0 0-.536.078 1.382 1.382 0 0 0-.406.208.9.9 0 0 0-.26.311.8.8 0 0 0-.086.381.655.655 0 0 0 .147.432 1.3 1.3 0 0 0 .4.294 3.7 3.7 0 0 0 .554.225c.208.061.424.13.64.208s.432.156.64.242a2.341 2.341 0 0 1 .553.329 1.554 1.554 0 0 1 .4.484 1.438 1.438 0 0 1 .148.692 2.134 2.134 0 0 1-.165.856 1.925 1.925 0 0 1-.493.683 2.312 2.312 0 0 1-.8.45 3.211 3.211 0 0 1-1.09.164 3.5 3.5 0 0 1-1.272-.225 3.261 3.261 0 0 1-.969-.588l.277-.45a.312.312 0 0 1 .129-.13.319.319 0 0 1 .182-.043.459.459 0 0 1 .251.1c.086.061.2.13.32.208a2.249 2.249 0 0 0 .458.208 2.143 2.143 0 0 0 .675.1 1.821 1.821 0 0 0 .6-.087 1.232 1.232 0 0 0 .433-.242.918.918 0 0 0 .25-.354 1.161 1.161 0 0 0 .086-.424.729.729 0 0 0-.147-.458 1.329 1.329 0 0 0-.4-.311 2.8 2.8 0 0 0-.563-.225c-.207-.061-.424-.13-.639-.2a5.646 5.646 0 0 1-.64-.242 2.428 2.428 0 0 1-.563-.337 1.624 1.624 0 0 1-.4-.5 1.689 1.689 0 0 1-.147-.735 1.769 1.769 0 0 1 .623-1.358 2.182 2.182 0 0 1 .752-.424 3.025 3.025 0 0 1 1.011-.156 3.182 3.182 0 0 1 1.185.208 2.706 2.706 0 0 1 .908.571z" class="cls-2" transform="translate(-4.522 -1.987)"/>
        </g>
    </g>
</svg>
