# Blender v2.93.5 OBJ File: ''
# www.blender.org
mtllib ADS Outside Pull Handle.mtl
o ADS_Outside_Pull_Handle.002
v 9.067993 363.557587 75.000023
v 1.124756 360.217346 75.000023
v 1.124756 388.111023 75.000023
v 15.539551 371.434753 75.000023
v 14.285645 368.642761 75.000023
v 15.539551 376.893616 75.000023
v 9.067993 384.770782 75.000023
v -7.500000 359.164185 75.000023
v -16.124756 360.217346 75.000023
v -24.067993 363.557587 75.000023
v -24.067993 384.770782 75.000023
v -30.539551 371.434753 75.000023
v -29.285645 379.685608 75.000023
v -29.285645 368.642761 75.000023
v -7.500000 389.164185 75.000023
v 15.930786 374.164185 75.000023
v 14.285645 379.685608 75.000023
v -16.124756 388.111023 75.000023
v -30.539551 376.893616 75.000023
v -30.930786 374.164185 75.000023
v 1.124756 388.111023 75.000023
v -7.500000 389.164185 75.000023
v -97.500000 389.164185 150.000031
v -93.037354 387.445984 155.355133
v -89.597046 382.685120 159.483551
v 9.067993 384.770782 75.000023
v -87.967285 375.972229 161.439362
v 14.285645 379.685608 75.000023
v -91.132202 362.936523 157.641373
v 9.067993 363.557587 75.000023
v -88.521240 368.845093 160.774551
v 15.539551 371.434753 75.000023
v -95.201904 359.600037 152.757706
v 1.124756 360.217346 75.000023
v 15.539551 376.893616 75.000023
v 14.285645 368.642761 75.000023
v 15.930786 374.164185 75.000023
v -7.500000 359.164185 75.000023
v -103.867798 362.936523 142.358658
v -16.124756 360.217346 75.000023
v -99.798096 359.600037 147.242325
v -24.067993 363.557587 75.000023
v -106.478760 368.845123 139.225479
v -107.032715 375.972229 138.560699
v -30.539551 371.434753 75.000023
v -29.285645 368.642761 75.000023
v -30.539551 376.893616 75.000023
v -30.930786 374.164185 75.000023
v -105.402954 382.685120 140.516510
v -101.962646 387.445984 144.644928
v -24.067993 384.770782 75.000023
v -29.285645 379.685608 75.000023
v -97.500000 389.164185 150.000031
v -16.124756 388.111023 75.000023
v -7.500000 389.164185 75.000023
v -103.867798 362.936523 142.358658
v -99.798096 359.600037 147.242325
v -101.962646 387.445984 144.644928
v -97.500000 389.164185 150.000031
v -95.201904 359.600037 152.757706
v -88.521240 368.845093 160.774551
v -89.597046 382.685120 159.483551
v -91.132202 362.936523 157.641373
v -93.037354 387.445984 155.355133
v -105.402954 382.685120 140.516510
v -106.478760 368.845123 139.225479
v -87.967285 375.972229 161.439362
v -107.032715 375.972229 138.560699
v -97.500000 -507.000000 134.999954
v -104.470825 -507.000000 136.718094
v -104.470825 493.000000 136.718170
v -97.500000 493.000000 135.000031
v -109.844727 -507.000000 141.478958
v -109.844727 493.000000 141.479034
v -112.390625 -507.000000 148.191849
v -111.525269 -507.000000 155.319046
v -111.525269 493.000000 155.319122
v -112.390625 493.000000 148.191925
v -107.446899 -507.000000 161.227615
v -101.089722 -507.000000 164.564041
v -101.089722 493.000000 164.564117
v -107.446899 493.000000 161.227692
v -93.910278 493.000000 164.564117
v -93.910278 -507.000000 164.564041
v -87.553101 -507.000000 161.227615
v -87.553101 493.000000 161.227692
v -83.474731 -507.000000 155.319046
v -83.474731 493.000000 155.319122
v -82.609375 -507.000000 148.191849
v -85.155273 -507.000000 141.478958
v -85.155273 493.000000 141.479034
v -82.609375 493.000000 148.191925
v -90.529175 -507.000000 136.718094
v -97.500000 -507.000000 134.999954
v -97.500000 493.000000 135.000031
v -90.529175 493.000000 136.718170
v -85.155273 493.000000 141.479034
v -83.474731 493.000000 155.319122
v -82.609375 493.000000 148.191925
v -111.525269 493.000000 155.319122
v -87.553101 493.000000 161.227692
v -107.446899 493.000000 161.227692
v -93.910278 493.000000 164.564117
v -104.470825 493.000000 136.718170
v -90.529175 493.000000 136.718170
v -109.844727 493.000000 141.479034
v -101.089722 493.000000 164.564117
v -112.390625 493.000000 148.191925
v -97.500000 493.000000 135.000031
v -85.155273 -507.000000 141.478958
v -82.609375 -507.000000 148.191849
v -83.474731 -507.000000 155.319046
v -87.553101 -507.000000 161.227615
v -109.844727 -507.000000 141.478958
v -101.089722 -507.000000 164.564041
v -93.910278 -507.000000 164.564041
v -90.529175 -507.000000 136.718094
v -104.470825 -507.000000 136.718094
v -111.525269 -507.000000 155.319046
v -107.446899 -507.000000 161.227615
v -112.390625 -507.000000 148.191849
v -97.500000 -507.000000 134.999954
v 9.067993 -386.811523 74.999977
v 1.124756 -390.151733 74.999977
v 1.124756 -362.258057 74.999977
v 15.539551 -378.934326 74.999977
v 14.285645 -381.726318 74.999977
v 15.539551 -373.475464 74.999977
v 14.285645 -370.683472 74.999977
v -7.500000 -361.204895 74.999977
v -7.500000 -391.204895 74.999977
v -16.124756 -390.151733 74.999977
v -24.067993 -386.811523 74.999977
v -16.124756 -362.258057 74.999977
v -30.539551 -378.934326 74.999977
v -30.539551 -373.475464 74.999977
v -29.285645 -381.726318 74.999977
v -29.285645 -370.683472 74.999977
v 15.930786 -376.204895 74.999977
v 9.067993 -365.598267 74.999977
v -30.930786 -376.204895 74.999977
v -24.067993 -365.598267 74.999977
v 1.124756 -362.258057 74.999977
v -7.500000 -361.204895 74.999977
v -97.500000 -361.204895 149.999985
v -93.037354 -362.923035 155.355087
v -89.597046 -367.683899 159.483505
v 9.067993 -365.598267 74.999977
v -87.967285 -374.396851 161.439316
v 14.285645 -370.683472 74.999977
v -91.132202 -387.432556 157.641327
v 9.067993 -386.811523 74.999977
v -88.521240 -381.523987 160.774506
v 15.539551 -378.934326 74.999977
v -95.201904 -390.769043 152.757660
v 1.124756 -390.151733 74.999977
v 15.539551 -373.475464 74.999977
v 14.285645 -381.726318 74.999977
v 15.930786 -376.204895 74.999977
v -7.500000 -391.204895 74.999977
v -103.867798 -387.432556 142.358612
v -16.124756 -390.151733 74.999977
v -99.798096 -390.769043 147.242279
v -24.067993 -386.811523 74.999977
v -106.478760 -381.523987 139.225433
v -107.032715 -374.396851 138.560654
v -30.539551 -378.934326 74.999977
v -30.930786 -376.204895 74.999977
v -29.285645 -370.683472 74.999977
v -30.539551 -373.475464 74.999977
v -105.402954 -367.683899 140.516464
v -101.962646 -362.923035 144.644882
v -24.067993 -365.598267 74.999977
v -97.500000 -361.204895 149.999985
v -16.124756 -362.258057 74.999977
v -29.285645 -381.726318 74.999977
v -7.500000 -361.204895 74.999977
v -103.867798 -387.432556 142.358612
v -99.798096 -390.769043 147.242279
v -101.962646 -362.923035 144.644882
v -97.500000 -361.204895 149.999985
v -95.201904 -390.769043 152.757660
v -88.521240 -381.523987 160.774506
v -89.597046 -367.683899 159.483505
v -91.132202 -387.432556 157.641327
v -93.037354 -362.923035 155.355087
v -105.402954 -367.683899 140.516464
v -106.478760 -381.523987 139.225433
v -87.967285 -374.396851 161.439316
v -107.032715 -374.396851 138.560654
vt 0.414281 0.013745
vt 0.407601 0.029631
vt 0.463386 0.029631
vt 0.430035 0.000802
vt 0.424451 0.003310
vt 0.440952 0.000802
vt 0.456706 0.013745
vt 0.405495 0.046880
vt 0.407601 0.064128
vt 0.414281 0.080014
vt 0.456706 0.080014
vt 0.430035 0.092957
vt 0.446536 0.090449
vt 0.424451 0.090449
vt 0.465493 0.046880
vt 0.435494 0.000020
vt 0.446536 0.003310
vt 0.463386 0.064128
vt 0.440952 0.092957
vt 0.435494 0.093739
vt 0.292961 0.344859
vt 0.306140 0.333624
vt 0.539169 0.333624
vt 0.539169 0.348030
vt 0.539169 0.362435
vt 0.280823 0.357033
vt 0.539169 0.376841
vt 0.272850 0.369207
vt 0.539169 0.405652
vt 0.280823 0.403852
vt 0.539169 0.391247
vt 0.270934 0.385896
vt 0.539169 0.420058
vt 0.292961 0.416025
vt 0.270934 0.374988
vt 0.272850 0.391678
vt 0.270337 0.380442
vt 0.306140 0.427261
vt 0.539169 0.448869
vt 0.319319 0.438496
vt 0.539169 0.434464
vt 0.331457 0.450670
vt 0.539169 0.463275
vt 0.539169 0.477681
vt 0.341346 0.468625
vt 0.339430 0.462844
vt 0.341346 0.479533
vt 0.341944 0.474079
vt 0.539169 0.492086
vt 0.539169 0.506492
vt 0.331457 0.497488
vt 0.339430 0.485315
vt 0.539169 0.520897
vt 0.319319 0.509662
vt 0.306140 0.520897
vt 0.185070 0.200235
vt 0.172356 0.193562
vt 0.179118 0.249252
vt 0.165177 0.252688
vt 0.157998 0.193562
vt 0.137128 0.212052
vt 0.140489 0.239731
vt 0.145284 0.200235
vt 0.151236 0.249252
vt 0.189866 0.239731
vt 0.193227 0.212052
vt 0.135397 0.226305
vt 0.194957 0.226305
vt 0.540633 0.000020
vt 0.554926 0.000020
vt 0.554926 0.998515
vt 0.540633 0.998515
vt 0.569219 0.000020
vt 0.569219 0.998515
vt 0.583512 0.000020
vt 0.597805 0.000020
vt 0.597805 0.998515
vt 0.583512 0.998515
vt 0.612098 0.000020
vt 0.626391 0.000020
vt 0.626391 0.998515
vt 0.612098 0.998515
vt 0.640684 0.998515
vt 0.640684 0.000020
vt 0.654977 0.000020
vt 0.654977 0.998515
vt 0.669270 0.000020
vt 0.669270 0.998515
vt 0.683563 0.000020
vt 0.697856 0.000020
vt 0.697856 0.998515
vt 0.683563 0.998515
vt 0.712149 0.000020
vt 0.726442 0.000020
vt 0.726442 0.998515
vt 0.712149 0.998515
vt 0.005330 0.012978
vt 0.001969 0.040657
vt 0.000239 0.026403
vt 0.058068 0.040657
vt 0.010126 0.052473
vt 0.049912 0.052473
vt 0.022840 0.059146
vt 0.043960 0.003456
vt 0.016078 0.003456
vt 0.054707 0.012978
vt 0.037198 0.059146
vt 0.059799 0.026403
vt 0.030019 0.000020
vt 0.005330 0.206540
vt 0.000239 0.219965
vt 0.001969 0.234219
vt 0.010126 0.246035
vt 0.054707 0.206540
vt 0.037198 0.252708
vt 0.022840 0.252708
vt 0.016078 0.197018
vt 0.043960 0.197018
vt 0.058068 0.234219
vt 0.049912 0.246035
vt 0.059799 0.219965
vt 0.030019 0.193582
vt 0.279123 0.013745
vt 0.272443 0.029631
vt 0.328228 0.029631
vt 0.294877 0.000802
vt 0.289293 0.003310
vt 0.305794 0.000802
vt 0.311378 0.003310
vt 0.330334 0.046880
vt 0.270337 0.046880
vt 0.272443 0.064128
vt 0.279123 0.080014
vt 0.328228 0.064128
vt 0.294877 0.092957
vt 0.305794 0.092957
vt 0.289293 0.090449
vt 0.311378 0.090449
vt 0.300335 0.000020
vt 0.321548 0.013745
vt 0.300335 0.093739
vt 0.321548 0.080014
vt 0.022644 0.398360
vt 0.035823 0.387125
vt 0.268852 0.387125
vt 0.268852 0.401530
vt 0.268852 0.415936
vt 0.010506 0.410534
vt 0.268852 0.430341
vt 0.002534 0.422707
vt 0.268852 0.459153
vt 0.010506 0.457352
vt 0.268852 0.444747
vt 0.000618 0.439397
vt 0.268852 0.473558
vt 0.022644 0.469526
vt 0.000618 0.428489
vt 0.002534 0.445178
vt 0.000020 0.433943
vt 0.035823 0.480761
vt 0.268852 0.502370
vt 0.049002 0.491997
vt 0.268852 0.487964
vt 0.061140 0.504170
vt 0.268852 0.516775
vt 0.268852 0.531181
vt 0.071029 0.522126
vt 0.071627 0.527580
vt 0.069113 0.538815
vt 0.071029 0.533033
vt 0.268852 0.545587
vt 0.268852 0.559992
vt 0.061140 0.550989
vt 0.268852 0.574398
vt 0.049002 0.563163
vt 0.069113 0.516344
vt 0.035823 0.574398
vt 0.185070 0.006673
vt 0.172356 0.000000
vt 0.179118 0.055690
vt 0.165177 0.059126
vt 0.157998 0.000000
vt 0.137128 0.018489
vt 0.140489 0.046168
vt 0.145284 0.006673
vt 0.151236 0.055690
vt 0.189866 0.046168
vt 0.193227 0.018489
vt 0.135397 0.032743
vt 0.194957 0.032743
vn -0.0000 0.0000 -1.0000
vn 0.2356 0.9298 0.2828
vn -0.0000 1.0000 -0.0000
vn 0.2975 0.8855 0.3570
vn 0.5269 0.5681 0.6322
vn 0.4527 0.7071 0.5432
vn 0.6355 0.1205 0.7626
vn 0.5952 0.3681 0.7143
vn 0.4245 -0.7485 0.5094
vn 0.4527 -0.7071 0.5432
vn 0.5986 -0.3546 0.7183
vn 0.6295 -0.1820 0.7554
vn 0.1532 -0.9709 0.1839
vn 0.2356 -0.9298 0.2828
vn 0.6295 0.1820 0.7554
vn 0.5952 -0.3681 0.7143
vn 0.6402 0.0000 0.7682
vn 0.0000 -1.0000 0.0000
vn -0.4245 -0.7485 -0.5094
vn -0.2356 -0.9298 -0.2828
vn -0.1532 -0.9709 -0.1838
vn -0.4527 -0.7071 -0.5432
vn -0.5986 -0.3546 -0.7183
vn -0.6355 0.1205 -0.7626
vn -0.6295 -0.1820 -0.7554
vn -0.5952 -0.3681 -0.7143
vn -0.6295 0.1820 -0.7554
vn -0.6402 0.0000 -0.7682
vn -0.5268 0.5681 -0.6323
vn -0.2975 0.8855 -0.3570
vn -0.4527 0.7071 -0.5432
vn -0.5952 0.3681 -0.7143
vn -0.2357 0.9298 -0.2828
vn -0.7682 -0.0000 0.6402
vn -0.4647 0.0000 -0.8855
vn -0.8230 0.0000 -0.5681
vn -0.9927 0.0000 -0.1205
vn -0.9350 -0.0000 0.3546
vn -0.6631 -0.0000 0.7485
vn -0.2393 -0.0000 0.9709
vn 0.2393 -0.0000 0.9709
vn 0.6631 -0.0000 0.7485
vn 0.9350 -0.0000 0.3546
vn 0.9927 0.0000 -0.1205
vn 0.8230 0.0000 -0.5681
vn 0.4647 0.0000 -0.8855
vn 0.2357 0.9298 0.2828
usemtl diffuse_0
s 1
f 1/1/1 2/2/1 3/3/1
f 4/4/1 5/5/1 6/6/1
f 7/7/1 5/5/1 1/1/1
f 3/3/1 2/2/1 8/8/1
f 9/9/1 10/10/1 11/11/1
f 12/12/1 13/13/1 14/14/1
f 14/14/1 13/13/1 10/10/1
f 8/8/1 9/9/1 15/15/1
f 16/16/1 4/4/1 6/6/1
f 5/5/1 7/7/1 17/17/1
f 3/3/1 8/8/1 15/15/1
f 3/3/1 7/7/1 1/1/1
f 15/15/1 9/9/1 18/18/1
f 19/19/1 12/12/1 20/20/1
f 12/12/1 19/19/1 13/13/1
f 13/13/1 11/11/1 10/10/1
f 9/9/1 11/11/1 18/18/1
f 6/6/1 5/5/1 17/17/1
f 21/21/2 22/22/3 23/23/3
f 24/24/4 25/25/5 26/26/6
f 21/21/2 23/23/3 24/24/4
f 27/27/7 28/28/8 25/25/5
f 29/29/9 30/30/10 31/31/11
f 31/31/11 32/32/12 27/27/7
f 33/33/13 34/34/14 29/29/9
f 25/25/5 28/28/8 26/26/6
f 27/27/7 35/35/15 28/28/8
f 26/26/6 21/21/2 24/24/4
f 36/36/16 32/32/12 31/31/11
f 35/35/15 27/27/7 37/37/17
f 27/27/7 32/32/12 37/37/17
f 31/31/11 30/30/10 36/36/16
f 30/30/10 29/29/9 34/34/14
f 34/34/14 33/33/13 38/38/18
f 39/39/19 40/40/20 41/41/21
f 42/42/22 39/39/19 43/43/23
f 44/44/24 45/45/25 43/43/23
f 43/43/23 45/45/25 46/46/26
f 47/47/27 48/48/28 44/44/24
f 49/49/29 50/50/30 51/51/31
f 52/52/32 44/44/24 49/49/29
f 53/53/3 54/54/33 50/50/30
f 45/45/25 44/44/24 48/48/28
f 43/43/23 46/46/26 42/42/22
f 41/41/21 40/40/20 38/38/18
f 39/39/19 42/42/22 40/40/20
f 44/44/24 52/52/32 47/47/27
f 50/50/30 54/54/33 51/51/31
f 53/53/3 55/55/3 54/54/33
f 51/51/31 52/52/32 49/49/29
f 33/33/13 41/41/21 38/38/18
f 56/56/34 57/57/34 58/58/34
f 59/59/34 57/57/34 60/60/34
f 61/61/34 62/62/34 63/63/34
f 63/63/34 64/64/34 60/60/34
f 56/56/34 65/65/34 66/66/34
f 56/56/34 58/58/34 65/65/34
f 57/57/34 59/59/34 58/58/34
f 62/62/34 61/61/34 67/67/34
f 64/64/34 63/63/34 62/62/34
f 60/60/34 64/64/34 59/59/34
f 66/66/34 65/65/34 68/68/34
f 69/69/1 70/70/35 71/71/35 72/72/1
f 70/70/35 73/73/36 74/74/36 71/71/35
f 75/75/37 76/76/38 77/77/38 78/78/37
f 79/79/39 80/80/40 81/81/40 82/82/39
f 76/76/38 79/79/39 82/82/39 77/77/38
f 73/73/36 75/75/37 78/78/37 74/74/36
f 83/83/41 81/81/40 80/80/40 84/84/41
f 84/84/41 85/85/42 86/86/42 83/83/41
f 85/85/42 87/87/43 88/88/43 86/86/42
f 89/89/44 90/90/45 91/91/45 92/92/44
f 93/93/46 94/94/1 95/95/1 96/96/46
f 90/90/45 93/93/46 96/96/46 91/91/45
f 87/87/43 89/89/44 92/92/44 88/88/43
f 97/97/3 98/98/3 99/99/3
f 100/100/3 98/98/3 97/97/3
f 101/101/3 98/98/3 100/100/3
f 102/102/3 103/103/3 101/101/3
f 104/104/3 97/97/3 105/105/3
f 97/97/3 104/104/3 106/106/3
f 100/100/3 97/97/3 106/106/3
f 107/107/3 103/103/3 102/102/3
f 102/102/3 101/101/3 100/100/3
f 100/100/3 106/106/3 108/108/3
f 105/105/3 109/109/3 104/104/3
f 110/110/18 111/111/18 112/112/18
f 110/110/18 113/113/18 114/114/18
f 112/112/18 113/113/18 110/110/18
f 115/115/18 113/113/18 116/116/18
f 117/117/18 110/110/18 114/114/18
f 117/117/18 114/114/18 118/118/18
f 119/119/18 114/114/18 113/113/18
f 115/115/18 120/120/18 113/113/18
f 120/120/18 119/119/18 113/113/18
f 119/119/18 121/121/18 114/114/18
f 118/118/18 122/122/18 117/117/18
f 123/123/1 124/124/1 125/125/1
f 126/126/1 127/127/1 128/128/1
f 129/129/1 127/127/1 123/123/1
f 130/130/1 124/124/1 131/131/1
f 132/132/1 133/133/1 134/134/1
f 135/135/1 136/136/1 137/137/1
f 137/137/1 138/138/1 133/133/1
f 131/131/1 132/132/1 130/130/1
f 139/139/1 126/126/1 128/128/1
f 123/123/1 140/140/1 129/129/1
f 125/125/1 124/124/1 130/130/1
f 125/125/1 140/140/1 123/123/1
f 130/130/1 132/132/1 134/134/1
f 136/136/1 135/135/1 141/141/1
f 137/137/1 136/136/1 138/138/1
f 138/138/1 142/142/1 133/133/1
f 133/133/1 142/142/1 134/134/1
f 128/128/1 127/127/1 129/129/1
f 143/143/47 144/144/3 145/145/3
f 146/146/4 147/147/5 148/148/6
f 143/143/47 145/145/3 146/146/4
f 149/149/7 150/150/8 147/147/5
f 151/151/9 152/152/10 153/153/11
f 153/153/11 154/154/12 149/149/7
f 155/155/13 156/156/14 151/151/9
f 147/147/5 150/150/8 148/148/6
f 149/149/7 157/157/15 150/150/8
f 148/148/6 143/143/47 146/146/4
f 154/154/12 153/153/11 158/158/16
f 157/157/15 149/149/7 159/159/17
f 154/154/12 159/159/17 149/149/7
f 153/153/11 152/152/10 158/158/16
f 151/151/9 156/156/14 152/152/10
f 156/156/14 155/155/13 160/160/18
f 161/161/19 162/162/20 163/163/21
f 164/164/22 161/161/19 165/165/23
f 165/165/23 166/166/24 167/167/25
f 167/167/25 166/166/24 168/168/28
f 169/169/32 170/170/27 166/166/24
f 171/171/29 172/172/30 173/173/31
f 169/169/32 166/166/24 171/171/29
f 174/174/3 175/175/33 172/172/30
f 168/168/28 166/166/24 170/170/27
f 165/165/23 176/176/26 164/164/22
f 163/163/21 162/162/20 160/160/18
f 161/161/19 164/164/22 162/162/20
f 172/172/30 175/175/33 173/173/31
f 174/174/3 177/177/3 175/175/33
f 173/173/31 169/169/32 171/171/29
f 167/167/25 176/176/26 165/165/23
f 155/155/13 163/163/21 160/160/18
f 178/178/34 179/179/34 180/180/34
f 181/181/34 179/179/34 182/182/34
f 183/183/34 184/184/34 185/185/34
f 185/185/34 186/186/34 182/182/34
f 178/178/34 187/187/34 188/188/34
f 178/178/34 180/180/34 187/187/34
f 179/179/34 181/181/34 180/180/34
f 184/184/34 183/183/34 189/189/34
f 186/186/34 185/185/34 184/184/34
f 182/182/34 186/186/34 181/181/34
f 188/188/34 187/187/34 190/190/34
