<svg xmlns="http://www.w3.org/2000/svg" width="240" height="80" viewBox="0 0 240 80">
  <defs>
    <style>
      .cls-1 {
        fill: #00a2d1;
      }

      .cls-2, .cls-3, .cls-4, .cls-7 {
        fill: none;
      }

      .cls-2, .cls-4 {
        stroke: #fff;
      }

      .cls-2, .cls-3 {
        stroke-width: 2px;
      }

      .cls-3 {
        stroke: #00a2d1;
        stroke-linecap: round;
      }

      .cls-4 {
        stroke-width: 3px;
      }

      .cls-5 {
        fill: #fff;
      }

      .cls-6 {
        stroke: none;
      }
    </style>
  </defs>
  <g id="sps_static_icon_Truckload_color" transform="translate(-350 -360)">
    <path id="Rectangle_3226" data-name="Rectangle 3226" class="cls-1" d="M2.069,0h0A9.931,9.931,0,0,1,12,9.931v1A2.069,2.069,0,0,1,9.931,13H2.069A2.069,2.069,0,0,1,0,10.931V2.069A2.069,2.069,0,0,1,2.069,0Z" transform="translate(540 365)"/>
    <g id="Group_7028" data-name="Group 7028" transform="translate(-440 15)">
      <g id="Rectangle_3154" data-name="Rectangle 3154" class="cls-2" transform="translate(885 345)">
        <rect class="cls-6" width="80" height="35" rx="5"/>
        <rect class="cls-7" x="1" y="1" width="78" height="33" rx="4"/>
      </g>
      <g id="Rectangle_3155" data-name="Rectangle 3155" class="cls-2" transform="translate(970 345)">
        <path class="cls-6" d="M5,0H6A24,24,0,0,1,30,24v6a5,5,0,0,1-5,5H5a5,5,0,0,1-5-5V5A5,5,0,0,1,5,0Z"/>
        <path class="cls-7" d="M5,1H6A23,23,0,0,1,29,24v6a4,4,0,0,1-4,4H5a4,4,0,0,1-4-4V5A4,4,0,0,1,5,1Z"/>
      </g>
      <g id="Rectangle_3156" data-name="Rectangle 3156" class="cls-2" transform="translate(970 382)">
        <rect class="cls-6" width="10" height="10" rx="5"/>
        <rect class="cls-7" x="1" y="1" width="8" height="8" rx="4"/>
      </g>
      <g id="Rectangle_3159" data-name="Rectangle 3159" class="cls-2" transform="translate(940 382)">
        <rect class="cls-6" width="10" height="10" rx="5"/>
        <rect class="cls-7" x="1" y="1" width="8" height="8" rx="4"/>
      </g>
      <g id="Rectangle_3160" data-name="Rectangle 3160" class="cls-2" transform="translate(885 382)">
        <rect class="cls-6" width="10" height="10" rx="5"/>
        <rect class="cls-7" x="1" y="1" width="8" height="8" rx="4"/>
      </g>
      <g id="Rectangle_3157" data-name="Rectangle 3157" class="cls-2" transform="translate(990 382)">
        <rect class="cls-6" width="10" height="10" rx="5"/>
        <rect class="cls-7" x="1" y="1" width="8" height="8" rx="4"/>
      </g>
      <g id="Rectangle_3158" data-name="Rectangle 3158" class="cls-2" transform="translate(955 382)">
        <rect class="cls-6" width="10" height="10" rx="5"/>
        <rect class="cls-7" x="1" y="1" width="8" height="8" rx="4"/>
      </g>
      <path id="Path_2418" data-name="Path 2418" class="cls-3" d="M6979,13680h-30" transform="translate(-6104 -13305)"/>
      <path id="Path_2419" data-name="Path 2419" class="cls-3" d="M6994,13680h-45" transform="translate(-6119 -13315)"/>
      <path id="Path_2420" data-name="Path 2420" class="cls-3" d="M7009,13680h-60" transform="translate(-6134 -13325)"/>
    </g>
    <g id="Group_7029" data-name="Group 7029" transform="translate(-435 145)">
      <path id="Path_2421" data-name="Path 2421" class="cls-4" d="M6899,13590h220" transform="translate(-6104 -13305)"/>
      <circle id="Ellipse_602" data-name="Ellipse 602" class="cls-5" cx="10" cy="10" r="10" transform="translate(785 275)"/>
      <circle id="Ellipse_603" data-name="Ellipse 603" class="cls-5" cx="10" cy="10" r="10" transform="translate(1005 275)"/>
    </g>
  </g>
</svg>
