<?xml version="1.0" encoding="UTF-8" standalone="no"?>
<!DOCTYPE svg PUBLIC "-//W3C//DTD SVG 1.1//EN"
 "http://www.w3.org/Graphics/SVG/1.1/DTD/svg11.dtd">
<!-- Generated by graphviz version 3.0.0 (20220226.1711)
 -->
<!-- Title: dependencies Pages: 1 -->
<svg width="895pt" height="247pt"
 viewBox="0.00 0.00 895.00 246.80" xmlns="http://www.w3.org/2000/svg" xmlns:xlink="http://www.w3.org/1999/xlink">
<g id="graph0" class="graph" transform="scale(1 1) rotate(0) translate(4 242.8)">
<title>dependencies</title>
<polygon fill="white" stroke="transparent" points="-4,4 -4,-242.8 891,-242.8 891,4 -4,4"/>
<text text-anchor="middle" x="443.5" y="-8.2" font-family="sans-serif" font-size="14.00">dependencies</text>
<g id="clust1" class="cluster">
<title>cluster_AppModule</title>
<polygon fill="none" stroke="black" stroke-dasharray="1,5" points="8,-32.8 8,-230.8 879,-230.8 879,-32.8 8,-32.8"/>
</g>
<g id="clust2" class="cluster">
<title>cluster_AppModule_declarations</title>
<polygon fill="none" stroke="black" points="749,-40.8 749,-92.8 871,-92.8 871,-40.8 749,-40.8"/>
</g>
<g id="clust4" class="cluster">
<title>cluster_AppModule_imports</title>
<polygon fill="none" stroke="black" points="16,-40.8 16,-92.8 741,-92.8 741,-40.8 16,-40.8"/>
</g>
<g id="clust6" class="cluster">
<title>cluster_AppModule_bootstrap</title>
<polygon fill="none" stroke="black" points="394,-170.8 394,-222.8 518,-222.8 518,-170.8 394,-170.8"/>
</g>
<!-- AppComponent -->
<g id="node1" class="node">
<title>AppComponent</title>
<polygon fill="#ffffb3" stroke="black" points="862.94,-84.8 757.06,-84.8 757.06,-48.8 862.94,-48.8 862.94,-84.8"/>
<text text-anchor="middle" x="810" y="-62.6" font-family="Times,serif" font-size="14.00">AppComponent</text>
</g>
<!-- AppModule -->
<g id="node2" class="node">
<title>AppModule</title>
<polygon fill="#8dd3c7" stroke="black" points="497.66,-149.8 494.66,-153.8 473.66,-153.8 470.66,-149.8 414.34,-149.8 414.34,-113.8 497.66,-113.8 497.66,-149.8"/>
<text text-anchor="middle" x="456" y="-127.6" font-family="Times,serif" font-size="14.00">AppModule</text>
</g>
<!-- AppComponent&#45;&gt;AppModule -->
<g id="edge1" class="edge">
<title>AppComponent&#45;&gt;AppModule</title>
<path fill="none" stroke="black" d="M810,-85.08C810,-106.12 810,-137.8 810,-137.8 810,-137.8 508,-137.8 508,-137.8"/>
<polygon fill="black" stroke="black" points="508,-134.3 498,-137.8 508,-141.3 508,-134.3"/>
</g>
<!-- AppComponent  -->
<g id="node8" class="node">
<title>AppComponent </title>
<polygon fill="#80b1d3" stroke="black" points="510.44,-214.8 401.56,-214.8 401.56,-178.8 510.44,-178.8 510.44,-214.8"/>
<text text-anchor="middle" x="456" y="-192.6" font-family="Times,serif" font-size="14.00">AppComponent </text>
</g>
<!-- AppModule&#45;&gt;AppComponent  -->
<g id="edge7" class="edge">
<title>AppModule&#45;&gt;AppComponent </title>
<path fill="none" stroke="black" stroke-dasharray="1,5" d="M456,-149.91C456,-149.91 456,-168.79 456,-168.79"/>
<polygon fill="black" stroke="black" points="452.5,-168.79 456,-178.79 459.5,-168.79 452.5,-168.79"/>
</g>
<!-- AppCommonModule -->
<g id="node3" class="node">
<title>AppCommonModule</title>
<polygon fill="#8dd3c7" stroke="black" points="732.78,-84.8 729.78,-88.8 708.78,-88.8 705.78,-84.8 597.22,-84.8 597.22,-48.8 732.78,-48.8 732.78,-84.8"/>
<text text-anchor="middle" x="665" y="-62.6" font-family="Times,serif" font-size="14.00">AppCommonModule</text>
</g>
<!-- AppCommonModule&#45;&gt;AppModule -->
<g id="edge2" class="edge">
<title>AppCommonModule&#45;&gt;AppModule</title>
<path fill="none" stroke="black" d="M665,-84.82C665,-102.17 665,-125.8 665,-125.8 665,-125.8 507.79,-125.8 507.79,-125.8"/>
<polygon fill="black" stroke="black" points="507.79,-122.3 497.79,-125.8 507.79,-129.3 507.79,-122.3"/>
</g>
<!-- AppCoreModule -->
<g id="node4" class="node">
<title>AppCoreModule</title>
<polygon fill="#8dd3c7" stroke="black" points="579.38,-84.8 576.38,-88.8 555.38,-88.8 552.38,-84.8 468.62,-84.8 468.62,-48.8 579.38,-48.8 579.38,-84.8"/>
<text text-anchor="middle" x="524" y="-62.6" font-family="Times,serif" font-size="14.00">AppCoreModule</text>
</g>
<!-- AppCoreModule&#45;&gt;AppModule -->
<g id="edge3" class="edge">
<title>AppCoreModule&#45;&gt;AppModule</title>
<path fill="none" stroke="black" d="M483.2,-84.91C483.2,-84.91 483.2,-103.79 483.2,-103.79"/>
<polygon fill="black" stroke="black" points="479.7,-103.79 483.2,-113.79 486.7,-103.79 479.7,-103.79"/>
</g>
<!-- AppLayoutModule -->
<g id="node5" class="node">
<title>AppLayoutModule</title>
<polygon fill="#8dd3c7" stroke="black" points="450.82,-84.8 447.82,-88.8 426.82,-88.8 423.82,-84.8 327.18,-84.8 327.18,-48.8 450.82,-48.8 450.82,-84.8"/>
<text text-anchor="middle" x="389" y="-62.6" font-family="Times,serif" font-size="14.00">AppLayoutModule</text>
</g>
<!-- AppLayoutModule&#45;&gt;AppModule -->
<g id="edge4" class="edge">
<title>AppLayoutModule&#45;&gt;AppModule</title>
<path fill="none" stroke="black" d="M432.41,-84.91C432.41,-84.91 432.41,-103.79 432.41,-103.79"/>
<polygon fill="black" stroke="black" points="428.91,-103.79 432.41,-113.79 435.91,-103.79 428.91,-103.79"/>
</g>
<!-- AppRoutingModule -->
<g id="node6" class="node">
<title>AppRoutingModule</title>
<polygon fill="#8dd3c7" stroke="black" points="309.28,-84.8 306.28,-88.8 285.28,-88.8 282.28,-84.8 180.72,-84.8 180.72,-48.8 309.28,-48.8 309.28,-84.8"/>
<text text-anchor="middle" x="245" y="-62.6" font-family="Times,serif" font-size="14.00">AppRoutingModule</text>
</g>
<!-- AppRoutingModule&#45;&gt;AppModule -->
<g id="edge5" class="edge">
<title>AppRoutingModule&#45;&gt;AppModule</title>
<path fill="none" stroke="black" d="M245,-84.82C245,-102.17 245,-125.8 245,-125.8 245,-125.8 404.31,-125.8 404.31,-125.8"/>
<polygon fill="black" stroke="black" points="404.31,-129.3 414.31,-125.8 404.31,-122.3 404.31,-129.3"/>
</g>
<!-- AppStructuralModule -->
<g id="node7" class="node">
<title>AppStructuralModule</title>
<polygon fill="#8dd3c7" stroke="black" points="162.37,-84.8 159.37,-88.8 138.37,-88.8 135.37,-84.8 23.63,-84.8 23.63,-48.8 162.37,-48.8 162.37,-84.8"/>
<text text-anchor="middle" x="93" y="-62.6" font-family="Times,serif" font-size="14.00">AppStructuralModule</text>
</g>
<!-- AppStructuralModule&#45;&gt;AppModule -->
<g id="edge6" class="edge">
<title>AppStructuralModule&#45;&gt;AppModule</title>
<path fill="none" stroke="black" d="M93,-85.08C93,-106.12 93,-137.8 93,-137.8 93,-137.8 404,-137.8 404,-137.8"/>
<polygon fill="black" stroke="black" points="404,-141.3 414,-137.8 404,-134.3 404,-141.3"/>
</g>
</g>
</svg>
