<?xml version="1.0" encoding="UTF-8" standalone="no"?>
<!DOCTYPE svg PUBLIC "-//W3C//DTD SVG 1.1//EN"
 "http://www.w3.org/Graphics/SVG/1.1/DTD/svg11.dtd">
<!-- Generated by graphviz version 3.0.0 (20220226.1711)
 -->
<!-- Title: dependencies Pages: 1 -->
<svg width="1882pt" height="247pt"
 viewBox="0.00 0.00 1882.00 246.80" xmlns="http://www.w3.org/2000/svg" xmlns:xlink="http://www.w3.org/1999/xlink">
<g id="graph0" class="graph" transform="scale(1 1) rotate(0) translate(4 242.8)">
<title>dependencies</title>
<polygon fill="white" stroke="transparent" points="-4,4 -4,-242.8 1878,-242.8 1878,4 -4,4"/>
<text text-anchor="middle" x="937" y="-8.2" font-family="sans-serif" font-size="14.00">dependencies</text>
<g id="clust1" class="cluster">
<title>cluster_AppCommonModule</title>
<polygon fill="none" stroke="black" stroke-dasharray="1,5" points="8,-32.8 8,-230.8 1866,-230.8 1866,-32.8 8,-32.8"/>
</g>
<g id="clust2" class="cluster">
<title>cluster_AppCommonModule_declarations</title>
<polygon fill="none" stroke="black" points="220,-40.8 220,-92.8 1858,-92.8 1858,-40.8 220,-40.8"/>
</g>
<g id="clust15" class="cluster">
<title>cluster_AppCommonModule_bootstrap</title>
<polygon fill="none" stroke="black" points="695,-170.8 695,-222.8 1298,-222.8 1298,-170.8 695,-170.8"/>
</g>
<g id="clust14" class="cluster">
<title>cluster_AppCommonModule_exports</title>
<polygon fill="none" stroke="black" points="495,-170.8 495,-222.8 687,-222.8 687,-170.8 495,-170.8"/>
</g>
<g id="clust13" class="cluster">
<title>cluster_AppCommonModule_imports</title>
<polygon fill="none" stroke="black" points="16,-40.8 16,-92.8 212,-92.8 212,-40.8 16,-40.8"/>
</g>
<!-- AutocompleteComponent -->
<g id="node1" class="node">
<title>AutocompleteComponent</title>
<polygon fill="#ffffb3" stroke="black" points="1850.14,-84.8 1689.86,-84.8 1689.86,-48.8 1850.14,-48.8 1850.14,-84.8"/>
<text text-anchor="middle" x="1770" y="-62.6" font-family="Times,serif" font-size="14.00">AutocompleteComponent</text>
</g>
<!-- AppCommonModule -->
<g id="node11" class="node">
<title>AppCommonModule</title>
<polygon fill="#8dd3c7" stroke="black" points="1014.78,-149.8 1011.78,-153.8 990.78,-153.8 987.78,-149.8 879.22,-149.8 879.22,-113.8 1014.78,-113.8 1014.78,-149.8"/>
<text text-anchor="middle" x="947" y="-127.6" font-family="Times,serif" font-size="14.00">AppCommonModule</text>
</g>
<!-- AutocompleteComponent&#45;&gt;AppCommonModule -->
<g id="edge1" class="edge">
<title>AutocompleteComponent&#45;&gt;AppCommonModule</title>
<path fill="none" stroke="black" d="M1770,-84.83C1770,-105.57 1770,-136.8 1770,-136.8 1770,-136.8 1025.05,-136.8 1025.05,-136.8"/>
<polygon fill="black" stroke="black" points="1025.05,-133.3 1015.05,-136.8 1025.05,-140.3 1025.05,-133.3"/>
</g>
<!-- CheckPermissionsDirective -->
<g id="node2" class="node">
<title>CheckPermissionsDirective</title>
<polygon fill="#ffffb3" stroke="black" points="1671.53,-84.8 1500.47,-84.8 1500.47,-48.8 1671.53,-48.8 1671.53,-84.8"/>
<text text-anchor="middle" x="1586" y="-62.6" font-family="Times,serif" font-size="14.00">CheckPermissionsDirective</text>
</g>
<!-- CheckPermissionsDirective&#45;&gt;AppCommonModule -->
<g id="edge2" class="edge">
<title>CheckPermissionsDirective&#45;&gt;AppCommonModule</title>
<path fill="none" stroke="black" d="M1586,-84.91C1586,-104.14 1586,-131.8 1586,-131.8 1586,-131.8 1025.08,-131.8 1025.08,-131.8"/>
<polygon fill="black" stroke="black" points="1025.08,-128.3 1015.08,-131.8 1025.08,-135.3 1025.08,-128.3"/>
</g>
<!-- ContactTableComponent -->
<g id="node3" class="node">
<title>ContactTableComponent</title>
<polygon fill="#ffffb3" stroke="black" points="1482.25,-84.8 1325.75,-84.8 1325.75,-48.8 1482.25,-48.8 1482.25,-84.8"/>
<text text-anchor="middle" x="1404" y="-62.6" font-family="Times,serif" font-size="14.00">ContactTableComponent</text>
</g>
<!-- ContactTableComponent&#45;&gt;AppCommonModule -->
<g id="edge3" class="edge">
<title>ContactTableComponent&#45;&gt;AppCommonModule</title>
<path fill="none" stroke="black" d="M1404,-85.1C1404,-103.07 1404,-127.8 1404,-127.8 1404,-127.8 1024.92,-127.8 1024.92,-127.8"/>
<polygon fill="black" stroke="black" points="1024.92,-124.3 1014.92,-127.8 1024.92,-131.3 1024.92,-124.3"/>
</g>
<!-- FaqComponent -->
<g id="node4" class="node">
<title>FaqComponent</title>
<polygon fill="#ffffb3" stroke="black" points="1307.33,-84.8 1204.67,-84.8 1204.67,-48.8 1307.33,-48.8 1307.33,-84.8"/>
<text text-anchor="middle" x="1256" y="-62.6" font-family="Times,serif" font-size="14.00">FaqComponent</text>
</g>
<!-- FaqComponent&#45;&gt;AppCommonModule -->
<g id="edge4" class="edge">
<title>FaqComponent&#45;&gt;AppCommonModule</title>
<path fill="none" stroke="black" d="M1247.49,-84.83C1247.49,-101.2 1247.49,-122.8 1247.49,-122.8 1247.49,-122.8 1024.81,-122.8 1024.81,-122.8"/>
<polygon fill="black" stroke="black" points="1024.81,-119.3 1014.81,-122.8 1024.81,-126.3 1024.81,-119.3"/>
</g>
<!-- HomeComponent -->
<g id="node5" class="node">
<title>HomeComponent</title>
<polygon fill="#ffffb3" stroke="black" points="1186.55,-84.8 1071.45,-84.8 1071.45,-48.8 1186.55,-48.8 1186.55,-84.8"/>
<text text-anchor="middle" x="1129" y="-62.6" font-family="Times,serif" font-size="14.00">HomeComponent</text>
</g>
<!-- HomeComponent&#45;&gt;AppCommonModule -->
<g id="edge5" class="edge">
<title>HomeComponent&#45;&gt;AppCommonModule</title>
<path fill="none" stroke="black" d="M1112.38,-84.99C1112.38,-99.98 1112.38,-118.8 1112.38,-118.8 1112.38,-118.8 1025.22,-118.8 1025.22,-118.8"/>
<polygon fill="black" stroke="black" points="1025.22,-115.3 1015.22,-118.8 1025.22,-122.3 1025.22,-115.3"/>
</g>
<!-- HomeExpandablePanelComponent -->
<g id="node6" class="node">
<title>HomeExpandablePanelComponent</title>
<polygon fill="#ffffb3" stroke="black" points="1053.23,-84.8 840.77,-84.8 840.77,-48.8 1053.23,-48.8 1053.23,-84.8"/>
<text text-anchor="middle" x="947" y="-62.6" font-family="Times,serif" font-size="14.00">HomeExpandablePanelComponent</text>
</g>
<!-- HomeExpandablePanelComponent&#45;&gt;AppCommonModule -->
<g id="edge6" class="edge">
<title>HomeExpandablePanelComponent&#45;&gt;AppCommonModule</title>
<path fill="none" stroke="black" d="M947,-84.91C947,-84.91 947,-103.79 947,-103.79"/>
<polygon fill="black" stroke="black" points="943.5,-103.79 947,-113.79 950.5,-103.79 943.5,-103.79"/>
</g>
<!-- LeftPanelComponent -->
<g id="node7" class="node">
<title>LeftPanelComponent</title>
<polygon fill="#ffffb3" stroke="black" points="822.75,-84.8 687.25,-84.8 687.25,-48.8 822.75,-48.8 822.75,-84.8"/>
<text text-anchor="middle" x="755" y="-62.6" font-family="Times,serif" font-size="14.00">LeftPanelComponent</text>
</g>
<!-- LeftPanelComponent&#45;&gt;AppCommonModule -->
<g id="edge7" class="edge">
<title>LeftPanelComponent&#45;&gt;AppCommonModule</title>
<path fill="none" stroke="black" d="M762.84,-84.99C762.84,-99.98 762.84,-118.8 762.84,-118.8 762.84,-118.8 869.21,-118.8 869.21,-118.8"/>
<polygon fill="black" stroke="black" points="869.21,-122.3 879.21,-118.8 869.21,-115.3 869.21,-122.3"/>
</g>
<!-- LoginComponent -->
<g id="node8" class="node">
<title>LoginComponent</title>
<polygon fill="#ffffb3" stroke="black" points="669.27,-84.8 554.73,-84.8 554.73,-48.8 669.27,-48.8 669.27,-84.8"/>
<text text-anchor="middle" x="612" y="-62.6" font-family="Times,serif" font-size="14.00">LoginComponent</text>
</g>
<!-- LoginComponent&#45;&gt;AppCommonModule -->
<g id="edge8" class="edge">
<title>LoginComponent&#45;&gt;AppCommonModule</title>
<path fill="none" stroke="black" d="M612,-84.83C612,-101.2 612,-122.8 612,-122.8 612,-122.8 869.21,-122.8 869.21,-122.8"/>
<polygon fill="black" stroke="black" points="869.21,-126.3 879.21,-122.8 869.21,-119.3 869.21,-126.3"/>
</g>
<!-- MiddlePanelComponent -->
<g id="node9" class="node">
<title>MiddlePanelComponent</title>
<polygon fill="#ffffb3" stroke="black" points="536.38,-84.8 383.62,-84.8 383.62,-48.8 536.38,-48.8 536.38,-84.8"/>
<text text-anchor="middle" x="460" y="-62.6" font-family="Times,serif" font-size="14.00">MiddlePanelComponent</text>
</g>
<!-- MiddlePanelComponent&#45;&gt;AppCommonModule -->
<g id="edge9" class="edge">
<title>MiddlePanelComponent&#45;&gt;AppCommonModule</title>
<path fill="none" stroke="black" d="M519.96,-85.1C519.96,-103.07 519.96,-127.8 519.96,-127.8 519.96,-127.8 868.86,-127.8 868.86,-127.8"/>
<polygon fill="black" stroke="black" points="868.86,-131.3 878.86,-127.8 868.86,-124.3 868.86,-131.3"/>
</g>
<!-- MigrationComponent -->
<g id="node10" class="node">
<title>MigrationComponent</title>
<polygon fill="#ffffb3" stroke="black" points="365.82,-84.8 228.18,-84.8 228.18,-48.8 365.82,-48.8 365.82,-84.8"/>
<text text-anchor="middle" x="297" y="-62.6" font-family="Times,serif" font-size="14.00">MigrationComponent</text>
</g>
<!-- MigrationComponent&#45;&gt;AppCommonModule -->
<g id="edge10" class="edge">
<title>MigrationComponent&#45;&gt;AppCommonModule</title>
<path fill="none" stroke="black" d="M297,-84.91C297,-104.14 297,-131.8 297,-131.8 297,-131.8 868.97,-131.8 868.97,-131.8"/>
<polygon fill="black" stroke="black" points="868.97,-135.3 878.97,-131.8 868.97,-128.3 868.97,-135.3"/>
</g>
<!-- CheckPermissionsDirective  -->
<g id="node13" class="node">
<title>CheckPermissionsDirective </title>
<polygon fill="#fb8072" stroke="black" points="678.52,-214.8 503.48,-214.8 503.48,-178.8 678.52,-178.8 678.52,-214.8"/>
<text text-anchor="middle" x="591" y="-192.6" font-family="Times,serif" font-size="14.00">CheckPermissionsDirective </text>
</g>
<!-- AppCommonModule&#45;&gt;CheckPermissionsDirective  -->
<g id="edge12" class="edge">
<title>AppCommonModule&#45;&gt;CheckPermissionsDirective </title>
<path fill="none" stroke="black" stroke-dasharray="5,2" d="M879.15,-140.8C798.29,-140.8 673.95,-140.8 673.95,-140.8 673.95,-140.8 673.95,-168.77 673.95,-168.77"/>
<polygon fill="black" stroke="black" points="670.45,-168.77 673.95,-178.77 677.45,-168.77 670.45,-168.77"/>
</g>
<!-- LoginComponent  -->
<g id="node14" class="node">
<title>LoginComponent </title>
<polygon fill="#80b1d3" stroke="black" points="1290.27,-214.8 1171.73,-214.8 1171.73,-178.8 1290.27,-178.8 1290.27,-214.8"/>
<text text-anchor="middle" x="1231" y="-192.6" font-family="Times,serif" font-size="14.00">LoginComponent </text>
</g>
<!-- AppCommonModule&#45;&gt;LoginComponent  -->
<g id="edge13" class="edge">
<title>AppCommonModule&#45;&gt;LoginComponent </title>
<path fill="none" stroke="black" stroke-dasharray="1,5" d="M1014.82,-140.8C1083.39,-140.8 1179.32,-140.8 1179.32,-140.8 1179.32,-140.8 1179.32,-168.77 1179.32,-168.77"/>
<polygon fill="black" stroke="black" points="1175.82,-168.77 1179.32,-178.77 1182.82,-168.77 1175.82,-168.77"/>
</g>
<!-- HomeComponent  -->
<g id="node15" class="node">
<title>HomeComponent </title>
<polygon fill="#80b1d3" stroke="black" points="1153.54,-214.8 1034.46,-214.8 1034.46,-178.8 1153.54,-178.8 1153.54,-214.8"/>
<text text-anchor="middle" x="1094" y="-192.6" font-family="Times,serif" font-size="14.00">HomeComponent </text>
</g>
<!-- AppCommonModule&#45;&gt;HomeComponent  -->
<g id="edge14" class="edge">
<title>AppCommonModule&#45;&gt;HomeComponent </title>
<path fill="none" stroke="black" stroke-dasharray="1,5" d="M1014.84,-145.8C1031.13,-145.8 1043.92,-145.8 1043.92,-145.8 1043.92,-145.8 1043.92,-168.68 1043.92,-168.68"/>
<polygon fill="black" stroke="black" points="1040.42,-168.68 1043.92,-178.68 1047.42,-168.68 1040.42,-168.68"/>
</g>
<!-- LeftPanelComponent  -->
<g id="node16" class="node">
<title>LeftPanelComponent </title>
<polygon fill="#80b1d3" stroke="black" points="1016.75,-214.8 877.25,-214.8 877.25,-178.8 1016.75,-178.8 1016.75,-214.8"/>
<text text-anchor="middle" x="947" y="-192.6" font-family="Times,serif" font-size="14.00">LeftPanelComponent </text>
</g>
<!-- AppCommonModule&#45;&gt;LeftPanelComponent  -->
<g id="edge15" class="edge">
<title>AppCommonModule&#45;&gt;LeftPanelComponent </title>
<path fill="none" stroke="black" stroke-dasharray="1,5" d="M947,-149.91C947,-149.91 947,-168.79 947,-168.79"/>
<polygon fill="black" stroke="black" points="943.5,-168.79 947,-178.79 950.5,-168.79 943.5,-168.79"/>
</g>
<!-- MiddlePanelComponent  -->
<g id="node17" class="node">
<title>MiddlePanelComponent </title>
<polygon fill="#80b1d3" stroke="black" points="859.38,-214.8 702.62,-214.8 702.62,-178.8 859.38,-178.8 859.38,-214.8"/>
<text text-anchor="middle" x="781" y="-192.6" font-family="Times,serif" font-size="14.00">MiddlePanelComponent </text>
</g>
<!-- AppCommonModule&#45;&gt;MiddlePanelComponent  -->
<g id="edge16" class="edge">
<title>AppCommonModule&#45;&gt;MiddlePanelComponent </title>
<path fill="none" stroke="black" stroke-dasharray="1,5" d="M879.04,-145.8C862.72,-145.8 849.91,-145.8 849.91,-145.8 849.91,-145.8 849.91,-168.68 849.91,-168.68"/>
<polygon fill="black" stroke="black" points="846.41,-168.68 849.91,-178.68 853.41,-168.68 846.41,-168.68"/>
</g>
<!-- AppCommonRoutingModule -->
<g id="node12" class="node">
<title>AppCommonRoutingModule</title>
<polygon fill="#8dd3c7" stroke="black" points="204.4,-84.8 201.4,-88.8 180.4,-88.8 177.4,-84.8 23.6,-84.8 23.6,-48.8 204.4,-48.8 204.4,-84.8"/>
<text text-anchor="middle" x="114" y="-62.6" font-family="Times,serif" font-size="14.00">AppCommonRoutingModule</text>
</g>
<!-- AppCommonRoutingModule&#45;&gt;AppCommonModule -->
<g id="edge11" class="edge">
<title>AppCommonRoutingModule&#45;&gt;AppCommonModule</title>
<path fill="none" stroke="black" d="M114,-84.83C114,-105.57 114,-136.8 114,-136.8 114,-136.8 869.19,-136.8 869.19,-136.8"/>
<polygon fill="black" stroke="black" points="869.19,-140.3 879.19,-136.8 869.19,-133.3 869.19,-140.3"/>
</g>
</g>
</svg>
